# Blender v2.76 (sub 0) OBJ File: '1er_1.blend'
# www.blender.org
mtllib couloir_f2.mtl
o Cube_Cube.036
v -2.082635 2.300000 -3.912537
v -1.851313 2.300000 -3.912537
v -1.851313 2.300000 -4.104301
v -2.082635 2.300000 -4.104301
v -2.082635 2.300000 -2.558903
v -1.851313 2.300000 -2.558903
v -1.197056 2.300000 -3.912537
v -1.197056 2.300000 -4.104301
v -1.851313 0.000000 -4.104301
v -2.082635 0.000000 -4.104301
v -2.082635 0.000000 -2.558903
v -1.851313 0.000000 -2.558903
v -1.851313 0.000000 -3.912537
v -1.197056 0.000000 -4.104301
v -1.197056 0.000000 -3.912537
v -0.937610 2.300000 -3.912537
v -0.937610 2.300000 -4.104301
v -2.082635 0.000000 -3.912537
v -0.937610 0.000000 -4.104301
v -1.197056 0.000000 -3.201880
v -1.197056 2.300000 -3.201880
v -0.937610 2.300000 -3.201880
v -0.937610 0.000000 -3.912537
v -0.937610 0.000000 -3.201880
v -1.197056 0.000000 -3.089077
v -1.197056 2.300000 -3.089077
v -0.937610 2.300000 -3.089077
v -0.937610 0.000000 -3.089077
v -0.001346 2.300000 -3.201880
v -0.001346 0.000000 -3.201880
v -0.001346 2.300000 -3.089077
v -0.001346 0.000000 -3.089077
v -0.001346 2.300000 -3.935099
v -0.001346 0.000000 -3.935099
v 0.269381 2.300000 -3.089077
v 0.269381 2.300000 -3.201880
v 0.269381 0.000000 -3.201880
v 0.269381 0.000000 -3.089077
v 0.269381 0.000000 -3.935099
v 0.269381 2.300000 -3.935099
v -0.001346 2.300000 -4.149424
v -0.001346 0.000000 -4.149424
v 0.269381 0.000000 -4.149424
v 0.269381 2.300000 -4.149424
v 1.171803 0.000000 -3.935099
v 1.171803 2.300000 -3.935099
v 1.171803 0.000000 -4.149424
v 1.171803 2.300000 -4.149424
v 1.171803 0.000000 -2.998835
v 1.171803 2.300000 -2.998835
v 1.453811 0.000000 -4.149424
v 1.453811 0.000000 -3.935099
v 1.453811 2.300000 -3.935099
v 1.453811 2.300000 -4.149424
v 1.453811 2.300000 -2.998835
v 1.453811 0.000000 -2.998835
v 4.228761 0.000000 -4.149424
v 4.228761 0.000000 -3.935099
v 4.228761 2.300000 -3.935099
v 4.228761 2.300000 -4.149424
v 4.488207 0.000000 -4.149424
v 4.488207 0.000000 -3.935099
v 4.488207 2.300000 -3.935099
v 4.488207 2.300000 -4.149424
v 4.228761 0.000000 -2.186655
v 4.228761 2.300000 -2.186655
v 4.488207 0.000000 -2.186655
v 4.488207 2.300000 -2.186655
v 1.419970 0.000000 -2.186655
v 1.419970 2.300000 -2.186655
v 4.488207 0.000000 -1.927208
v 4.228761 0.000000 -1.927208
v 4.228761 2.300000 -1.927208
v 4.488207 2.300000 -1.927208
v 1.419970 2.300000 -1.927208
v 1.419970 0.000000 -1.927208
v 1.419970 0.000000 -2.322018
v 1.419970 2.300000 -2.322018
v 1.126682 2.300000 -2.186655
v 1.126682 2.300000 -1.927208
v 1.126682 0.000000 -1.927208
v 1.126682 0.000000 -2.186655
v 1.126682 2.300000 -2.322018
v 1.126682 0.000000 -2.322018
v 1.419970 2.300000 4.771351
v 1.419970 0.000000 4.771351
v 1.126682 2.300000 4.771351
v 1.126682 0.000000 4.771351
v 1.419970 0.000000 4.955774
v 1.419970 2.300000 4.955774
v 1.126682 2.300000 4.955774
v 1.126682 0.000000 4.955774
v -2.082635 0.000000 -1.333611
v -1.911571 0.000000 -1.333611
v -1.911571 0.000000 -1.250759
v -2.082635 0.000000 -1.250759
v -2.082635 0.000000 -1.905458
v -1.911571 0.000000 -1.905458
v -1.911571 2.300000 -1.333611
v -1.911571 2.300000 -1.250759
v -1.911571 0.000000 -0.475239
v -2.082635 0.000000 -0.475239
v -2.082635 2.300000 -1.905458
v -1.911571 2.300000 -1.905458
v -2.082635 2.300000 -1.250759
v -2.082635 2.300000 -1.333611
v -1.911571 2.300000 -0.475239
v -2.082635 2.300000 -0.475239
v -2.082635 0.000000 1.088701
v -1.911571 0.000000 1.088701
v -1.911571 0.000000 1.184345
v -2.082635 0.000000 1.184345
v -2.082635 0.000000 0.289681
v -1.911571 0.000000 0.289681
v -1.911571 2.300000 1.088701
v -1.911571 2.300000 1.184345
v -1.911571 0.000000 3.315065
v -2.082635 0.000000 3.315065
v -2.082635 2.300000 0.289681
v -1.911571 2.300000 0.289681
v -2.082635 2.300000 1.184345
v -2.082635 2.300000 1.088701
v -1.911571 2.300000 3.315065
v -1.911571 0.000000 3.401235
v -2.082635 0.000000 3.401235
v -2.082635 2.300000 3.315065
v -1.911571 2.300000 3.401235
v -1.911571 0.000000 3.918248
v -2.082635 0.000000 3.918248
v -2.082635 2.300000 3.401235
v -1.911571 2.300000 3.918248
v -2.082635 2.300000 3.918248
v -1.902681 2.300000 4.955774
v -1.902681 2.300000 4.784225
v -2.082635 2.300000 4.784225
v -2.082635 2.300000 4.955774
v -1.805219 2.300000 4.955774
v -1.805219 2.300000 4.784225
v -1.902681 2.300000 4.638032
v -2.082635 2.300000 4.638032
v -1.805219 0.000000 4.955774
v -1.805219 0.000000 4.784225
v -1.902681 0.000000 4.784225
v -1.902681 0.000000 4.638032
v -2.082635 0.000000 4.638032
v -1.902681 0.000000 4.955774
v -2.082635 0.000000 4.784225
v -2.082635 0.000000 4.955774
v -1.095834 2.300000 4.955774
v -1.095834 2.300000 4.776871
v -1.095834 0.000000 4.776871
v -1.095834 0.000000 4.955774
v -0.871980 2.300000 4.955774
v -0.871980 2.300000 4.776871
v -0.871980 0.000000 4.776871
v -0.871980 0.000000 4.955774
v 0.073706 2.300000 4.955774
v 0.073706 2.300000 4.776871
v 0.073706 0.000000 4.776871
v 0.073706 0.000000 4.955774
v 0.297560 2.300000 4.955774
v 0.297560 2.300000 4.776871
v 0.297560 0.000000 4.776871
v 0.297560 0.000000 4.955774
v -1.195150 0.903557 3.574865
v -1.195150 0.903557 0.159740
v -1.195150 -0.000000 0.159740
v -1.195150 -0.000000 3.574865
v -1.195150 -0.000000 3.711952
v -1.195150 0.903557 3.711952
v -1.070108 0.903557 3.574865
v -1.070108 0.903557 0.159740
v -1.195150 0.903557 0.055293
v -1.195150 -0.000000 0.055293
v -1.070108 -0.000000 0.159740
v -1.070108 -0.000000 3.574865
v -1.070108 0.903557 3.711952
v -1.070108 -0.000000 3.711952
v -1.070108 0.903557 0.055293
v -1.070108 -0.000000 0.055293
v 0.255064 0.903557 3.717469
v 0.255064 0.903557 3.560799
v 0.255064 -0.000000 3.560799
v 0.255064 -0.000000 3.717469
v 0.255064 -0.000000 0.159740
v 0.255064 0.903557 0.159740
v 0.255064 0.903557 0.055293
v 0.255064 -0.000000 0.055293
v 0.366039 0.903557 3.560799
v 0.366039 0.903557 3.717469
v 0.366039 -0.000000 3.560799
v 0.366039 -0.000000 3.717469
v 0.366039 0.903557 0.159740
v 0.366039 0.903557 0.055293
v 0.366039 -0.000000 0.055293
v 0.366039 -0.000000 0.159740
vn 0.000000 1.000000 0.000000
vn 0.000000 0.000000 -1.000000
vn 0.000000 0.000000 1.000000
vn 1.000000 0.000000 0.000000
vn 0.000000 -1.000000 0.000000
vn -1.000000 0.000000 0.000000
vn -0.004200 0.000000 1.000000
vn -0.010600 0.000000 -0.999900
usemtl None
s off
f 2//1 3//1 4//1
f 6//1 2//1 1//1
f 2//1 7//1 8//1
f 3//2 9//2 10//2
f 12//3 6//3 5//3
f 2//4 6//4 12//4
f 3//2 8//2 14//2
f 13//3 15//3 7//3
f 7//1 16//1 17//1
f 9//5 13//5 18//5
f 13//5 12//5 11//5
f 9//5 14//5 15//5
f 8//2 17//2 19//2
f 15//6 20//6 21//6
f 7//1 21//1 22//1
f 23//4 19//4 17//4
f 14//5 19//5 23//5
f 23//5 24//5 20//5
f 20//6 25//6 26//6
f 16//4 22//4 24//4
f 21//1 26//1 27//1
f 24//5 28//5 25//5
f 25//3 28//3 27//3
f 22//2 29//2 30//2
f 27//1 31//1 29//1
f 24//5 30//5 32//5
f 28//3 32//3 31//3
f 29//6 33//6 34//6
f 31//1 35//1 36//1
f 30//5 37//5 38//5
f 32//3 38//3 35//3
f 30//5 34//5 39//5
f 36//1 40//1 33//1
f 33//6 41//6 42//6
f 36//4 35//4 38//4
f 37//4 39//4 40//4
f 34//5 42//5 43//5
f 40//1 44//1 41//1
f 41//2 44//2 43//2
f 39//3 45//3 46//3
f 43//5 47//5 45//5
f 40//1 46//1 48//1
f 44//2 48//2 47//2
f 45//6 49//6 50//6
f 47//5 51//5 52//5
f 46//1 53//1 54//1
f 48//2 54//2 51//2
f 46//1 50//1 55//1
f 52//5 56//5 49//5
f 49//3 56//3 55//3
f 51//5 57//5 58//5
f 53//1 59//1 60//1
f 54//2 60//2 57//2
f 53//4 55//4 56//4
f 52//3 58//3 59//3
f 57//5 61//5 62//5
f 59//1 63//1 64//1
f 60//2 64//2 61//2
f 58//6 65//6 66//6
f 62//5 67//5 65//5
f 62//4 61//4 64//4
f 59//1 66//1 68//1
f 65//2 69//2 70//2
f 63//4 68//4 67//4
f 67//5 71//5 72//5
f 66//1 73//1 74//1
f 66//1 70//1 75//1
f 72//5 76//5 69//5
f 69//4 77//4 78//4
f 68//4 74//4 71//4
f 72//3 71//3 74//3
f 73//3 75//3 76//3
f 70//1 79//1 80//1
f 76//5 81//5 82//5
f 70//1 78//1 83//1
f 82//5 84//5 77//5
f 77//2 84//2 83//2
f 75//4 85//4 86//4
f 80//1 87//1 85//1
f 82//6 81//6 80//6
f 76//5 86//5 88//5
f 79//6 83//6 84//6
f 86//4 85//4 90//4
f 81//6 88//6 87//6
f 85//1 87//1 91//1
f 88//5 86//5 89//5
f 87//6 88//6 92//6
f 91//3 92//3 89//3
f 4//6 18//6 1//6
f 94//5 95//5 96//5
f 98//5 94//5 93//5
f 100//4 95//4 94//4
f 95//5 101//5 102//5
f 104//2 98//2 97//2
f 94//4 98//4 104//4
f 100//1 99//1 106//1
f 100//4 107//4 101//4
f 101//3 107//3 108//3
f 99//1 104//1 103//1
f 107//1 100//1 105//1
f 105//6 106//6 96//6
f 110//5 111//5 112//5
f 114//5 110//5 109//5
f 116//4 111//4 110//4
f 111//5 117//5 118//5
f 120//2 114//2 113//2
f 110//4 114//4 120//4
f 116//1 115//1 122//1
f 116//4 123//4 117//4
f 117//5 124//5 125//5
f 115//1 120//1 119//1
f 123//1 116//1 121//1
f 123//4 127//4 124//4
f 124//5 128//5 129//5
f 127//1 123//1 126//1
f 127//4 131//4 128//4
f 128//3 131//3 132//3
f 131//1 127//1 130//1
f 118//6 121//6 112//6
f 134//1 135//1 136//1
f 138//1 134//1 133//1
f 134//1 139//1 140//1
f 142//4 138//4 137//4
f 134//2 138//2 142//2
f 143//4 144//4 139//4
f 139//2 144//2 145//2
f 143//5 142//5 141//5
f 144//5 143//5 147//5
f 143//5 146//5 148//5
f 146//3 141//3 133//3
f 135//6 145//6 147//6
f 150//6 151//6 152//6
f 154//1 150//1 149//1
f 154//2 155//2 151//2
f 151//5 155//5 156//5
f 155//4 154//4 153//4
f 156//3 153//3 149//3
f 158//6 159//6 160//6
f 162//1 158//1 157//1
f 162//2 163//2 159//2
f 159//5 163//5 164//5
f 163//4 162//4 161//4
f 164//3 161//3 157//3
f 166//6 167//6 168//6
f 168//6 169//6 170//6
f 172//1 166//1 165//1
f 166//6 173//6 174//6
f 167//5 175//5 176//5
f 165//1 170//1 177//1
f 176//5 178//5 169//5
f 170//3 169//3 178//3
f 171//4 176//4 175//4
f 172//1 179//1 173//1
f 167//5 174//5 180//5
f 179//2 180//2 174//2
f 181//1 182//1 171//1
f 176//5 183//5 184//5
f 184//7 181//7 177//7
f 175//3 185//3 186//3
f 176//8 171//8 182//8
f 172//1 186//1 187//1
f 180//5 188//5 185//5
f 179//2 187//2 188//2
f 182//1 181//1 190//1
f 191//5 192//5 184//5
f 184//3 192//3 190//3
f 185//6 183//6 182//6
f 186//1 193//1 194//1
f 188//5 195//5 196//5
f 187//2 194//2 195//2
f 189//4 190//4 192//4
f 186//1 182//1 189//1
f 196//5 191//5 183//5
f 196//4 195//4 194//4
f 193//4 189//4 191//4
f 1//1 2//1 4//1
f 5//1 6//1 1//1
f 3//1 2//1 8//1
f 4//2 3//2 10//2
f 11//3 12//3 5//3
f 13//4 2//4 12//4
f 9//2 3//2 14//2
f 2//3 13//3 7//3
f 8//1 7//1 17//1
f 10//5 9//5 18//5
f 18//5 13//5 11//5
f 13//5 9//5 15//5
f 14//2 8//2 19//2
f 7//6 15//6 21//6
f 16//1 7//1 22//1
f 16//4 23//4 17//4
f 15//5 14//5 23//5
f 15//5 23//5 20//5
f 21//6 20//6 26//6
f 23//4 16//4 24//4
f 22//1 21//1 27//1
f 20//5 24//5 25//5
f 26//3 25//3 27//3
f 24//2 22//2 30//2
f 22//1 27//1 29//1
f 28//5 24//5 32//5
f 27//3 28//3 31//3
f 30//6 29//6 34//6
f 29//1 31//1 36//1
f 32//5 30//5 38//5
f 31//3 32//3 35//3
f 37//5 30//5 39//5
f 29//1 36//1 33//1
f 34//6 33//6 42//6
f 37//4 36//4 38//4
f 36//4 37//4 40//4
f 39//5 34//5 43//5
f 33//1 40//1 41//1
f 42//2 41//2 43//2
f 40//3 39//3 46//3
f 39//5 43//5 45//5
f 44//1 40//1 48//1
f 43//2 44//2 47//2
f 46//6 45//6 50//6
f 45//5 47//5 52//5
f 48//1 46//1 54//1
f 47//2 48//2 51//2
f 53//1 46//1 55//1
f 45//5 52//5 49//5
f 50//3 49//3 55//3
f 52//5 51//5 58//5
f 54//1 53//1 60//1
f 51//2 54//2 57//2
f 52//4 53//4 56//4
f 53//3 52//3 59//3
f 58//5 57//5 62//5
f 60//1 59//1 64//1
f 57//2 60//2 61//2
f 59//6 58//6 66//6
f 58//5 62//5 65//5
f 63//4 62//4 64//4
f 63//1 59//1 68//1
f 66//2 65//2 70//2
f 62//4 63//4 67//4
f 65//5 67//5 72//5
f 68//1 66//1 74//1
f 73//1 66//1 75//1
f 65//5 72//5 69//5
f 70//4 69//4 78//4
f 67//4 68//4 71//4
f 73//3 72//3 74//3
f 72//3 73//3 76//3
f 75//1 70//1 80//1
f 69//5 76//5 82//5
f 79//1 70//1 83//1
f 69//5 82//5 77//5
f 78//2 77//2 83//2
f 76//4 75//4 86//4
f 75//1 80//1 85//1
f 79//6 82//6 80//6
f 81//5 76//5 88//5
f 82//6 79//6 84//6
f 89//4 86//4 90//4
f 80//6 81//6 87//6
f 90//1 85//1 91//1
f 92//5 88//5 89//5
f 91//6 87//6 92//6
f 90//3 91//3 89//3
f 5//6 1//6 18//6
f 4//6 10//6 18//6
f 18//6 11//6 5//6
f 93//5 94//5 96//5
f 97//5 98//5 93//5
f 99//4 100//4 94//4
f 96//5 95//5 102//5
f 103//2 104//2 97//2
f 99//4 94//4 104//4
f 105//1 100//1 106//1
f 95//4 100//4 101//4
f 102//3 101//3 108//3
f 106//1 99//1 103//1
f 108//1 107//1 105//1
f 97//6 93//6 106//6
f 96//6 102//6 108//6
f 108//6 105//6 96//6
f 106//6 103//6 97//6
f 93//6 96//6 106//6
f 109//5 110//5 112//5
f 113//5 114//5 109//5
f 115//4 116//4 110//4
f 112//5 111//5 118//5
f 119//2 120//2 113//2
f 115//4 110//4 120//4
f 121//1 116//1 122//1
f 111//4 116//4 117//4
f 118//5 117//5 125//5
f 122//1 115//1 119//1
f 126//1 123//1 121//1
f 117//4 123//4 124//4
f 125//5 124//5 129//5
f 130//1 127//1 126//1
f 124//4 127//4 128//4
f 129//3 128//3 132//3
f 132//1 131//1 130//1
f 119//6 113//6 109//6
f 109//6 112//6 122//6
f 118//6 125//6 130//6
f 129//6 132//6 130//6
f 130//6 126//6 118//6
f 122//6 119//6 109//6
f 126//6 121//6 118//6
f 125//6 129//6 130//6
f 122//6 112//6 121//6
f 133//1 134//1 136//1
f 137//1 138//1 133//1
f 135//1 134//1 140//1
f 141//4 142//4 137//4
f 143//2 134//2 142//2
f 134//4 143//4 139//4
f 140//2 139//2 145//2
f 146//5 143//5 141//5
f 145//5 144//5 147//5
f 147//5 143//5 148//5
f 133//3 136//3 148//3
f 148//3 146//3 133//3
f 141//3 137//3 133//3
f 147//6 148//6 136//6
f 135//6 140//6 145//6
f 147//6 136//6 135//6
f 149//6 150//6 152//6
f 153//1 154//1 149//1
f 150//2 154//2 151//2
f 152//5 151//5 156//5
f 156//4 155//4 153//4
f 152//3 156//3 149//3
f 157//6 158//6 160//6
f 161//1 162//1 157//1
f 158//2 162//2 159//2
f 160//5 159//5 164//5
f 164//4 163//4 161//4
f 160//3 164//3 157//3
f 165//6 166//6 168//6
f 165//6 168//6 170//6
f 171//1 172//1 165//1
f 167//6 166//6 174//6
f 168//5 167//5 176//5
f 171//1 165//1 177//1
f 168//5 176//5 169//5
f 177//3 170//3 178//3
f 172//4 171//4 175//4
f 166//1 172//1 173//1
f 175//5 167//5 180//5
f 173//2 179//2 174//2
f 177//1 181//1 171//1
f 178//5 176//5 184//5
f 178//7 184//7 177//7
f 172//3 175//3 186//3
f 183//8 176//8 182//8
f 179//1 172//1 187//1
f 175//5 180//5 185//5
f 180//2 179//2 188//2
f 189//1 182//1 190//1
f 183//5 191//5 184//5
f 181//3 184//3 190//3
f 186//6 185//6 182//6
f 187//1 186//1 194//1
f 185//5 188//5 196//5
f 188//2 187//2 195//2
f 191//4 189//4 192//4
f 193//1 186//1 189//1
f 185//5 196//5 183//5
f 193//4 196//4 194//4
f 196//4 193//4 191//4
