# Blender v2.76 (sub 0) OBJ File: '2nd_4.blend'
# www.blender.org
mtllib couloir_f2.mtl
o couloir_f2_Cube_Cube.004
v -3.062032 2.199998 -4.040769
v -3.062032 2.199998 -4.241235
v -3.303853 2.199998 -4.241235
v -3.062032 2.199998 -2.625702
v -3.303853 2.199998 -4.040769
v -2.378083 2.199998 -4.040769
v -2.378083 2.199998 -4.241235
v -3.062032 0.000000 -4.241236
v -3.303853 0.000000 -4.241236
v -3.062032 0.000000 -2.625702
v -3.303853 2.199998 -2.625702
v -2.378083 0.000000 -4.241236
v -3.062032 0.000000 -4.040769
v -2.378083 0.000000 -4.040769
v -2.106862 2.199998 -4.040769
v -2.106862 2.199998 -4.241235
v -3.303853 0.000000 -4.040769
v -3.303853 0.000000 -2.625702
v -2.106862 0.000000 -4.241236
v -2.378083 0.000000 -3.297860
v -2.378083 2.199998 -3.297860
v -2.106862 2.199998 -3.297860
v -2.106862 0.000000 -4.040769
v -2.106862 0.000000 -3.297860
v -2.378083 0.000000 -3.179938
v -2.378083 2.199998 -3.179937
v -2.106862 2.199998 -3.179937
v -2.106862 0.000000 -3.179938
v -1.128107 2.199998 -3.297860
v -1.128107 0.000000 -3.297860
v -1.128107 2.199998 -3.179937
v -1.128107 0.000000 -3.179938
v -1.128107 2.199998 -4.064354
v -1.128107 0.000000 -4.064354
v -0.845094 2.199998 -3.179937
v -0.845094 2.199998 -3.297860
v -0.845094 0.000000 -3.297860
v -0.845094 0.000000 -3.179938
v -0.845094 0.000000 -4.064354
v -0.845094 2.199998 -4.064354
v -1.128107 2.199998 -4.288406
v -1.128107 0.000000 -4.288407
v -0.845094 0.000000 -4.288407
v -0.845094 2.199998 -4.288406
v 0.098284 0.000000 -4.064354
v 0.098284 2.199998 -4.064354
v 0.098284 0.000000 -4.288407
v 0.098284 2.199998 -4.288406
v 0.098284 0.000000 -3.085600
v 0.098284 2.199998 -3.085600
v 0.393090 0.000000 -4.288407
v 0.393090 0.000000 -4.064354
v 0.393090 2.199998 -4.064354
v 0.393090 2.199998 -4.288406
v 0.393090 2.199998 -3.085600
v 0.393090 0.000000 -3.085600
v 3.293977 0.000000 -4.288407
v 3.293977 0.000000 -4.064354
v 3.293977 2.199998 -4.064354
v 3.293977 2.199998 -4.288406
v 3.565198 0.000000 -4.288407
v 3.565198 0.000000 -4.064354
v 3.565198 2.199998 -4.064354
v 3.565198 2.199998 -4.288406
v 3.293977 0.000000 -2.236560
v 3.293977 2.199998 -2.236560
v 3.565198 0.000000 -2.236560
v 3.565198 2.199998 -2.236560
v 0.357713 0.000000 -2.236560
v 0.357713 2.199998 -2.236560
v 3.565198 0.000000 -1.965339
v 3.293977 0.000000 -1.965339
v 3.293977 2.199998 -1.965338
v 3.565198 2.199998 -1.965338
v 0.357713 2.199998 -1.965338
v 0.357713 0.000000 -1.965339
v 0.357713 0.000000 -2.378067
v 0.357713 2.199998 -2.378066
v 0.051115 2.199998 -2.236560
v 0.051115 2.199998 -1.965338
v 0.051115 0.000000 -1.965339
v 0.051115 0.000000 -2.236560
v 0.051115 2.199998 -2.378066
v 0.051115 0.000000 -2.378067
v 0.377802 2.199998 5.074055
v 0.377802 0.000000 5.074054
v 0.081247 2.199998 5.070707
v 0.081247 0.000000 5.070706
v 0.377802 2.199998 5.266847
v 0.081247 2.199998 5.263499
v 0.377802 0.000000 5.266847
v 0.081247 0.000000 5.263499
v -3.125026 0.000000 -1.344802
v -3.125026 0.000000 -1.258190
v -3.303853 0.000000 -1.258190
v -3.125026 0.000000 -1.942602
v -3.303853 0.000000 -1.344802
v -3.125026 2.199998 -1.258190
v -3.125026 0.000000 -0.447474
v -3.303853 0.000000 -0.447474
v -3.125026 2.199998 -1.942601
v -3.303853 0.000000 -1.942602
v -3.125026 2.199998 -1.344802
v -3.303853 2.199998 -1.344802
v -3.125026 2.199998 -0.447474
v -3.303853 2.199998 -0.447474
v -3.303853 2.199998 -1.942601
v -3.303853 2.199998 -1.258190
v -3.125026 0.000000 1.187443
v -3.125026 0.000000 1.287428
v -3.303853 0.000000 1.287428
v -3.125026 0.000000 0.352161
v -3.303853 0.000000 1.187443
v -3.125026 2.199998 1.287428
v -3.125026 0.000000 3.514848
v -3.303853 0.000000 3.514848
v -3.125026 2.199998 0.352161
v -3.303853 0.000000 0.352161
v -3.125026 2.199998 1.187443
v -3.303853 2.199998 1.187443
v -3.125026 2.199998 3.514848
v -3.125026 0.000000 3.604928
v -3.303853 0.000000 3.604928
v -3.303853 2.199998 0.352161
v -3.303853 2.199998 1.287428
v -3.125026 2.199998 3.604929
v -3.125026 0.000000 4.145406
v -3.303853 0.000000 4.145406
v -3.303853 2.199998 3.514848
v -3.125026 2.199998 4.145406
v -3.303853 2.199998 4.145406
v -3.303853 2.199998 3.604929
v -3.115732 2.199998 5.050684
v -3.303853 2.199998 5.050684
v -3.303853 2.199998 5.230019
v -3.013847 2.199998 5.050684
v -3.115732 2.199998 5.230019
v -3.115732 2.199998 4.897857
v -3.303853 2.199998 4.897857
v -3.013847 0.000000 5.050684
v -3.013847 2.199998 5.230019
v -3.115732 0.000000 5.050684
v -3.115732 0.000000 4.897856
v -3.303853 0.000000 4.897856
v -3.013847 0.000000 5.230018
v -3.303853 0.000000 5.050684
v -3.115732 0.000000 5.230018
v -3.303853 0.000000 5.230018
v -2.317522 2.199998 5.086874
v -2.317522 0.000000 5.086873
v -2.317522 0.000000 5.369347
v -1.964072 2.199998 5.086874
v -2.317522 2.199998 5.369347
v -1.964072 0.000000 5.086873
v -1.964072 0.000000 5.369347
v -1.964072 2.199998 5.369347
v -1.046984 2.199998 5.098199
v -1.046984 0.000000 5.098198
v -1.046984 0.000000 5.358021
v -0.721877 2.199998 5.098199
v -1.046984 2.199998 5.358022
v -0.721877 0.000000 5.098198
v -0.721877 0.000000 5.358021
v -0.721877 2.199998 5.358022
vt 0.968984 0.679615
vt 0.968984 0.579382
vt 0.848073 0.579382
vt 0.968984 0.387149
vt 0.968984 -0.320385
vt 0.848073 -0.320385
vt 1.310958 0.679615
vt 1.310958 0.579382
vt 0.968984 0.500000
vt 0.968984 1.650000
vt 0.848073 1.650000
vt 0.650000 0.679615
vt 0.650000 1.387149
vt -0.500000 1.387149
vt 1.310958 0.500000
vt 1.310958 1.650000
vt 0.310958 0.679615
vt 0.446569 0.679615
vt 0.446569 0.579382
vt 0.848073 0.679615
vt 0.968984 1.387149
vt 0.848073 1.387149
vt 0.500000 0.679615
vt 0.500000 1.051070
vt 1.650000 1.051070
vt 0.310958 1.051070
vt 0.446569 1.051070
vt 0.310958 0.579382
vt 0.500000 0.051070
vt 0.500000 0.110031
vt 1.650000 0.110031
vt 0.310958 0.051070
vt 0.310958 0.110031
vt 0.446569 0.110031
vt 0.446569 0.051070
vt 0.310958 0.500000
vt 0.446569 0.500000
vt 0.446569 1.650000
vt 0.935946 0.110031
vt 0.935946 0.051070
vt 0.935946 0.500000
vt 0.935946 1.650000
vt 1.077453 0.110031
vt 1.077453 0.051070
vt 1.077453 0.500000
vt 1.077453 1.650000
vt 0.935946 -0.332177
vt 1.077453 -0.332177
vt 0.077453 0.051070
vt 0.077453 -0.332177
vt -0.064054 -0.332177
vt 0.650000 0.051070
vt 0.650000 0.110031
vt -0.500000 0.110031
vt 0.500000 -0.332177
vt 1.650000 -0.332177
vt 0.935946 0.667823
vt 0.935946 0.555797
vt 1.077453 0.555797
vt 0.077453 0.667823
vt 0.077453 0.555797
vt -0.064054 0.555797
vt 0.077453 0.500000
vt 0.549142 0.500000
vt 0.549142 1.650000
vt 0.549142 0.555797
vt 0.549142 0.667823
vt 0.500000 0.667823
vt 0.500000 1.157200
vt 1.650000 1.157200
vt 0.696545 0.555797
vt 0.696545 0.667823
vt 0.549142 1.157200
vt 0.696545 1.157200
vt 0.696545 0.500000
vt 0.696545 1.650000
vt 2.146989 0.555797
vt 2.146989 0.667823
vt 0.650000 0.667823
vt 0.650000 1.157200
vt -0.500000 1.157200
vt 2.146989 0.500000
vt 2.146989 1.650000
vt 0.146989 0.555797
vt 0.282599 0.555797
vt 0.282599 0.667823
vt 0.146989 0.667823
vt 0.500000 1.581720
vt 1.650000 1.581720
vt 0.282599 1.581720
vt 0.146989 1.581720
vt 0.146989 0.500000
vt -1.321143 0.500000
vt -1.321143 1.650000
vt 0.282599 0.581720
vt 0.282599 0.717331
vt 0.146989 0.717331
vt 0.146989 0.581720
vt -1.321143 0.581720
vt -1.321143 0.717331
vt 0.500000 0.581720
vt 0.500000 0.510967
vt 1.650000 0.510967
vt 0.678857 0.581720
vt 0.525558 0.581720
vt 0.525558 0.717331
vt 0.678857 0.717331
vt 0.678857 0.510967
vt 0.525558 0.510967
vt 0.678857 0.500000
vt 0.525558 0.500000
vt 0.525558 1.650000
vt 0.525558 4.218613
vt 0.678857 4.218613
vt 0.500000 0.717331
vt 1.650000 0.717331
vt 0.650000 0.581720
vt 0.650000 0.510967
vt -0.500000 0.510967
vt 0.500000 4.218613
vt 1.650000 4.218613
vt 0.678857 0.218613
vt 0.525558 0.218613
vt 0.525558 0.315009
vt 0.678857 0.315009
vt 0.650000 0.218613
vt -0.500000 0.218613
vt -0.500000 0.315009
vt 0.525558 0.650000
vt 0.525558 -0.500000
vt 0.678857 -0.500000
vt 0.650000 0.579382
vt -0.500000 0.679615
vt 0.937487 0.027599
vt 0.937487 0.070905
vt 0.848073 0.070905
vt 0.937487 0.728699
vt 0.937487 1.027599
vt 0.848073 1.027599
vt 0.650000 0.070905
vt -0.500000 0.070905
vt -0.500000 0.027599
vt 0.937487 0.476263
vt 0.848073 0.476263
vt 0.937487 0.650000
vt 0.937487 -0.500000
vt 0.848073 -0.500000
vt 0.500000 0.027599
vt 0.500000 -0.271301
vt 1.650000 -0.271301
vt 0.848073 0.027599
vt 0.650000 0.476263
vt -0.500000 0.476263
vt 0.937487 0.500000
vt 0.937487 1.650000
vt 0.937487 -0.271301
vt 0.848073 -0.271301
vt 0.650000 0.027599
vt 0.937487 0.293722
vt 0.937487 0.343714
vt 0.848073 0.343714
vt 0.937487 0.876081
vt 0.937487 1.293722
vt 0.848073 1.293722
vt 0.650000 0.343714
vt -0.500000 0.343714
vt -0.500000 0.293722
vt 0.937487 1.457424
vt 0.848073 1.457424
vt 0.500000 0.293722
vt 0.500000 -0.123919
vt 1.650000 -0.123919
vt 0.848073 0.293722
vt 0.650000 1.457424
vt -0.500000 1.457424
vt 0.937487 0.457424
vt 0.937487 0.502464
vt 0.848073 0.502464
vt 0.937487 -0.123919
vt 0.848073 -0.123919
vt 0.937487 -0.656286
vt 0.848073 -0.656286
vt 0.650000 0.457424
vt 0.650000 0.502464
vt -0.500000 0.502464
vt 0.937487 0.772703
vt 0.848073 0.772703
vt 0.848073 0.457424
vt 0.650000 0.772703
vt -0.500000 0.772703
vt 0.500000 0.457424
vt 1.650000 -0.656286
vt 0.500000 -0.656286
vt 0.942134 0.225342
vt 0.848073 0.225342
vt 0.848073 0.315009
vt 0.993077 0.225342
vt 0.942134 0.315009
vt 0.942134 0.148928
vt 0.848073 0.148928
vt 0.500000 0.225342
vt 1.650000 0.225342
vt 1.650000 0.315009
vt 0.942134 0.650000
vt 0.993077 0.650000
vt 0.993077 -0.500000
vt 0.500000 0.148928
vt 1.650000 0.148928
vt 0.942134 -0.500000
vt 0.993077 0.315009
vt 0.942134 0.500000
vt 0.993077 0.500000
vt 0.942134 1.650000
vt 0.650000 0.225342
vt -0.500000 0.148928
vt -0.500000 0.225342
vt 0.848073 0.387149
vt 0.848073 0.500000
vt 1.650000 0.679615
vt 0.500000 1.387149
vt 0.968984 0.650000
vt 0.968984 -0.500000
vt 1.310958 0.650000
vt 0.650000 1.051070
vt -0.500000 0.051070
vt 0.310958 0.650000
vt 0.310958 -0.500000
vt 0.446569 0.650000
vt 0.446569 -0.500000
vt 0.935946 0.650000
vt 0.935946 -0.500000
vt 1.077453 0.650000
vt -0.064054 0.051070
vt 1.650000 0.051070
vt 0.650000 -0.332177
vt -0.064054 0.667823
vt 1.077453 0.667823
vt 0.077453 0.650000
vt 0.077453 -0.500000
vt 0.549142 0.650000
vt -0.500000 0.667823
vt 0.549142 -0.500000
vt 0.696545 0.650000
vt 1.650000 0.667823
vt 0.696545 -0.500000
vt 2.146989 0.650000
vt 0.650000 1.581720
vt 0.146989 0.650000
vt 0.146989 -0.500000
vt -1.321143 0.650000
vt -0.500000 0.581720
vt 0.678857 0.650000
vt 0.650000 0.717331
vt 1.650000 0.581720
vt -0.500000 0.717331
vt 0.650000 4.218613
vt 0.650000 0.315009
vt 0.650000 0.387149
vt 0.650000 -0.320385
vt -0.500000 -0.320385
vt -0.500000 0.579382
vt 1.650000 1.387149
vt 0.848073 0.728699
vt 0.848073 0.650000
vt 0.650000 -0.271301
vt 0.500000 0.070905
vt 1.650000 0.070905
vt 0.500000 0.476263
vt 0.500000 0.728699
vt 0.500000 1.027599
vt 1.650000 1.027599
vt 1.650000 0.476263
vt -0.500000 -0.271301
vt 1.650000 0.027599
vt 0.848073 0.876081
vt 0.650000 0.293722
vt 0.650000 -0.123919
vt 0.500000 0.343714
vt 1.650000 0.343714
vt 0.500000 1.457424
vt 1.650000 0.457424
vt 0.500000 0.502464
vt 1.650000 0.502464
vt 0.500000 0.772703
vt 0.650000 0.876081
vt -0.500000 0.876081
vt -0.500000 1.293722
vt 1.650000 0.293722
vt 1.650000 0.772703
vt -0.500000 0.457424
vt 0.650000 -0.656286
vt 0.500000 0.315009
vt 0.650000 0.148928
vt 0.993077 1.650000
vt 1.456037 5.999997
vt 1.456037 0.000000
vt 1.382364 0.000000
vt 1.664411 5.999997
vt 1.664411 0.000000
vt 1.747043 5.999997
vt 1.747043 0.000000
vt 1.641258 0.000000
vt 1.641258 5.999997
vt 1.249229 5.999997
vt 1.249229 0.000000
vt 1.547420 5.999997
vt 1.547420 0.000000
vt 1.951893 5.999997
vt 1.951893 0.000000
vt 2.070124 5.999997
vt 2.070124 0.000000
vt 2.156347 5.999997
vt 2.156347 0.000000
vt 2.443760 5.999997
vt 2.443760 0.000000
vt 2.533577 5.999997
vt 2.533577 0.000000
vt 3.417370 5.999997
vt 3.417370 0.000000
vt 3.500000 5.999997
vt 3.500000 0.000000
vt 3.381769 0.000000
vt 3.381769 5.999997
vt 2.417258 5.999997
vt 2.417258 0.000002
vt 2.274135 5.999997
vt 2.274137 0.000002
vt 2.191505 0.000002
vt 2.191504 5.999997
vt 1.296934 5.999997
vt 1.296934 0.000002
vt -2.398265 5.999997
vt -2.398265 0.000003
vt -2.500000 6.000000
vt 1.382364 5.999997
vt -2.500000 0.000003
vt 0.650000 0.221498
vt -0.500000 0.221498
vt 0.480873 0.221498
vt 0.363866 0.221498
vt 0.363866 0.315009
vt 0.480873 0.650000
vt 0.480873 -0.500000
vt 0.363866 -0.500000
vt 0.480873 0.315009
vt 0.500000 0.221498
vt 1.650000 0.221498
vt 0.480873 0.500000
vt 0.480873 1.650000
vt 0.363866 1.650000
vt 0.092182 0.221498
vt -0.024825 0.221498
vt -0.024825 0.315009
vt 0.092182 0.650000
vt 0.092182 -0.500000
vt -0.024825 -0.500000
vt 0.975175 0.221498
vt 1.092182 0.221498
vt 1.092182 0.315009
vt 0.092182 0.500000
vt 0.092182 1.650000
vt -0.024825 1.650000
vt 0.363866 0.650000
vt 0.363866 0.500000
vt 0.092182 0.315009
vt 0.975175 0.650000
vt 1.092182 0.650000
vt 0.975175 -0.500000
vt 0.975175 0.315009
vt 0.975175 0.500000
vt 1.092182 0.500000
vt 0.975175 1.650000
vn 0.000000 1.000000 0.000000
vn 0.000000 -0.000000 1.000000
vn 1.000000 -0.000000 0.000000
vn 0.000000 -1.000000 -0.000000
vn -1.000000 0.000000 0.000000
vn 0.000000 0.000000 -1.000000
vn -1.000000 -0.000000 0.002100
vn -0.011300 -0.000000 0.999900
vn 1.000000 -0.000000 -0.002900
vn 1.000000 -0.000000 -0.001400
usemtl greyDWall
s 1
f 1/1/1 2/2/1 3/3/1
f 4/4/1 1/5/1 5/6/1
f 1/1/1 6/7/1 7/8/1
f 10/9/2 4/10/2 11/11/2
f 1/12/3 4/13/3 10/14/3
f 13/9/2 14/15/2 6/16/2
f 6/17/1 15/18/1 16/19/1
f 8/2/4 13/1/4 17/20/4
f 13/1/4 10/21/4 18/22/4
f 8/2/4 12/8/4 14/7/4
f 14/23/5 20/24/5 21/25/5
f 6/17/1 21/26/1 22/27/1
f 12/28/4 19/19/4 23/18/4
f 23/18/4 24/27/4 20/26/4
f 20/29/5 25/30/5 26/31/5
f 21/32/1 26/33/1 27/34/1
f 24/35/4 28/34/4 25/33/4
f 25/36/2 28/37/2 27/38/2
f 27/34/1 31/39/1 29/40/1
f 24/35/4 30/40/4 32/39/4
f 28/37/2 32/41/2 31/42/2
f 31/39/1 35/43/1 36/44/1
f 30/40/4 37/44/4 38/43/4
f 32/41/2 38/45/2 35/46/2
f 30/40/4 34/47/4 39/48/4
f 36/49/1 40/50/1 33/51/1
f 36/52/3 35/53/3 38/54/3
f 37/29/3 39/55/3 40/56/3
f 34/57/4 42/58/4 43/59/4
f 40/60/1 44/61/1 41/62/1
f 39/63/2 45/64/2 46/65/2
f 43/61/4 47/66/4 45/67/4
f 40/60/1 46/67/1 48/66/1
f 45/68/5 49/69/5 50/70/5
f 47/66/4 51/71/4 52/72/4
f 46/67/1 53/72/1 54/71/1
f 46/67/1 50/73/1 55/74/1
f 52/72/4 56/74/4 49/73/4
f 49/64/2 56/75/2 55/76/2
f 51/71/4 57/77/4 58/78/4
f 53/72/1 59/78/1 60/77/1
f 53/79/3 55/80/3 56/81/3
f 52/75/2 58/82/2 59/83/2
f 57/84/4 61/85/4 62/86/4
f 59/87/1 63/86/1 64/85/1
f 58/68/5 65/88/5 66/89/5
f 62/86/4 67/90/4 65/91/4
f 59/87/1 66/91/1 68/90/1
f 65/92/6 69/93/6 70/94/6
f 67/95/4 71/96/4 72/97/4
f 66/98/1 73/97/1 74/96/1
f 66/98/1 70/99/1 75/100/1
f 72/97/4 76/100/4 69/99/4
f 69/101/3 77/102/3 78/103/3
f 70/104/1 79/105/1 80/106/1
f 76/107/4 81/106/4 82/105/4
f 70/104/1 78/108/1 83/109/1
f 82/105/4 84/109/4 77/108/4
f 77/110/6 84/111/6 83/112/6
f 80/106/1 87/113/1 85/114/1
f 82/101/5 81/115/7 80/116/7
f 76/107/4 86/114/4 88/113/4
f 79/117/5 83/118/5 84/119/5
f 81/115/7 88/120/7 87/121/7
f 85/122/1 87/123/1 90/124/1
f 88/123/4 86/122/4 91/125/4
f 87/126/7 88/127/7 92/128/5
f 90/129/8 92/130/8 91/131/8
f 3/132/5 17/133/5 5/12/5
f 93/134/4 94/135/4 95/136/4
f 96/137/4 93/138/4 97/139/4
f 98/140/3 94/141/3 93/142/3
f 94/135/4 99/143/4 100/144/4
f 101/145/6 96/146/6 102/147/6
f 93/148/3 96/149/3 101/150/3
f 98/135/1 103/134/1 104/151/1
f 98/140/3 105/152/3 99/153/3
f 99/154/2 105/155/2 106/11/2
f 103/134/1 101/156/1 107/157/1
f 105/143/1 98/135/1 108/136/1
f 108/140/5 104/158/5 95/141/5
f 109/159/4 110/160/4 111/161/4
f 112/162/4 109/163/4 113/164/4
f 114/165/3 110/166/3 109/167/3
f 110/160/4 115/168/4 116/169/4
f 117/145/6 112/146/6 118/147/6
f 109/170/3 112/171/3 117/172/3
f 114/160/1 119/159/1 120/173/1
f 114/165/3 121/174/3 115/175/3
f 115/176/4 122/177/4 123/178/4
f 119/159/1 117/179/1 124/180/1
f 121/176/1 114/181/1 125/182/1
f 121/183/3 126/184/3 122/185/3
f 122/177/4 127/186/4 128/187/4
f 126/177/1 121/176/1 129/188/1
f 126/184/3 130/189/3 127/190/3
f 127/154/2 130/155/2 131/11/2
f 130/186/1 126/177/1 132/178/1
f 116/191/5 125/192/5 111/193/5
f 133/194/1 134/195/1 135/196/1
f 136/197/1 133/194/1 137/198/1
f 133/194/1 138/199/1 139/200/1
f 140/201/3 136/202/3 141/203/3
f 133/204/6 136/205/6 140/206/6
f 142/201/3 143/207/3 138/208/3
f 138/204/6 143/209/6 144/147/6
f 142/194/4 140/197/4 145/210/4
f 143/199/4 142/194/4 146/195/4
f 142/194/4 147/198/4 148/196/4
f 147/211/2 145/212/2 137/213/2
f 134/214/5 144/215/5 146/216/5
f 5/20/1 1/1/1 3/3/1
f 11/217/1 4/4/1 5/6/1
f 2/2/1 1/1/1 7/8/1
f 18/218/2 10/9/2 11/11/2
f 13/23/3 1/219/3 10/220/3
f 1/221/2 13/222/2 6/223/2
f 7/28/1 6/17/1 16/19/1
f 9/3/4 8/2/4 17/20/4
f 17/20/4 13/1/4 18/22/4
f 13/1/4 8/2/4 14/7/4
f 6/12/5 14/133/5 21/224/5
f 15/18/1 6/17/1 22/27/1
f 14/17/4 12/28/4 23/18/4
f 14/17/4 23/18/4 20/26/4
f 21/52/5 20/225/5 26/53/5
f 22/35/1 21/32/1 27/34/1
f 20/32/4 24/35/4 25/33/4
f 26/226/2 25/227/2 27/228/2
f 22/35/1 27/34/1 29/40/1
f 28/34/4 24/35/4 32/39/4
f 27/228/2 28/229/2 31/230/2
f 29/40/1 31/39/1 36/44/1
f 32/39/4 30/40/4 38/43/4
f 31/230/2 32/231/2 35/232/2
f 37/49/4 30/233/4 39/50/4
f 29/40/1 36/44/1 33/47/1
f 37/29/3 36/234/3 38/30/3
f 36/52/3 37/225/3 40/235/3
f 39/60/4 34/236/4 43/61/4
f 33/57/1 40/237/1 41/58/1
f 40/238/2 39/239/2 46/240/2
f 39/60/4 43/61/4 45/67/4
f 44/61/1 40/60/1 48/66/1
f 46/79/5 45/241/5 50/80/5
f 45/67/4 47/66/4 52/72/4
f 48/66/1 46/67/1 54/71/1
f 53/72/1 46/67/1 55/74/1
f 45/67/4 52/72/4 49/73/4
f 50/240/2 49/242/2 55/243/2
f 52/72/4 51/71/4 58/78/4
f 54/71/1 53/72/1 60/77/1
f 52/68/3 53/244/3 56/69/3
f 53/243/2 52/245/2 59/246/2
f 58/87/4 57/84/4 62/86/4
f 60/84/1 59/87/1 64/85/1
f 59/79/5 58/241/5 66/247/5
f 58/87/4 62/86/4 65/91/4
f 63/86/1 59/87/1 68/90/1
f 66/248/6 65/249/6 70/250/6
f 65/98/4 67/95/4 72/97/4
f 68/95/1 66/98/1 74/96/1
f 73/97/1 66/98/1 75/100/1
f 65/98/4 72/97/4 69/99/4
f 70/117/3 69/251/3 78/118/3
f 75/107/1 70/104/1 80/106/1
f 69/104/4 76/107/4 82/105/4
f 79/105/1 70/104/1 83/109/1
f 69/104/4 82/105/4 77/108/4
f 78/252/6 77/131/6 83/129/6
f 75/107/1 80/106/1 85/114/1
f 79/117/5 82/251/5 80/253/7
f 81/106/4 76/107/4 88/113/4
f 82/101/5 79/254/5 84/102/5
f 80/253/7 81/255/7 87/256/7
f 89/125/1 85/122/1 90/124/1
f 92/124/4 88/123/4 91/125/4
f 90/257/5 87/126/7 92/128/5
f 89/252/8 90/129/8 91/131/8
f 11/258/5 5/259/5 17/260/5
f 3/132/5 9/261/5 17/133/5
f 17/23/5 18/220/5 11/262/5
f 97/151/4 93/134/4 95/136/4
f 102/263/4 96/137/4 97/139/4
f 103/158/3 98/140/3 93/142/3
f 95/136/4 94/135/4 100/144/4
f 107/264/6 101/145/6 102/147/6
f 103/158/3 93/142/3 101/265/3
f 108/136/1 98/135/1 104/151/1
f 94/266/3 98/267/3 99/268/3
f 100/218/2 99/154/2 106/11/2
f 104/151/1 103/134/1 107/157/1
f 106/144/1 105/143/1 108/136/1
f 102/269/5 97/270/5 104/271/5
f 95/266/5 100/268/5 106/272/5
f 106/152/5 108/140/5 95/141/5
f 104/158/5 107/265/5 102/273/5
f 97/148/5 95/266/5 104/274/5
f 113/173/4 109/159/4 111/161/4
f 118/275/4 112/162/4 113/164/4
f 119/276/3 114/165/3 109/167/3
f 111/161/4 110/160/4 116/169/4
f 124/264/6 117/145/6 118/147/6
f 119/276/3 109/167/3 117/277/3
f 125/161/1 114/160/1 120/173/1
f 110/278/3 114/279/3 115/280/3
f 116/188/4 115/176/4 123/178/4
f 120/173/1 119/159/1 124/180/1
f 129/188/1 121/176/1 125/182/1
f 115/191/3 121/281/3 122/282/3
f 123/178/4 122/177/4 128/187/4
f 132/178/1 126/177/1 129/188/1
f 122/282/3 126/283/3 127/284/3
f 128/218/2 127/154/2 131/11/2
f 131/187/1 130/186/1 132/178/1
f 124/285/5 118/286/5 113/287/5
f 113/170/5 111/278/5 120/288/5
f 116/191/5 123/282/5 132/283/5
f 128/284/5 131/289/5 132/283/5
f 132/184/5 129/183/5 116/290/5
f 120/276/5 124/277/5 113/167/5
f 129/183/5 125/291/5 116/290/5
f 123/282/5 128/284/5 132/283/5
f 120/276/5 111/166/5 125/165/5
f 137/198/1 133/194/1 135/196/1
f 141/210/1 136/197/1 137/198/1
f 134/195/1 133/194/1 139/200/1
f 145/292/3 140/201/3 141/203/3
f 142/211/6 133/213/6 140/212/6
f 133/214/3 142/216/3 138/293/3
f 139/264/6 138/204/6 144/147/6
f 147/198/4 142/194/4 145/210/4
f 144/200/4 143/199/4 146/195/4
f 146/195/4 142/194/4 148/196/4
f 137/204/2 135/264/2 148/147/2
f 148/218/2 147/211/2 137/213/2
f 145/212/2 141/294/2 137/213/2
f 146/201/5 148/292/5 135/203/5
f 134/214/5 139/293/5 144/215/5
f 146/201/5 135/203/5 134/202/5
usemtl extWall
f 2/295/6 8/296/6 9/297/6
f 2/295/6 7/298/6 12/299/6
f 7/298/6 16/300/6 19/301/6
f 23/302/3 19/301/3 16/300/3
f 15/303/3 22/304/3 24/305/3
f 22/304/6 29/306/6 30/307/6
f 29/306/5 33/308/5 34/309/5
f 33/308/5 41/310/5 42/311/5
f 41/310/6 44/312/6 43/313/6
f 44/312/6 48/314/6 47/315/6
f 48/314/6 54/316/6 51/317/6
f 54/316/6 60/318/6 57/319/6
f 60/318/6 64/320/6 61/321/6
f 62/322/3 61/321/3 64/320/3
f 63/323/3 68/324/3 67/325/3
f 68/324/3 74/326/3 71/327/3
f 72/328/2 71/327/2 74/326/2
f 73/329/2 75/330/2 76/331/2
f 75/330/9 85/332/10 86/333/10
f 86/333/10 85/332/10 89/334/3
f 3/335/6 2/295/6 9/297/6
f 8/296/6 2/295/6 12/299/6
f 12/299/6 7/298/6 19/301/6
f 15/303/3 23/302/3 16/300/3
f 23/302/3 15/303/3 24/305/3
f 24/305/6 22/304/6 30/307/6
f 30/307/5 29/306/5 34/309/5
f 34/309/5 33/308/5 42/311/5
f 42/311/6 41/310/6 43/313/6
f 43/313/6 44/312/6 47/315/6
f 47/315/6 48/314/6 51/317/6
f 51/317/6 54/316/6 57/319/6
f 57/319/6 60/318/6 61/321/6
f 63/323/3 62/322/3 64/320/3
f 62/322/3 63/323/3 67/325/3
f 67/325/3 68/324/3 71/327/3
f 73/329/2 72/328/2 74/326/2
f 72/328/2 73/329/2 76/331/2
f 76/331/9 75/330/9 86/333/10
f 91/336/3 86/333/10 89/334/3
usemtl blueWall
f 149/337/5 150/338/5 151/128/5
f 152/339/1 149/340/1 153/341/1
f 152/342/6 154/343/6 150/344/6
f 150/340/4 154/339/4 155/345/4
f 154/346/3 152/347/3 156/203/3
f 155/348/2 156/349/2 153/350/2
f 157/337/5 158/338/5 159/128/5
f 160/351/1 157/352/1 161/353/1
f 160/354/6 162/355/6 158/356/6
f 158/357/4 162/358/4 163/359/4
f 162/346/3 160/347/3 164/203/3
f 163/360/2 164/361/2 161/362/2
f 153/257/5 149/337/5 151/128/5
f 156/345/1 152/339/1 153/341/1
f 149/363/6 152/342/6 150/344/6
f 151/341/4 150/340/4 155/345/4
f 155/292/3 154/346/3 156/203/3
f 151/364/2 155/348/2 153/350/2
f 161/257/5 157/337/5 159/128/5
f 164/365/1 160/351/1 161/353/1
f 157/366/6 160/367/6 158/368/6
f 159/369/4 158/357/4 163/359/4
f 163/292/3 162/346/3 164/203/3
f 159/370/2 163/371/2 161/372/2
