# Blender v2.76 (sub 0) OBJ File: '2nd_4.blend'
# www.blender.org
mtllib manger_f2.mtl
o manger_f2_Cube.036
v -1.352342 0.000000 4.596625
v -1.056633 0.000000 4.603567
v -1.056633 2.200001 4.603567
v -1.352342 2.200001 4.596625
v -1.303744 2.200001 3.063208
v -1.303744 0.000000 3.063208
v -1.019678 0.005716 3.565887
v -1.019678 2.200001 3.565887
v -1.190860 2.200001 3.063208
v -1.190860 0.000000 3.063208
v -0.757090 0.005716 3.908097
v -0.757090 2.200001 3.908097
v -0.881138 0.005716 4.032145
v -0.881138 2.200001 4.032145
v -0.414879 0.005716 4.170685
v -0.414879 2.200001 4.170685
v -0.414879 1.539256 4.170685
v -0.456976 1.539256 4.138382
v -0.456976 1.117716 4.138382
v -0.414879 1.117716 4.170685
v -0.502594 0.005716 4.322611
v -0.502594 2.200001 4.322611
v -0.016366 0.005716 4.335755
v -0.016366 1.117716 4.335755
v -0.016366 2.200001 4.335755
v -0.016366 1.539256 4.335755
v -0.061771 0.005716 4.505207
v -0.061771 1.117716 4.505207
v -0.456976 1.117716 4.341506
v -0.456976 1.539256 4.341506
v -0.061771 1.539256 4.505207
v -0.061771 2.200001 4.505207
v 0.411291 0.005716 4.392055
v 0.411291 1.117716 4.392055
v 0.411291 2.200001 4.392055
v 0.411291 1.539256 4.392055
v 0.411291 0.005716 4.567486
v 0.411291 1.117716 4.567486
v 0.411291 1.539256 4.567486
v 0.411291 2.200001 4.567486
v 0.838947 0.005716 4.335754
v 0.838947 1.117716 4.335754
v 0.838947 2.200001 4.335754
v 0.838947 1.539256 4.335754
v 0.884352 0.005716 4.505207
v 0.884353 1.117716 4.505207
v 0.884353 1.539256 4.505207
v 0.884353 2.200001 4.505207
v 1.237460 0.005716 4.170684
v 1.237460 1.117716 4.170684
v 1.237460 2.200001 4.170684
v 1.237460 1.539256 4.170684
v 1.325175 0.005716 4.322611
v 1.325175 1.117716 4.322611
v 1.325175 1.539256 4.322611
v 1.325175 2.200001 4.322611
v 1.579670 0.005716 3.908096
v 1.543024 1.117716 3.936216
v 1.543024 1.539256 3.936216
v 1.579670 2.200001 3.908096
v 1.703718 0.005716 4.032144
v 1.703718 2.200001 4.032144
v 1.543024 1.539256 4.155449
v 1.543024 1.117716 4.155449
v 1.842257 0.005716 3.565886
v 1.842257 2.200001 3.565886
v 1.994184 0.005716 3.653601
v 1.994184 2.200001 3.653601
v 2.007328 0.005716 3.167373
v 2.007328 2.200001 3.167373
v 2.176780 0.005716 3.212778
v 2.176780 2.200001 3.212778
v 2.063629 0.005716 2.739716
v 2.063629 2.200001 2.739716
v 2.383223 0.000000 1.429404
v 2.383223 2.200001 1.429404
v 2.007328 0.005716 2.312059
v 2.007328 2.200001 2.312059
v 2.186964 0.005716 2.739716
v 2.176780 2.200001 2.266654
v 2.074497 0.000000 1.429404
v 2.383223 0.000000 1.290874
v 2.383223 2.200001 1.290874
v 2.074497 2.200001 1.429404
v 1.842257 0.005716 1.913546
v 1.842257 2.200001 1.913546
v 2.176780 0.005716 2.266654
v 2.186964 0.005716 2.344009
v 2.074497 0.000000 1.290874
v 2.383223 0.000000 -6.243455
v 2.383223 2.200001 -6.243455
v 2.074497 2.200001 1.290874
v 1.579670 0.005716 1.571335
v 1.579670 2.200001 1.571335
v 1.994184 0.005716 1.825831
v 1.994184 2.200001 1.825831
v 2.074497 0.000000 -6.243455
v 2.383223 2.200001 -6.346176
v 2.383223 0.000000 -6.346176
v 2.074497 2.200001 -6.243455
v 1.237460 0.005716 1.308747
v 1.237460 2.200001 1.308747
v 1.703718 0.005716 1.447287
v 1.703718 2.200001 1.447287
v 2.074497 0.000000 -6.346176
v 2.074497 2.200001 -6.346176
v 1.200996 0.005716 1.293644
v 1.200996 2.200001 1.293644
v 1.325174 0.005716 1.156820
v 1.325174 2.200001 1.156820
v 1.200996 2.200001 1.105384
v 1.200996 0.005716 1.105384
v -1.157873 0.000000 2.253890
v -1.000117 0.000000 1.824175
v -1.000117 2.200001 1.824175
v -1.157873 2.200001 2.253890
v -1.303744 0.000000 2.253890
v -1.303744 2.200001 2.253890
v -1.157873 0.000000 1.769245
v -0.748341 0.000000 1.496054
v -0.748341 2.200001 1.496054
v -1.157873 2.200001 1.769245
v -1.303744 2.200001 -2.605266
v -1.303744 0.000000 -2.605266
v -0.867282 0.000000 1.377114
v -0.420220 0.000000 1.244278
v -0.420220 2.200001 1.244278
v -0.867282 2.200001 1.377114
v -1.157873 2.200001 -2.605266
v -1.157873 0.000000 -2.605266
v -0.504324 0.000000 1.098606
v -0.318019 2.200001 1.201944
v -0.318019 0.000000 1.201944
v -0.504324 2.200001 1.098606
v -0.318019 0.000000 1.021436
v -0.318019 2.200001 1.021436
v -1.114318 2.200001 -6.238206
v -1.114318 2.200001 -6.346176
v -1.303744 2.200001 -6.346176
v -1.303744 2.200001 -6.238206
v -1.303744 2.200001 -3.365641
v -1.114318 2.200001 -3.365641
v -1.011726 2.200001 -6.238206
v -1.011726 2.200001 -6.346176
v -1.303744 0.000000 -6.346176
v -1.011726 0.000000 -6.346176
v -1.114318 0.000000 -6.346176
v -1.303744 0.000000 -6.238206
v -1.303744 0.000000 -3.365641
v -1.114318 0.000000 -3.365641
v -1.114318 0.000000 -6.238206
v -1.011726 0.000000 -6.238206
vt 1.918963 -1.016450
vt 2.568152 -1.016450
vt 2.568152 0.330798
vt -1.833614 0.188694
vt -3.345529 -0.010351
vt -3.345529 0.550330
vt 3.046510 -0.010351
vt 4.558425 0.188694
vt 3.046510 0.550330
vt 3.214279 -1.016450
vt 2.513606 -1.016450
vt 2.513606 0.330798
vt 1.918963 0.330798
vt 0.271513 2.007200
vt 0.271513 1.306526
vt -0.705079 1.257837
vt -0.424736 0.772275
vt -1.978730 0.730270
vt -4.857444 0.188694
vt -6.120527 0.711884
vt -6.120527 1.361073
vt -5.985984 1.257834
vt -4.712330 0.730267
vt 0.271511 1.361073
vt 0.271511 0.711884
vt 0.406054 1.257834
vt 1.534596 0.188694
vt 5.967303 0.772275
vt 4.413309 0.730270
vt 6.663552 1.306526
vt 6.663552 2.007200
vt 5.686960 1.257837
vt 1.679709 0.730267
vt 3.214279 0.330798
vt 3.500000 0.000000
vt 3.500000 6.000000
vt -2.500000 6.000000
vt -2.004135 0.000000
vt -1.764890 0.000000
vt -2.308468 0.000000
vt -2.308468 6.000000
vt -1.726128 6.000000
vt -1.591432 6.000000
vt -1.688546 0.000000
vt -2.020166 6.000000
vt -1.823769 6.000000
vt -1.823769 0.000000
vt -1.726128 0.000000
vt -1.591432 0.000000
vt -1.778260 0.000000
vt -1.955807 0.000000
vt -2.020166 0.000000
vt -1.955807 6.000000
vt -2.170866 6.000000
vt -2.092043 0.000000
vt -2.170866 0.000000
vt -2.180670 4.193274
vt -2.180670 3.040627
vt -2.177685 0.000000
vt -2.265601 0.000000
vt -2.177685 6.000000
vt -2.092043 6.000000
vt -2.297913 3.040627
vt -2.265601 3.040627
vt -2.297913 6.000000
vt -2.265601 6.000000
vt -2.265601 4.193274
vt -2.206896 0.000000
vt -2.297913 0.000000
vt -2.297913 4.193274
vt -2.206896 6.000000
vt -2.170866 3.040627
vt -2.084139 4.193274
vt -2.084139 3.040627
vt -1.778260 6.000000
vt -1.595059 6.000000
vt -1.571503 0.000000
vt -1.595059 0.000000
vt -0.707378 6.000000
vt -1.762157 6.000000
vt -1.762157 0.000000
vt -1.349625 0.000000
vt -1.349625 6.000000
vt -1.571503 6.000000
vt -1.554926 6.000000
vt -0.707378 0.000000
vt -1.144323 0.000000
vt -0.632419 6.000000
vt -1.127746 0.000000
vt -1.104190 6.000000
vt -1.127746 6.000000
vt -1.554926 0.000000
vt -0.632419 0.000000
vt 3.444418 6.000000
vt -0.920989 0.000000
vt -0.875480 0.000000
vt -0.875480 6.000000
vt -1.104190 0.000000
vt -1.144323 6.000000
vt 3.444418 0.000000
vt -0.743442 0.000000
vt -0.679083 0.000000
vt -0.743442 6.000000
vt -0.920989 6.000000
vt -0.607206 0.000000
vt -0.528383 0.000000
vt -0.599370 0.000000
vt -1.127072 0.000000
vt -1.127072 6.000000
vt -0.891267 6.000000
vt -1.081823 0.000000
vt -0.891267 0.000000
vt -1.138446 6.000000
vt -0.679084 6.000000
vt -0.598384 6.000000
vt -1.081823 6.000000
vt -0.709958 0.000000
vt -1.053607 0.000000
vt -0.607206 6.000000
vt -0.528383 6.000000
vt -0.598384 0.000000
vt -0.584299 0.000000
vt -0.584299 6.000000
vt 3.441577 6.000000
vt 1.887228 6.000000
vt 3.441577 0.000000
vt 1.887229 0.000000
vt -2.500000 0.000000
vt -1.764890 6.000000
vt -2.170866 4.193274
vt -0.501696 0.000000
vt -0.486626 0.000000
vt -0.486626 6.000000
vt 0.104064 1.295589
vt 0.087972 1.765610
vt -0.692356 1.738894
vt -0.674894 1.228834
vt 0.105435 1.255551
vt 0.109856 1.067129
vt -0.668445 1.040482
vt -0.663207 0.887485
vt -0.424250 0.761334
vt -0.274732 0.766453
vt 0.120333 0.761136
vt -0.274088 0.747632
vt -0.268850 0.594635
vt -0.657968 0.734489
vt -0.652730 0.581492
vt -0.418367 0.589516
vt 0.125571 0.608139
vt -0.263611 0.441639
vt -0.647492 0.428495
vt -0.413129 0.436520
vt 0.130809 0.455143
vt -0.258373 0.288642
vt -0.642254 0.275499
vt -0.407891 0.283523
vt 0.136048 0.302146
vt -0.253135 0.135646
vt -0.637015 0.122502
vt -0.402652 0.130526
vt -0.248457 -0.000967
vt -0.397975 -0.006086
vt -0.631777 -0.030494
vt 0.146524 -0.003846
vt -0.626538 -0.183491
vt 0.151763 -0.156843
vt -0.621300 -0.336488
vt 0.157001 -0.309840
vt -0.616061 -0.489484
vt 0.162240 -0.462836
vt -0.610823 -0.642481
vt 0.167478 -0.615833
vt -0.605585 -0.795478
vt -0.402613 2.625063
vt -0.722292 2.623080
vt -0.695227 1.861852
vt 0.172717 -0.768829
vt -0.600346 -0.948474
vt -0.354555 2.625063
vt -0.402614 1.861852
vt 0.177955 -0.921826
vt -0.305087 -1.027315
vt -0.686958 -1.287683
vt -0.722292 -1.462568
vt 0.081969 -1.625063
vt 2.068475 0.139707
vt -1.068474 0.139707
vt -1.068474 -0.776272
vt 2.401945 1.861851
vt 2.401945 2.625062
vt 2.294844 2.625062
vt 0.178029 -1.034545
vt -0.293954 -1.036336
vt -0.651624 -1.112797
vt 1.199371 0.290950
vt 1.199371 0.595105
vt -0.199371 0.595105
vt 2.259209 2.625062
vt 2.259208 1.861851
vt 2.294844 1.861851
vt -0.280243 -1.068917
vt 0.175174 -1.100612
vt -0.316234 -1.092786
vt 1.199371 -0.013204
vt -0.199371 0.290951
vt -0.199371 -0.013203
vt -0.199371 -0.098883
vt -1.486917 -0.839120
vt -0.723706 -0.839120
vt -0.723706 -0.680317
vt -1.486917 -0.680318
vt -0.723706 -0.629713
vt -1.486917 -0.982599
vt -0.723706 -0.982599
vt -1.486916 1.055997
vt -1.486917 -0.629713
vt -1.486917 -1.126078
vt -0.723706 -1.126078
vt -0.723705 1.106600
vt -1.486916 1.106600
vt -0.723701 -1.625063
vt -0.723706 -1.455745
vt -1.486917 -1.455745
vt -1.486917 -1.164455
vt -0.723705 2.624180
vt -1.486916 2.624180
vt -0.723706 -1.297033
vt -1.486917 -1.297033
vt -0.723706 -1.164455
vt -1.486917 -1.227075
vt -0.723706 -1.227076
vt -1.068474 0.183051
vt -1.068474 0.140336
vt -0.152495 0.183051
vt -0.152495 0.306873
vt -0.152495 1.502876
vt -1.068474 0.306873
vt 0.245153 -1.625063
vt 0.245153 -0.861853
vt 0.179438 -0.861853
vt 1.241685 -0.861853
vt 1.241685 -1.625063
vt 1.277275 -1.625063
vt 1.277277 -0.861852
vt 1.314732 -1.625063
vt -0.676264 1.268873
vt 0.115094 0.914132
vt -0.423606 0.742513
vt 0.141286 0.149150
vt -0.354555 1.861852
vt 0.117303 -1.450178
vt 2.068475 -0.776272
vt 0.177826 -1.045240
vt 1.199371 -0.098883
vt -0.723705 1.055996
vt -1.486917 -1.614458
vt -0.152495 0.261919
vt -1.068474 0.261920
vt -0.152495 0.140335
vt -1.068474 1.502877
vt 0.179438 -1.625063
vt 1.314732 -0.861853
vn 1.000000 0.000000 0.000000
vn 0.000000 -1.000000 0.000000
vn 0.000000 1.000000 0.000000
vn -1.000000 0.000000 0.000000
vn -0.023500 0.000000 0.999700
vn 0.000100 -1.000000 -0.005500
vn 0.999400 0.000000 0.035600
vn 0.019000 -0.999800 0.000600
vn -0.958600 0.000000 0.284800
vn 0.000000 -0.999900 0.011400
vn -0.608800 0.000000 0.793400
vn -0.382700 0.000000 0.923900
vn -0.130500 0.000000 0.991400
vn 0.130500 -0.000000 0.991400
vn 0.382700 0.000000 0.923900
vn 0.608800 0.000000 0.793400
vn 0.793400 0.000000 0.608800
vn 0.923900 0.000000 0.382700
vn 0.993400 0.000000 0.115000
vn -0.030800 -0.999500 -0.000400
vn 0.991400 0.000000 -0.130500
vn 0.000000 -1.000000 0.006200
vn -0.999500 0.000000 -0.031700
vn 0.000000 0.000000 -1.000000
vn 0.793400 0.000000 -0.608800
vn 0.946600 0.000000 -0.322400
vn 0.608800 0.000000 -0.793400
vn 0.382700 0.000000 -0.923900
vn 0.130500 0.000000 -0.991400
vn -0.130500 0.000000 -0.991400
vn -0.382700 0.000000 -0.923900
vn -0.608800 0.000000 -0.793400
vn -0.793400 0.000000 -0.608800
vn -0.923900 0.000000 -0.382700
vn -0.991400 0.000000 -0.130500
vn -0.991400 0.000000 0.130500
vn -0.923900 0.000000 0.382700
vn -0.992500 -0.000300 0.122100
vn -0.793400 0.000000 0.608800
vn 0.923900 0.000000 -0.382700
vn 0.938700 0.000000 0.344600
vn 0.000000 0.000000 1.000000
vn -0.803400 0.000000 -0.595400
vn 0.608800 0.000000 -0.793300
vn -0.608800 0.000000 -0.793300
vn -0.992600 0.000000 0.121300
usemtl extWall
s off
f 29/1/1 19/2/1 18/3/1
f 47/4/2 39/5/2 36/6/2
f 38/7/3 46/8/3 34/9/3
f 58/10/4 64/11/4 63/12/4
f 30/13/1 29/1/1 18/3/1
f 59/14/2 63/15/2 52/16/2
f 55/17/2 47/4/2 44/18/2
f 39/5/2 31/19/2 36/6/2
f 30/20/2 18/21/2 17/22/2
f 52/16/2 63/15/2 55/17/2
f 30/20/2 17/22/2 26/23/2
f 44/18/2 52/16/2 55/17/2
f 30/20/2 26/23/2 31/19/2
f 36/6/2 44/18/2 47/4/2
f 31/19/2 26/23/2 36/6/2
f 19/24/3 29/25/3 20/26/3
f 28/27/3 38/7/3 34/9/3
f 46/8/3 54/28/3 42/29/3
f 64/30/3 58/31/3 50/32/3
f 20/26/3 29/25/3 24/33/3
f 64/30/3 50/32/3 54/28/3
f 24/33/3 29/25/3 28/27/3
f 54/28/3 50/32/3 42/29/3
f 34/9/3 24/33/3 28/27/3
f 46/8/3 42/29/3 34/9/3
f 59/34/4 58/10/4 63/12/4
usemtl extWall_ext_mur.png.000
f 2/35/5 3/36/5 4/37/5
f 1/38/6 7/39/6 2/40/6
f 3/41/7 2/40/7 7/39/7
f 8/42/3 9/43/3 5/43/3
f 6/44/8 7/39/8 1/38/8
f 14/45/9 8/46/9 7/47/9
f 7/48/10 6/49/10 10/49/10
f 7/50/2 11/51/2 13/52/2
f 12/53/3 8/46/3 14/45/3
f 22/54/11 14/45/11 13/52/11
f 11/51/2 15/55/2 21/56/2
f 12/53/3 14/45/3 22/54/3
f 30/57/12 22/54/12 29/58/12
f 23/59/2 27/60/2 21/56/2
f 25/61/3 16/62/3 22/54/3
f 38/63/13 28/64/13 27/60/13
f 40/65/13 32/66/13 31/67/13
f 23/59/2 33/68/2 37/69/2
f 25/61/3 32/66/3 40/65/3
f 45/60/14 46/64/14 38/63/14
f 48/66/14 40/65/14 39/70/14
f 41/59/2 45/60/2 37/69/2
f 43/61/3 35/71/3 40/65/3
f 53/56/15 54/72/15 46/64/15
f 56/54/15 48/66/15 47/67/15
f 41/59/2 49/55/2 53/56/2
f 51/62/3 43/61/3 48/66/3
f 62/45/16 63/73/16 64/74/16
f 57/51/2 61/52/2 53/56/2
f 60/53/3 51/62/3 56/54/3
f 68/46/17 62/45/17 61/52/17
f 65/50/2 67/47/2 61/52/2
f 66/75/3 60/53/3 62/45/3
f 72/76/18 68/46/18 67/47/18
f 65/50/2 69/77/2 71/78/2
f 66/75/3 68/46/3 72/76/3
f 76/79/19 72/80/19 71/81/19
f 69/77/2 73/82/2 79/82/2
f 74/83/3 70/84/3 72/85/3
f 75/86/20 71/82/20 88/87/20
f 83/88/1 76/79/1 75/86/1
f 76/79/3 84/79/3 80/83/3
f 77/89/2 88/87/2 73/82/2
f 80/90/3 78/91/3 74/83/3
f 71/92/3 79/82/3 88/87/3
f 82/93/2 75/86/2 81/86/2
f 91/94/1 83/88/1 82/93/1
f 92/88/3 84/79/3 76/79/3
f 77/89/2 85/95/2 95/96/2
f 78/91/3 80/90/3 96/97/3
f 88/87/21 87/98/21 80/99/21
f 90/100/2 82/93/2 89/93/2
f 91/94/1 90/100/1 99/35/1
f 100/94/3 92/88/3 83/88/3
f 93/101/2 103/102/2 95/96/2
f 94/103/3 86/104/3 96/97/3
f 90/100/2 97/100/2 105/35/2
f 100/94/3 91/94/3 98/36/3
f 101/105/2 109/106/2 103/102/2
f 109/106/2 101/105/2 107/107/2
f 119/96/2 114/95/2 113/108/2
f 116/109/3 115/104/3 122/110/3
f 117/111/2 119/112/2 113/108/2
f 118/113/3 116/109/3 122/110/3
f 114/95/2 119/96/2 125/102/2
f 115/104/3 121/103/3 128/114/3
f 123/115/3 118/116/3 122/110/3
f 124/117/2 119/112/2 117/118/2
f 120/101/2 125/102/2 131/106/2
f 121/103/3 127/119/3 134/120/3
f 124/121/2 130/121/2 119/112/2
f 133/122/2 126/105/2 131/106/2
f 134/120/3 127/119/3 132/123/3
f 138/36/3 139/36/3 140/124/3
f 142/125/3 137/124/3 140/124/3
f 137/124/3 143/124/3 144/36/3
f 151/126/2 148/126/2 145/35/2
f 152/126/2 151/126/2 147/35/2
f 151/126/2 150/127/2 149/127/2
f 1/128/5 2/35/5 4/37/5
f 8/129/7 3/41/7 7/39/7
f 5/43/3 4/41/3 8/42/3
f 3/41/3 8/42/3 4/41/3
f 13/52/9 14/45/9 7/47/9
f 21/56/11 22/54/11 13/52/11
f 13/52/2 11/51/2 21/56/2
f 16/62/3 12/53/3 22/54/3
f 21/56/12 27/60/12 29/58/12
f 30/57/12 31/67/12 32/66/12
f 27/60/12 28/64/12 29/58/12
f 30/57/12 32/66/12 22/54/12
f 21/56/12 29/58/12 22/54/12
f 15/55/2 23/59/2 21/56/2
f 32/66/3 25/61/3 22/54/3
f 37/69/13 38/63/13 27/60/13
f 39/70/13 40/65/13 31/67/13
f 27/60/2 23/59/2 37/69/2
f 35/71/3 25/61/3 40/65/3
f 37/69/14 45/60/14 38/63/14
f 47/67/14 48/66/14 39/70/14
f 33/68/2 41/59/2 37/69/2
f 48/66/3 43/61/3 40/65/3
f 45/60/15 53/56/15 46/64/15
f 55/130/15 56/54/15 47/67/15
f 45/60/2 41/59/2 53/56/2
f 56/54/3 51/62/3 48/66/3
f 62/45/16 56/54/16 63/73/16
f 54/72/16 53/56/16 64/74/16
f 56/54/16 55/130/16 63/73/16
f 64/74/16 53/56/16 61/52/16
f 61/52/16 62/45/16 64/74/16
f 49/55/2 57/51/2 53/56/2
f 62/45/3 60/53/3 56/54/3
f 67/47/17 68/46/17 61/52/17
f 57/51/2 65/50/2 61/52/2
f 68/46/3 66/75/3 62/45/3
f 71/78/18 72/76/18 67/47/18
f 67/47/2 65/50/2 71/78/2
f 70/84/3 66/75/3 72/76/3
f 75/86/19 76/79/19 71/81/19
f 71/78/2 69/77/2 79/82/2
f 80/83/3 74/83/3 72/85/3
f 81/86/22 75/86/22 88/87/22
f 82/93/1 83/88/1 75/86/1
f 72/80/3 76/79/3 80/83/3
f 79/82/2 73/82/2 88/87/2
f 77/89/2 87/98/2 88/87/2
f 89/93/2 82/93/2 81/86/2
f 90/100/1 91/94/1 82/93/1
f 83/88/3 92/88/3 76/79/3
f 87/98/2 77/89/2 95/96/2
f 86/104/3 78/91/3 96/97/3
f 97/100/2 90/100/2 89/93/2
f 98/36/1 91/94/1 99/35/1
f 91/94/3 100/94/3 83/88/3
f 85/95/2 93/101/2 95/96/2
f 104/114/3 94/103/3 96/97/3
f 99/35/2 90/100/2 105/35/2
f 106/36/3 100/94/3 98/36/3
f 93/101/2 101/105/2 103/102/2
f 112/131/2 109/106/2 107/107/2
f 120/101/2 114/95/2 125/102/2
f 122/97/3 115/104/3 128/114/3
f 129/115/3 123/115/3 122/110/3
f 126/105/2 120/101/2 131/106/2
f 128/114/3 121/103/3 134/120/3
f 135/132/2 133/122/2 131/106/2
f 136/133/3 134/120/3 132/123/3
f 137/124/3 138/36/3 140/124/3
f 141/125/3 142/125/3 140/124/3
f 138/36/3 137/124/3 144/36/3
f 147/35/2 151/126/2 145/35/2
f 146/35/2 152/126/2 147/35/2
f 148/126/2 151/126/2 149/127/2
usemtl greyDWall
f 6/134/23 1/135/23 4/136/23
f 9/137/24 10/138/24 6/134/24
f 7/139/25 8/140/25 12/141/25
f 7/139/26 10/138/26 9/137/26
f 12/141/27 18/142/27 19/143/27
f 15/144/28 20/145/28 24/146/28
f 16/147/28 25/148/28 26/149/28
f 23/150/29 24/146/29 34/151/29
f 25/148/29 35/152/29 36/153/29
f 33/154/30 34/151/30 42/155/30
f 35/152/30 43/156/30 44/157/30
f 41/158/31 42/155/31 50/159/31
f 43/156/31 51/160/31 52/161/31
f 58/162/32 59/163/32 60/164/32
f 57/165/33 60/164/33 66/166/33
f 65/167/34 66/166/34 70/168/34
f 69/169/35 70/168/35 74/170/35
f 73/171/36 74/170/36 78/172/36
f 77/173/37 78/172/37 86/174/37
f 81/175/38 88/176/38 80/177/38
f 85/178/39 86/174/39 94/179/39
f 89/180/4 81/175/4 84/181/4
f 93/182/11 94/179/11 102/183/11
f 96/184/40 80/185/40 87/186/40
f 97/187/4 89/188/4 92/189/4
f 98/190/24 99/191/24 105/192/24
f 101/193/12 102/183/12 108/194/12
f 102/183/3 94/179/3 104/195/3
f 104/196/25 96/197/25 95/198/25
f 97/199/4 100/200/4 106/201/4
f 108/194/4 111/202/4 112/203/4
f 108/194/3 102/183/3 110/204/3
f 110/205/27 104/196/27 103/206/27
f 110/205/28 109/207/28 112/208/28
f 114/209/41 115/210/41 116/211/41
f 113/212/42 116/211/42 118/213/42
f 120/214/17 121/215/17 115/210/17
f 124/216/4 117/217/4 118/213/4
f 126/218/16 127/219/16 121/215/16
f 129/220/24 130/221/24 124/216/24
f 122/222/43 128/223/43 125/224/43
f 127/219/15 126/218/15 133/225/15
f 129/220/1 122/226/1 119/227/1
f 128/223/32 134/228/32 131/229/32
f 132/230/1 133/225/1 135/231/1
f 131/229/31 134/228/31 136/232/31
f 138/233/24 144/234/24 147/235/24
f 148/236/4 149/237/4 140/238/4
f 150/239/42 142/240/42 141/241/42
f 137/242/1 142/240/1 150/239/1
f 151/243/42 152/244/42 143/245/42
f 143/245/1 152/244/1 146/246/1
f 5/247/23 6/134/23 4/136/23
f 5/247/24 9/137/24 6/134/24
f 11/248/25 7/139/25 12/141/25
f 8/140/26 7/139/26 9/137/26
f 20/145/44 15/144/44 19/143/44
f 11/248/27 12/141/27 19/143/27
f 16/147/27 17/249/27 18/142/27
f 19/143/27 15/144/27 11/248/27
f 12/141/27 16/147/27 18/142/27
f 23/150/28 15/144/28 24/146/28
f 17/249/28 16/147/28 26/149/28
f 33/154/29 23/150/29 34/151/29
f 26/149/29 25/148/29 36/153/29
f 41/158/30 33/154/30 42/155/30
f 36/153/30 35/152/30 44/157/30
f 49/250/31 41/158/31 50/159/31
f 44/157/31 43/156/31 52/161/31
f 57/165/32 49/250/32 58/162/32
f 52/161/32 51/160/32 59/163/32
f 49/250/32 50/159/32 58/162/32
f 59/163/32 51/160/32 60/164/32
f 60/164/45 57/165/45 58/162/45
f 65/167/33 57/165/33 66/166/33
f 69/169/34 65/167/34 70/168/34
f 73/171/35 69/169/35 74/170/35
f 77/173/36 73/171/36 78/172/36
f 85/178/37 77/173/37 86/174/37
f 84/181/46 81/175/46 80/177/46
f 93/182/39 85/178/39 94/179/39
f 92/251/4 89/180/4 84/181/4
f 101/193/11 93/182/11 102/183/11
f 95/252/40 96/184/40 87/186/40
f 100/253/4 97/187/4 92/189/4
f 106/201/24 98/190/24 105/192/24
f 107/254/12 101/193/12 108/194/12
f 110/204/3 102/183/3 104/195/3
f 103/206/25 104/196/25 95/198/25
f 105/192/4 97/199/4 106/201/4
f 107/254/4 108/194/4 112/203/4
f 111/202/3 108/194/3 110/204/3
f 109/207/27 110/205/27 103/206/27
f 111/255/28 110/205/28 112/208/28
f 113/212/41 114/209/41 116/211/41
f 117/217/42 113/212/42 118/213/42
f 114/209/17 120/214/17 115/210/17
f 123/256/4 124/216/4 118/213/4
f 120/214/16 126/218/16 121/215/16
f 123/256/24 129/220/24 124/216/24
f 119/257/43 122/222/43 125/224/43
f 132/230/15 127/219/15 133/225/15
f 130/221/1 129/220/1 119/227/1
f 125/224/32 128/223/32 131/229/32
f 136/232/1 132/230/1 135/231/1
f 135/231/31 131/229/31 136/232/31
f 147/235/24 145/258/24 139/259/24
f 139/259/24 138/233/24 147/235/24
f 144/234/24 146/260/24 147/235/24
f 140/238/4 139/259/4 145/258/4
f 145/258/4 148/236/4 140/238/4
f 149/237/4 141/261/4 140/238/4
f 149/262/42 150/239/42 141/241/42
f 151/243/1 137/242/1 150/239/1
f 137/242/42 151/243/42 143/245/42
f 144/263/1 143/245/1 146/246/1
