# Blender v2.76 (sub 0) OBJ File: '1er_1.blend'
# www.blender.org
mtllib manger_f2.mtl
o Cube_Cube.036
v -1.582635 0.000000 5.489800
v -1.475396 0.000000 5.489800
v -1.475396 2.300000 5.489800
v -1.582635 2.300000 5.489800
v -1.582635 0.000000 5.153533
v -1.475396 0.000000 5.153533
v -1.475396 2.300000 5.153533
v -1.582635 2.300000 5.153533
v -1.582635 -0.000000 4.619225
v -1.475396 -0.000000 4.199190
v -1.475396 2.300000 4.199190
v -1.503585 2.300000 4.131136
v -1.475396 2.300000 4.131136
v -1.475396 2.300000 3.894654
v -1.582635 2.300000 3.894654
v -1.582635 -0.000000 4.065155
v -1.432578 -0.000000 4.302562
v -1.432578 2.300000 4.302562
v -1.475396 -0.000000 4.131136
v -1.475396 0.000000 3.894654
v -1.582635 0.000000 3.894654
v -1.582635 -0.000000 4.044375
v -1.503585 -0.000000 4.131136
v -1.294190 -0.000000 4.222664
v -1.167996 -0.000000 4.647370
v -1.167996 2.300000 4.647370
v -1.294190 2.300000 4.222664
v -1.332102 2.300000 4.131136
v -1.332102 -0.000000 4.131136
v -1.055003 -0.000000 4.534378
v -0.823188 -0.000000 4.911951
v -0.823188 2.300000 4.911951
v -1.055003 2.300000 4.534378
v -0.743289 -0.000000 4.773563
v -0.421649 -0.000000 5.078274
v -0.421649 2.300000 5.078274
v -0.743289 2.300000 4.773563
v -0.380291 -0.000000 4.923922
v 0.009254 -0.000000 5.135003
v 0.009254 2.300000 5.135003
v -0.380291 2.300000 4.923922
v 0.009254 -0.000000 4.975206
v 0.440157 -0.000000 5.078273
v 0.440157 2.300000 5.078273
v 0.009254 2.300000 4.975206
v 0.398798 -0.000000 4.923922
v 0.841695 -0.000000 4.911951
v 0.841695 2.300000 4.911951
v 0.398798 2.300000 4.923922
v 0.761796 -0.000000 4.773563
v 1.186502 -0.000000 4.647369
v 1.186502 2.300000 4.647369
v 0.761796 2.300000 4.773563
v 1.073509 -0.000000 4.534377
v 1.451083 -0.000000 4.302561
v 1.451083 2.300000 4.302561
v 1.073509 2.300000 4.534377
v 1.312696 -0.000000 4.222663
v 1.617406 -0.000000 3.901023
v 1.617406 2.300000 3.901023
v 1.312696 2.300000 4.222663
v 1.463055 -0.000000 3.859665
v 1.626682 2.300000 3.830562
v 1.626682 -0.000000 3.830562
v 1.463055 2.300000 3.859665
v 1.626682 0.000000 4.194393
v 1.626682 2.300000 4.194393
v 1.626682 2.300000 3.470120
v 1.514338 2.300000 3.470120
v 1.514338 -0.000000 3.470120
v 1.919970 0.000000 4.194393
v 1.919970 2.300000 4.194393
v 1.919970 2.300000 2.342546
v 1.626682 2.300000 2.342546
v 1.626682 2.300000 3.109678
v 1.674135 2.300000 3.470120
v 1.617406 2.300000 3.039217
v 1.463055 2.300000 3.080575
v 1.463055 -0.000000 3.080575
v 1.626682 -0.000000 3.470120
v 1.674135 -0.000000 3.470120
v 1.919970 0.000000 2.342546
v 1.919970 2.300000 2.210943
v 1.626682 2.300000 2.210943
v 1.626682 0.000000 2.342546
v 1.626682 -0.000000 3.109678
v 1.617406 -0.000000 3.039217
v 1.312696 2.300000 2.717577
v 1.451083 2.300000 2.637679
v 1.312696 -0.000000 2.717577
v 1.919970 0.000000 2.210943
v 1.919970 2.300000 -4.946642
v 1.626682 2.300000 -4.946642
v 1.626682 0.000000 2.210943
v 1.451083 -0.000000 2.637679
v 1.073509 2.300000 2.405863
v 1.186502 2.300000 2.292870
v 1.073509 -0.000000 2.405863
v 1.919970 0.000000 -4.946642
v 1.626682 2.300000 -5.044226
v 1.919970 2.300000 -5.044226
v 1.626682 0.000000 -4.946642
v 1.186502 -0.000000 2.292870
v 0.761796 2.300000 2.166677
v 0.841694 2.300000 2.028289
v 0.761796 -0.000000 2.166677
v 1.919970 0.000000 -5.044226
v 1.626682 0.000000 -5.044226
v 0.841694 -0.000000 2.028289
v 0.728582 2.300000 2.152920
v 0.728582 2.300000 1.981437
v 0.728582 -0.000000 2.152920
v 0.728582 -0.000000 1.981437
v -1.582635 2.300000 1.225303
v -1.444058 2.300000 1.225303
v -1.444058 2.300000 -1.490376
v -1.582635 2.300000 -1.490376
v -1.582635 2.300000 1.630518
v -1.572949 2.300000 1.581824
v -1.481308 2.300000 1.444673
v -1.444058 2.300000 1.419784
v -1.444058 0.000000 1.225303
v -1.444058 0.000000 -1.490376
v -1.582635 0.000000 -1.490376
v -1.444058 0.000000 1.419784
v -1.582635 0.000000 1.630518
v -1.572949 0.000000 1.581824
v -1.481308 0.000000 1.444673
v -1.582635 0.000000 1.225303
v -1.582635 2.300000 2.151188
v -1.444058 2.300000 2.151188
v -1.444058 2.300000 2.067426
v -1.481308 2.300000 2.042537
v -1.572949 2.300000 1.905385
v -1.582635 2.300000 1.856691
v -1.582635 2.300000 2.999949
v -1.444058 2.300000 2.665395
v -1.444058 0.000000 2.151188
v -1.444058 0.000000 2.067426
v -1.481308 0.000000 2.042537
v -1.572949 0.000000 1.905385
v -1.582635 0.000000 1.856691
v -1.444058 -0.000000 2.665395
v -1.582635 2.300000 3.099360
v -1.447022 2.300000 3.099360
v -1.444549 2.300000 3.080576
v -1.444058 2.300000 3.079391
v -1.582635 0.000000 2.151188
v -1.582635 -0.000000 2.347076
v -1.432579 2.300000 2.637680
v -1.432579 -0.000000 2.637680
v -1.582635 2.300000 3.125805
v -1.444058 2.300000 3.125805
v -1.294190 2.300000 2.717578
v -1.582635 -0.000000 2.950411
v -1.167998 2.300000 2.292871
v -1.167998 -0.000000 2.292871
v -1.294190 -0.000000 2.717578
v -1.444058 -0.000000 3.079391
v -1.582635 0.000000 3.125805
v -1.444058 0.000000 3.125805
v -1.055005 2.300000 2.405864
v -1.582635 -0.000000 2.999949
v -1.055005 -0.000000 2.405864
v -0.823189 2.300000 2.028290
v -0.823189 -0.000000 2.028290
v -1.582635 -0.000000 3.043437
v -1.582635 -0.000000 3.103289
v -1.447022 -0.000000 3.099360
v -0.743291 2.300000 2.166677
v -0.743291 -0.000000 2.166677
v -0.646200 -0.000000 1.954978
v -0.646200 2.300000 1.954978
v -1.444549 -0.000000 3.080576
v -1.582635 -0.000000 3.043576
v -1.582635 -0.000000 3.099360
v -0.646200 2.300000 2.126461
v -0.646200 -0.000000 2.126461
v -1.582635 -0.000000 3.096560
v -1.402681 2.300000 -4.941655
v -1.402681 2.300000 -5.044226
v -1.582635 2.300000 -5.044226
v -1.582635 2.300000 -4.941655
v -1.582635 2.300000 -2.212729
v -1.402681 2.300000 -2.212729
v -1.305219 2.300000 -4.941655
v -1.305219 2.300000 -5.044226
v -1.582635 0.000000 -2.212729
v -1.402681 0.000000 -2.212729
v -1.402681 0.000000 -4.941655
v -1.305219 0.000000 -4.941655
v -1.305219 0.000000 -5.044226
v -1.582635 0.000000 -4.941655
v -1.402681 0.000000 -5.044226
v -1.582635 0.000000 -5.044226
v -0.595834 0.000000 -5.044226
v -0.595834 0.000000 -4.999275
v -0.595834 2.300000 -4.999275
v -0.595834 2.300000 -5.044226
v -0.371980 0.000000 -5.044226
v -0.371980 0.000000 -4.999275
v -0.371980 2.300000 -4.999275
v -0.371980 2.300000 -5.044226
v 0.573706 0.000000 -5.044226
v 0.573706 0.000000 -4.999275
v 0.573706 2.300000 -4.999275
v 0.573706 2.300000 -5.044226
v 0.797560 0.000000 -5.044226
v 0.797560 0.000000 -4.999275
v 0.797560 2.300000 -4.999275
v 0.797560 2.300000 -5.044226
vn 0.000000 0.000000 1.000000
vn 0.000000 -1.000000 0.000000
vn 1.000000 0.000000 0.000000
vn 0.000000 1.000000 0.000000
vn -0.923900 0.000000 0.382700
vn 0.000000 0.000000 -1.000000
vn -0.793400 0.000000 0.608800
vn -0.608800 0.000000 0.793400
vn 0.923900 0.000000 -0.382700
vn 0.793400 0.000000 -0.608800
vn -0.382700 0.000000 0.923900
vn 0.608800 0.000000 -0.793400
vn -0.130500 0.000000 0.991400
vn 0.382700 0.000000 -0.923900
vn 0.130500 0.000000 0.991400
vn 0.130500 0.000000 -0.991400
vn 0.382700 0.000000 0.923900
vn -0.130500 0.000000 -0.991400
vn 0.608800 0.000000 0.793400
vn -0.382700 0.000000 -0.923900
vn 0.793400 0.000000 0.608800
vn -0.608800 0.000000 -0.793400
vn 0.923900 0.000000 0.382700
vn -0.793400 0.000000 -0.608800
vn 0.991400 0.000000 0.130500
vn -0.923900 0.000000 -0.382700
vn -1.000000 0.000000 0.000000
vn -0.991400 0.000000 -0.130500
vn -0.991400 0.000000 0.130500
vn 0.991400 0.000000 -0.130500
vn 0.980800 0.000000 0.195100
vn 0.831500 0.000000 0.555600
vn 0.555600 0.000000 0.831500
vn 0.555600 0.000000 -0.831500
vn 0.831500 0.000000 -0.555600
vn 0.980800 0.000000 -0.195100
vn 0.000000 -1.000000 -0.000100
vn 0.000000 1.000000 0.000300
vn 0.000300 -1.000000 0.000000
usemtl None
s off
f 2//1 3//1 4//1
f 6//2 2//2 1//2
f 3//3 2//3 6//3
f 3//4 7//4 8//4
f 9//2 10//2 6//2
f 6//3 10//3 11//3
f 12//4 14//4 15//4
f 16//2 10//2 9//2
f 17//5 18//5 11//5
f 11//4 13//4 12//4
f 20//3 14//3 13//3
f 14//6 20//6 21//6
f 23//2 10//2 16//2
f 10//2 29//2 24//2
f 26//7 18//7 17//7
f 27//4 28//4 11//4
f 28//6 29//6 19//6
f 22//2 21//2 20//2
f 19//2 10//2 23//2
f 24//2 30//2 25//2
f 32//8 26//8 25//8
f 27//4 18//4 26//4
f 27//9 24//9 29//9
f 24//10 27//10 33//10
f 30//2 34//2 31//2
f 36//11 32//11 31//11
f 33//4 26//4 32//4
f 30//12 33//12 37//12
f 38//2 35//2 31//2
f 40//13 36//13 35//13
f 41//4 37//4 32//4
f 34//14 37//14 41//14
f 42//2 39//2 35//2
f 44//15 40//15 39//15
f 45//4 41//4 36//4
f 38//16 41//16 45//16
f 42//2 46//2 43//2
f 48//17 44//17 43//17
f 45//4 40//4 44//4
f 42//18 45//18 49//18
f 50//2 47//2 43//2
f 52//19 48//19 47//19
f 53//4 49//4 44//4
f 46//20 49//20 53//20
f 54//2 51//2 47//2
f 56//21 52//21 51//21
f 57//4 53//4 48//4
f 50//22 53//22 57//22
f 58//2 55//2 51//2
f 60//23 56//23 55//23
f 61//4 57//4 52//4
f 54//24 57//24 61//24
f 62//2 59//2 55//2
f 60//25 59//25 64//25
f 61//4 56//4 60//4
f 58//26 61//26 65//26
f 70//2 80//2 64//2
f 66//27 67//27 63//27
f 65//4 60//4 63//4
f 62//28 65//28 69//28
f 81//2 82//2 71//2
f 72//1 67//1 66//1
f 63//4 67//4 72//4
f 68//4 63//4 76//4
f 78//4 69//4 75//4
f 70//29 69//29 78//29
f 73//3 72//3 71//3
f 84//4 74//4 73//4
f 85//27 86//27 75//27
f 87//30 77//30 75//30
f 78//4 77//4 89//4
f 79//5 78//5 88//5
f 79//2 86//2 70//2
f 80//2 86//2 81//2
f 83//3 73//3 82//3
f 93//4 84//4 83//4
f 94//27 85//27 74//27
f 89//9 77//9 87//9
f 88//4 89//4 97//4
f 90//7 88//7 96//7
f 79//2 90//2 95//2
f 91//2 82//2 85//2
f 92//3 83//3 91//3
f 93//4 92//4 101//4
f 102//27 94//27 84//27
f 97//10 89//10 95//10
f 104//4 96//4 97//4
f 98//8 96//8 104//8
f 98//2 103//2 95//2
f 99//2 91//2 94//2
f 92//3 99//3 107//3
f 102//27 93//27 100//27
f 105//12 97//12 103//12
f 110//4 104//4 105//4
f 106//11 104//11 110//11
f 106//2 109//2 103//2
f 99//2 102//2 108//2
f 105//14 109//14 113//14
f 110//27 111//27 113//27
f 109//2 106//2 112//2
f 101//6 107//6 108//6
f 15//27 9//27 8//27
f 115//4 116//4 117//4
f 114//4 119//4 120//4
f 115//3 122//3 123//3
f 116//6 123//6 124//6
f 115//3 121//3 125//3
f 127//31 119//31 118//31
f 128//32 120//32 119//32
f 125//33 121//33 120//33
f 123//2 122//2 129//2
f 129//2 128//2 127//2
f 126//27 114//27 129//27
f 130//4 133//4 134//4
f 130//4 136//4 137//4
f 131//3 138//3 139//3
f 132//34 139//34 140//34
f 141//35 134//35 133//35
f 134//36 141//36 142//36
f 131//3 137//3 143//3
f 147//4 137//4 136//4
f 140//2 138//2 148//2
f 138//2 143//2 149//2
f 150//26 151//26 143//26
f 147//4 146//4 145//4
f 154//4 150//4 137//4
f 149//2 143//2 155//2
f 150//24 156//24 157//24
f 143//2 151//2 158//2
f 161//1 153//1 152//1
f 153//3 161//3 159//3
f 159//23 158//23 154//23
f 154//4 162//4 156//4
f 155//2 143//2 163//2
f 158//2 151//2 157//2
f 156//22 165//22 166//22
f 163//2 143//2 159//2
f 168//2 161//2 160//2
f 168//2 176//2 169//2
f 164//21 162//21 154//21
f 162//4 170//4 165//4
f 164//2 157//2 166//2
f 166//20 165//20 173//20
f 159//37 174//37 175//37
f 171//19 170//19 162//19
f 165//4 170//4 177//4
f 178//2 171//2 166//2
f 177//3 178//3 172//3
f 175//2 174//2 179//2
f 179//2 174//2 169//2
f 170//17 171//17 178//17
f 163//27 167//27 136//27
f 181//4 182//4 183//4
f 185//4 180//4 183//4
f 180//4 186//4 187//4
f 189//1 185//1 184//1
f 180//3 185//3 189//3
f 190//1 191//1 186//1
f 186//3 191//3 192//3
f 190//2 189//2 188//2
f 191//2 190//2 194//2
f 190//2 193//2 195//2
f 181//6 187//6 194//6
f 193//27 188//27 183//27
f 197//27 198//27 199//27
f 201//2 197//2 196//2
f 198//1 197//1 201//1
f 198//4 202//4 203//4
f 202//3 201//3 200//3
f 200//6 196//6 199//6
f 205//27 206//27 207//27
f 209//2 205//2 204//2
f 206//1 205//1 209//1
f 206//4 210//4 211//4
f 210//3 209//3 208//3
f 208//6 204//6 207//6
f 1//1 2//1 4//1
f 5//2 6//2 1//2
f 7//3 3//3 6//3
f 4//4 3//4 8//4
f 5//2 9//2 6//2
f 7//3 6//3 11//3
f 15//4 8//4 12//4
f 7//4 11//4 8//4
f 12//4 13//4 14//4
f 8//4 11//4 12//4
f 10//5 17//5 11//5
f 19//3 20//3 13//3
f 15//6 14//6 21//6
f 22//2 23//2 16//2
f 24//2 17//2 10//2
f 10//2 19//2 29//2
f 25//7 26//7 17//7
f 13//4 11//4 28//4
f 18//4 27//4 11//4
f 13//6 28//6 19//6
f 20//2 19//2 22//2
f 23//2 22//2 19//2
f 17//2 24//2 25//2
f 31//8 32//8 25//8
f 33//4 27//4 26//4
f 28//9 27//9 29//9
f 30//10 24//10 33//10
f 25//2 30//2 31//2
f 35//11 36//11 31//11
f 37//4 33//4 32//4
f 34//12 30//12 37//12
f 34//2 38//2 31//2
f 39//13 40//13 35//13
f 36//4 41//4 32//4
f 38//14 34//14 41//14
f 38//2 42//2 35//2
f 43//15 44//15 39//15
f 40//4 45//4 36//4
f 42//16 38//16 45//16
f 39//2 42//2 43//2
f 47//17 48//17 43//17
f 49//4 45//4 44//4
f 46//18 42//18 49//18
f 46//2 50//2 43//2
f 51//19 52//19 47//19
f 48//4 53//4 44//4
f 50//20 46//20 53//20
f 50//2 54//2 47//2
f 55//21 56//21 51//21
f 52//4 57//4 48//4
f 54//22 50//22 57//22
f 54//2 58//2 51//2
f 59//23 60//23 55//23
f 56//4 61//4 52//4
f 58//24 54//24 61//24
f 58//2 62//2 55//2
f 63//25 60//25 64//25
f 65//4 61//4 60//4
f 62//26 58//26 65//26
f 64//2 59//2 62//2
f 62//2 70//2 64//2
f 64//27 66//27 63//27
f 63//4 68//4 69//4
f 69//4 65//4 63//4
f 70//28 62//28 69//28
f 71//2 66//2 64//2
f 81//2 86//2 82//2
f 71//2 64//2 81//2
f 85//2 82//2 86//2
f 71//1 72//1 66//1
f 72//4 73//4 76//4
f 74//4 75//4 73//4
f 76//4 63//4 72//4
f 73//4 75//4 76//4
f 75//4 68//4 76//4
f 68//4 75//4 69//4
f 77//4 78//4 75//4
f 79//29 70//29 78//29
f 82//3 73//3 71//3
f 83//4 84//4 73//4
f 74//27 85//27 75//27
f 86//30 87//30 75//30
f 88//4 78//4 89//4
f 90//5 79//5 88//5
f 80//2 70//2 86//2
f 79//2 87//2 86//2
f 64//2 80//2 81//2
f 91//3 83//3 82//3
f 92//4 93//4 83//4
f 84//27 94//27 74//27
f 95//9 89//9 87//9
f 96//4 88//4 97//4
f 98//7 90//7 96//7
f 87//2 79//2 95//2
f 94//2 91//2 85//2
f 99//3 92//3 91//3
f 100//4 93//4 101//4
f 93//27 102//27 84//27
f 103//10 97//10 95//10
f 105//4 104//4 97//4
f 106//8 98//8 104//8
f 90//2 98//2 95//2
f 102//2 99//2 94//2
f 101//3 92//3 107//3
f 108//27 102//27 100//27
f 109//12 105//12 103//12
f 111//4 110//4 105//4
f 112//11 106//11 110//11
f 98//2 106//2 103//2
f 107//2 99//2 108//2
f 111//14 105//14 113//14
f 112//27 110//27 113//27
f 113//2 109//2 112//2
f 100//6 101//6 108//6
f 5//27 1//27 4//27
f 4//27 8//27 5//27
f 15//27 21//27 22//27
f 16//27 9//27 15//27
f 15//27 22//27 16//27
f 5//27 8//27 9//27
f 114//4 115//4 117//4
f 121//4 115//4 114//4
f 114//4 118//4 119//4
f 120//4 121//4 114//4
f 116//3 115//3 123//3
f 117//6 116//6 124//6
f 122//3 115//3 125//3
f 126//31 127//31 118//31
f 127//32 128//32 119//32
f 128//33 125//33 120//33
f 124//2 123//2 129//2
f 129//2 122//2 125//2
f 127//2 126//2 129//2
f 129//2 125//2 128//2
f 124//27 129//27 114//27
f 126//27 118//27 114//27
f 114//27 117//27 124//27
f 130//4 131//4 133//4
f 134//4 135//4 130//4
f 131//4 132//4 133//4
f 131//4 130//4 137//4
f 132//3 131//3 139//3
f 133//34 132//34 140//34
f 140//35 141//35 133//35
f 135//36 134//36 142//36
f 138//3 131//3 143//3
f 136//4 144//4 146//4
f 146//38 147//38 136//38
f 144//4 145//4 146//4
f 148//2 142//2 141//2
f 140//2 139//2 138//2
f 148//2 141//2 140//2
f 148//2 138//2 149//2
f 137//26 150//26 143//26
f 144//4 152//4 145//4
f 153//4 147//4 145//4
f 145//4 152//4 153//4
f 147//4 154//4 137//4
f 151//24 150//24 157//24
f 159//2 143//2 158//2
f 160//1 161//1 152//1
f 147//3 153//3 159//3
f 147//23 159//23 154//23
f 150//4 154//4 156//4
f 164//2 158//2 157//2
f 157//22 156//22 166//22
f 167//2 163//2 159//2
f 174//39 159//39 169//39
f 161//2 168//2 169//2
f 169//2 159//2 161//2
f 158//21 164//21 154//21
f 156//4 162//4 165//4
f 171//2 164//2 166//2
f 172//20 166//20 173//20
f 167//37 159//37 175//37
f 164//19 171//19 162//19
f 173//4 165//4 177//4
f 172//2 178//2 166//2
f 173//3 177//3 172//3
f 176//2 179//2 169//2
f 177//17 170//17 178//17
f 160//27 152//27 168//27
f 144//27 168//27 152//27
f 130//27 135//27 142//27
f 148//27 149//27 130//27
f 130//27 142//27 148//27
f 144//27 176//27 168//27
f 179//27 176//27 144//27
f 144//27 175//27 179//27
f 130//27 149//27 136//27
f 155//27 163//27 136//27
f 167//27 175//27 144//27
f 144//27 136//27 167//27
f 149//27 155//27 136//27
f 180//4 181//4 183//4
f 184//4 185//4 183//4
f 181//4 180//4 187//4
f 188//1 189//1 184//1
f 190//3 180//3 189//3
f 180//1 190//1 186//1
f 187//3 186//3 192//3
f 193//2 190//2 188//2
f 192//2 191//2 194//2
f 194//2 190//2 195//2
f 194//6 195//6 182//6
f 182//6 181//6 194//6
f 187//6 192//6 194//6
f 183//27 182//27 195//27
f 195//27 193//27 183//27
f 188//27 184//27 183//27
f 196//27 197//27 199//27
f 200//2 201//2 196//2
f 202//1 198//1 201//1
f 199//4 198//4 203//4
f 203//3 202//3 200//3
f 203//6 200//6 199//6
f 204//27 205//27 207//27
f 208//2 209//2 204//2
f 210//1 206//1 209//1
f 207//4 206//4 211//4
f 211//3 210//3 208//3
f 211//6 208//6 207//6
