# Blender v2.76 (sub 0) OBJ File: '2nd_2.blend'
# www.blender.org
mtllib sol_f2.mtl
o sol_f2_Sol__Cube.001
v -1.245168 0.100000 -20.160719
v -1.245168 -0.209996 -20.160719
v -1.245168 -0.209996 -18.004852
v -1.245168 0.100000 -18.004852
v 5.581790 0.100000 -20.160719
v 5.581790 -0.209996 -19.197378
v -1.104100 -0.210002 0.196318
v 5.581790 0.100000 -19.197378
v 5.581790 -0.209996 -20.160719
v 8.074265 -0.209996 -18.004852
v 6.735162 -0.209996 -18.004852
v 6.684426 -0.209996 -18.020243
v 6.371082 -0.209996 -18.051105
v 6.057740 -0.209996 -18.020243
v 6.007004 -0.209996 -18.004852
v -1.104100 0.100000 0.196318
v 1.833272 -0.209999 -9.423271
v 0.516926 -0.209999 -9.423271
v 0.516926 -0.210001 -2.753447
v 3.294110 -0.210002 -2.753447
v 3.294110 -0.210001 -5.350983
v 4.943743 -0.210002 -0.752399
v 6.007004 0.100000 -18.004852
v 6.057740 0.100000 -18.020243
v 6.371082 0.100000 -18.051105
v 6.684426 0.100000 -18.020243
v 6.735162 0.100000 -18.004852
v 8.074265 0.100000 -18.004852
v 6.971471 -0.209996 -19.197378
v 6.985728 -0.209996 -17.928844
v 5.756437 -0.209996 -17.928844
v 5.478755 -0.209996 -17.780420
v 5.235364 -0.209996 -17.580675
v 5.035619 -0.209996 -17.337284
v 4.887195 -0.209997 -17.059605
v 4.795795 -0.209997 -16.758301
v 4.764933 -0.209997 -16.444958
v 5.616740 -0.209997 -16.444956
v 5.631235 -0.209997 -16.592121
v 5.674161 -0.209997 -16.733631
v 5.743870 -0.209997 -16.864046
v 5.837682 -0.209997 -16.978355
v 5.951993 -0.209997 -17.072168
v 6.082409 -0.209997 -17.141876
v 6.223918 -0.209997 -17.184803
v 6.371082 -0.209997 -17.199297
v 6.518247 -0.209997 -17.184803
v 6.659756 -0.209997 -17.141876
v 6.790172 -0.209997 -17.072166
v 6.904482 -0.209997 -16.978355
v 6.998294 -0.209997 -16.864046
v 7.068003 -0.209997 -16.733629
v 7.110929 -0.209997 -16.592119
v 7.125423 -0.209997 -16.444956
v 7.791215 -0.209997 -16.444956
v 7.289100 -0.209998 -13.677774
v 7.289100 -0.209997 -15.832360
v 5.671184 -0.209997 -15.832360
v 5.671184 -0.209998 -12.076643
v 6.998569 -0.209998 -12.076643
v 3.294110 -0.209999 -9.423271
v 4.943743 -0.210002 0.196318
v 4.943743 0.100000 -0.752399
v 3.294110 0.100000 -5.350983
v 3.294110 0.100000 -2.753447
v 0.516926 0.100000 -2.753447
v 0.516926 0.100000 -9.423271
v 1.833272 0.100000 -9.423271
v 3.294110 0.100000 -9.423271
v 6.998569 0.100000 -12.076643
v 5.671184 0.100000 -12.076643
v 5.671184 0.100000 -15.832360
v 7.289100 0.100000 -15.832360
v 7.289100 0.100000 -13.677774
v 7.791215 0.100000 -16.444956
v 7.125423 0.100000 -16.444956
v 7.110929 0.100000 -16.592119
v 7.068003 0.100000 -16.733629
v 6.998294 0.100000 -16.864046
v 6.904482 0.100000 -16.978355
v 6.790172 0.100000 -17.072166
v 6.659756 0.100000 -17.141876
v 6.518247 0.100000 -17.184803
v 6.371082 0.100000 -17.199297
v 6.223918 0.100000 -17.184803
v 6.082409 0.100000 -17.141876
v 5.951993 0.100000 -17.072168
v 5.837682 0.100000 -16.978355
v 5.743870 0.100000 -16.864046
v 5.674161 0.100000 -16.733631
v 5.631235 0.100000 -16.592121
v 5.616740 0.100000 -16.444956
v 4.764933 0.100000 -16.444958
v 4.795795 0.100000 -16.758301
v 4.887195 0.100000 -17.059605
v 5.035619 0.100000 -17.337284
v 5.235364 0.100000 -17.580675
v 5.478755 0.100000 -17.780420
v 5.756437 0.100000 -17.928844
v 7.884864 0.100000 -16.961056
v 6.985728 0.100000 -17.928844
v 7.263410 0.100000 -17.780418
v 7.506800 0.100000 -17.580673
v 7.706546 0.100000 -17.337284
v 7.854970 0.100000 -17.059601
v 6.971471 0.100000 -19.197378
v 8.074265 -0.209996 -20.160719
v 7.263410 -0.209996 -17.780418
v 7.977231 -0.209997 -16.444956
v 7.977231 0.100000 -16.444956
v 8.074265 -0.210002 -0.970770
v 7.289100 -0.209998 -12.076643
v 7.946369 -0.209997 -16.758299
v 7.884864 -0.209997 -16.961056
v 7.289100 0.100000 -12.076643
v 4.943743 0.100000 0.196318
v 8.074265 0.100000 -0.970770
v 7.854970 -0.209997 -17.059601
v 7.946369 0.100000 -16.758299
v 7.506800 -0.209996 -17.580673
v 7.706546 -0.209996 -17.337284
v 8.074265 0.100000 -20.160719
v 6.971471 0.100000 -20.160719
v 6.971471 -0.209996 -20.160719
v 11.389360 -0.209996 -18.004852
v 7.989067 -0.210002 -0.970770
v 7.989067 0.100000 -0.970770
v 11.389360 0.100000 -20.160719
v 11.389360 0.100000 -18.004852
v 11.389360 -0.209996 -20.160719
v 7.074810 -0.210002 -0.081007
v 5.134462 -0.210002 -0.466966
v 7.074810 0.100000 -0.081007
v 7.652438 0.100000 -0.466966
v 7.652438 -0.210002 -0.466966
v 6.393450 -0.210002 0.054520
v 5.712090 -0.210002 -0.081007
v 5.134462 0.100000 -0.466966
v 6.393450 0.100000 0.054520
v 5.712090 0.100000 -0.081007
vt 0.675766 3.708662
vt -1.789161 4.056482
vt -1.789161 3.278090
vt 0.675766 4.056482
vt 1.092201 3.278090
vt 1.575694 3.278090
vt -1.152943 -2.228549
vt -1.152943 0.179643
vt -1.738227 -3.293585
vt 1.212375 2.819104
vt 1.112061 2.941337
vt 1.233107 2.714877
vt 1.282928 3.197058
vt 1.370806 3.124938
vt 1.177522 3.708662
vt 0.445395 -3.293585
vt 0.445395 -2.951044
vt 1.540659 2.714877
vt 1.292204 1.715764
vt 1.292204 1.137663
vt 1.529517 2.828012
vt 1.575694 4.056482
vt 2.772636 4.056482
vt 1.177522 4.056482
vt 1.214833 -3.193455
vt 1.544933 -2.872201
vt 2.772636 3.278090
vt 0.968823 -3.242388
vt 0.514255 -3.054103
vt 0.722812 -3.193455
vt 0.829293 3.278090
vt 1.073882 3.283647
vt 0.847612 3.283647
vt 0.960747 3.294792
vt -0.150219 -1.290689
vt -0.150219 -2.228550
vt -0.677666 0.179643
vt 0.380833 2.714879
vt 0.738825 3.250646
vt 0.709118 2.819108
vt 0.693618 2.768013
vt 0.734287 2.866194
vt 0.638564 3.197058
vt 0.688386 2.714877
vt 0.550686 3.124938
vt 0.768158 2.907465
vt 0.478567 3.037060
vt 0.809431 2.941337
vt 0.856518 2.966506
vt 0.424977 2.936802
vt 0.391977 2.828014
vt 0.907612 2.982005
vt 0.960747 2.987240
vt 0.701775 1.222197
vt 1.013882 2.982005
vt 1.064974 2.966506
vt 0.638173 2.653790
vt -0.079172 0.323156
vt 1.187305 1.137663
vt 1.233311 2.539606
vt 1.473496 2.714877
vt 1.227873 2.768013
vt 1.187206 2.866194
vt 1.153335 2.907465
vt 1.496516 2.936800
vt 1.507310 2.901220
vt 1.182668 3.250646
vt 1.442925 3.037060
vt 1.575694 -2.872201
vt 26.436411 0.909446
vt 26.436411 0.090604
vt 20.949982 0.090601
vt 20.949982 0.909446
vt -8.185661 0.732567
vt 1.145551 0.732567
vt -8.185660 0.292777
vt -3.224523 -4.229982
vt -3.224523 -5.501035
vt 0.800504 -4.933068
vt -25.369860 0.090554
vt 1.145551 0.292777
vt 1.051201 -4.229982
vt 0.800504 -5.501035
vt -25.369860 0.909446
vt -3.141351 6.501035
vt -2.185630 4.761916
vt -0.548262 4.761916
vt 23.984825 0.909446
vt 1.619830 -4.933068
vt 2.270012 -4.229982
vt 0.821110 -3.310300
vt 1.710598 -3.310300
vt 0.853208 -2.949127
vt 23.984825 0.090604
vt -7.992846 0.732577
vt -7.992846 0.292765
vt 0.273458 0.292765
vt 0.424326 5.941691
vt 0.424326 6.501035
vt 3.044994 0.732567
vt 3.044994 0.292777
vt 2.270012 -5.501035
vt 1.807097 -0.734837
vt 1.807097 -1.678830
vt 2.212805 -3.310300
vt 9.938075 0.909446
vt 9.938075 0.090590
vt 5.863385 0.090583
vt 1.267737 0.732571
vt 1.267737 0.292773
vt 3.479135 0.292773
vt 15.421246 0.909446
vt 5.863385 0.909446
vt 3.082032 0.732571
vt 3.082032 0.292773
vt 0.273458 0.732577
vt -22.955488 0.090554
vt 1.619830 -5.501035
vt 4.224523 -4.229982
vt 2.053214 -3.836398
vt 1.935449 -3.979895
vt -22.399759 0.090554
vt -22.399759 0.909446
vt 4.552313 0.292765
vt 4.435863 0.292765
vt -22.955488 0.909446
vt 4.435863 0.732577
vt 4.552313 0.732577
vt 9.083447 0.292777
vt 9.083447 0.732567
vt 4.224523 -5.501035
vt 2.219784 5.812945
vt 1.680757 6.337530
vt 0.534136 0.292765
vt 3.975753 0.732577
vt 2.021314 6.109976
vt 1.279042 6.417434
vt 0.877326 6.337530
vt 0.536769 6.109976
vt 0.534136 0.732577
vt 3.186239 0.732577
vt 3.975753 0.292765
vt 3.186239 0.292765
vt 2.254944 0.292765
vt 2.254944 0.732577
vt 1.323648 0.292765
vt 1.323648 0.732577
vt -17.863056 0.909446
vt -17.863056 0.090563
vt -0.889136 0.090576
vt -3.977991 0.732574
vt -3.977991 0.292771
vt -1.981292 0.292773
vt -1.981292 0.732577
vt -5.777199 0.292766
vt -11.252630 0.909446
vt -11.252630 0.090566
vt 1.480508 -4.229982
vt 1.081114 -4.239055
vt 1.450595 -4.239055
vt 1.265854 -4.257251
vt -1.409540 0.829532
vt -2.185630 0.829532
vt -0.548262 3.230466
vt 0.903473 -4.185170
vt -0.548262 0.829532
vt 0.853208 -0.734837
vt 1.635808 -0.734837
vt 2.103133 -3.310300
vt 1.807097 -2.949127
vt 0.318903 -3.310302
vt 1.676743 -3.480496
vt 1.702052 -3.397064
vt 0.739758 -4.097662
vt 1.512940 -3.680090
vt 1.580334 -3.624782
vt 1.635644 -3.557387
vt 1.436050 -3.721190
vt 1.265854 -3.755044
vt 1.352619 -3.746499
vt 1.095658 -3.721190
vt 1.179090 -3.746499
vt 0.951374 -3.624782
vt 1.018768 -3.680092
vt 0.854965 -3.480497
vt 0.896064 -3.557387
vt 0.829656 -3.397066
vt 0.596259 -3.979896
vt 0.478494 -3.836398
vt 0.390986 -3.672684
vt 0.337099 -3.495042
vt 2.270012 5.812945
vt 2.194609 -3.495041
vt 2.158346 -3.614583
vt 15.421246 0.090594
vt 3.479135 0.732571
vt 1.628236 -4.185170
vt 2.140722 -3.672682
vt 1.791951 -4.097661
vt -0.889136 0.909446
vt -5.777199 0.732574
vt 2.652655 0.292777
vt 2.652655 0.732567
vt 2.224371 0.732567
vt 2.224371 0.292777
vt 1.796090 0.732567
vt 2.722002 0.292777
vt 3.064481 0.292777
vt 2.722002 0.732567
vt 1.384263 0.292777
vt 1.384263 0.732567
vt 1.004722 0.732567
vt 1.004722 0.292777
vt 0.672051 0.732567
vt 0.672051 0.292777
vt 0.399035 0.732571
vt 0.399035 0.292777
vt 0.196166 0.732571
vt 0.196166 0.292777
vt 0.071240 0.732571
vt 0.071240 0.292777
vt 0.029057 0.732571
vt 0.029057 0.292777
vt 1.193322 0.732571
vt 1.213135 0.292777
vt 1.193322 0.292777
vt 1.271808 0.292777
vt 1.213135 0.732571
vt 1.367087 0.292777
vt 1.271808 0.732571
vt 1.495311 0.292777
vt 1.367087 0.732571
vt 1.495311 0.732571
vt 1.651552 0.732571
vt 1.651552 0.292777
vt 1.829806 0.732571
vt 2.023225 0.292777
vt 1.829806 0.292777
vt 2.023225 0.732571
vt 2.425518 0.732571
vt 2.425518 0.292777
vt 2.618935 0.732571
vt 2.618935 0.292777
vt 2.797190 0.732571
vt 2.797190 0.292777
vt 2.953432 0.732571
vt 2.953432 0.292777
vt 3.081655 0.732571
vt 3.081655 0.292777
vt 3.176935 0.732571
vt 3.176935 0.292777
vt 3.235607 0.732571
vt 3.235607 0.292777
vt 3.255419 0.732571
vt 4.165436 0.292777
vt 4.165436 0.732571
vt 4.419684 0.732571
vt 1.726743 0.292777
vt 1.796090 0.292777
vt 1.726743 0.732567
vt 4.293435 0.292777
vt 4.293435 0.732571
vt 4.252576 0.732571
vt 3.444021 0.292777
vt 3.444021 0.732567
vt 3.064481 0.732567
vt 3.776691 0.292777
vt 3.776691 0.732567
vt 4.049707 0.292777
vt 4.049707 0.732571
vt 4.252576 0.292777
vt 4.377501 0.292777
vt 4.419684 0.292777
vt 3.255419 0.292777
vt 4.377501 0.732571
vn 0.000000 1.000000 -0.000000
vn -1.000000 -0.000000 -0.000000
vn 0.000000 0.000000 -1.000000
vn 0.000000 -1.000000 -0.000000
vn -1.000000 -0.000000 0.007800
vn 1.000000 0.000000 0.000000
vn 0.000000 0.000000 1.000000
vn -0.831500 0.000000 0.555600
vn 0.831500 0.000000 0.555600
vn 0.555600 0.000000 0.831500
vn 0.195100 0.000000 0.980800
vn -0.555600 0.000000 0.831500
vn -0.195100 0.000000 0.980800
vn -0.133300 -0.729800 0.670500
vn -0.133400 0.729800 0.670500
vn 0.000000 0.729800 0.683600
vn 0.000000 -0.729800 0.683600
vn 0.133400 0.729800 0.670500
vn -0.205200 -0.707100 0.676700
vn -0.261600 -0.729800 0.631600
vn -0.205300 0.707100 0.676600
vn 0.261600 -0.729800 0.631600
vn 0.261600 0.729800 0.631600
vn 0.379800 0.729800 0.568400
vn 0.379800 -0.729800 0.568400
vn 0.483400 0.729800 0.483400
vn 0.483400 -0.729800 0.483400
vn 0.568400 0.729800 0.379800
vn 0.568400 -0.729800 0.379800
vn 0.631600 0.729800 0.261600
vn 0.631600 -0.729800 0.261600
vn 0.670500 0.729800 0.133400
vn 0.670500 -0.729800 0.133400
vn 0.297600 0.915800 -0.269700
vn 0.297600 -0.915800 -0.269700
vn -0.302500 0.892800 -0.333700
vn -0.713900 -0.685700 -0.142000
vn -0.302500 -0.892800 -0.333700
vn -0.672500 -0.685700 -0.278500
vn -0.713900 0.685700 -0.142000
vn -0.605200 -0.685700 -0.404400
vn -0.672500 0.685700 -0.278500
vn -0.514700 -0.685700 -0.514700
vn -0.605200 0.685700 -0.404400
vn -0.514700 0.685700 -0.514700
vn -0.404400 0.685700 -0.605200
vn -0.404400 -0.685700 -0.605200
vn -0.278500 0.685700 -0.672500
vn -0.142000 -0.685700 -0.713900
vn -0.278500 -0.685700 -0.672500
vn -0.142000 0.685700 -0.713900
vn 0.000000 0.685700 -0.727900
vn 0.000000 -0.685700 -0.727900
vn 0.142000 0.685700 -0.713900
vn 0.142000 -0.685700 -0.713900
vn 0.278500 0.685700 -0.672500
vn 0.278500 -0.685700 -0.672500
vn 0.404400 0.685700 -0.605200
vn 0.404400 -0.685700 -0.605200
vn 0.514700 0.685700 -0.514700
vn 0.514700 -0.685700 -0.514700
vn 0.605200 0.685700 -0.404400
vn 0.605200 -0.685700 -0.404400
vn 0.672500 0.685700 -0.278500
vn 0.672500 -0.685700 -0.278500
vn 0.713900 0.685700 -0.142000
vn 0.713900 -0.685700 -0.142000
vn 0.302500 0.892800 -0.333700
vn 0.000000 -0.707100 -0.707100
vn 0.000000 0.707100 -0.707100
vn -0.297600 0.915800 -0.269700
vn 0.205200 -0.707100 0.676700
vn 0.133300 -0.729800 0.670500
vn 0.205300 0.707100 0.676600
vn -0.676700 -0.707100 0.205200
vn -0.676700 0.707100 0.205200
vn -0.631600 0.729800 0.261600
vn -0.379800 -0.729800 0.568400
vn -0.379800 0.729800 0.568400
vn -0.261600 0.729800 0.631600
vn -0.483400 -0.729800 0.483400
vn -0.483400 0.729800 0.483400
vn -0.568400 -0.729800 0.379800
vn -0.568400 0.729800 0.379800
vn -0.631600 -0.729800 0.261600
vn -0.670500 -0.729800 0.133400
vn -0.297600 -0.915800 -0.269700
vn 0.302500 -0.892800 -0.333700
vn -0.670500 0.729800 0.133300
usemtl inGround
s off
f 8/1/1 1/2/1 4/3/1
f 5/4/1 1/2/1 8/1/1
f 27/5/1 28/6/1 8/1/1
f 66/7/1 67/8/1 16/9/1
f 78/10/1 81/11/1 76/12/1
f 28/6/1 102/13/1 103/14/1
f 8/1/1 28/6/1 106/15/1
f 16/9/1 116/16/1 63/17/1
f 110/18/1 74/19/1 115/20/1
f 28/6/1 119/21/1 110/18/1
f 28/6/1 122/22/1 106/15/1
f 122/22/1 28/6/1 128/23/1
f 122/22/1 123/24/1 106/15/1
f 63/17/1 133/25/1 127/26/1
f 28/6/1 129/27/1 128/23/1
f 139/28/1 133/25/1 63/17/1
f 138/29/1 140/30/1 63/17/1
f 140/30/1 139/28/1 63/17/1
f 8/1/1 4/3/1 23/31/1
f 26/32/1 27/5/1 8/1/1
f 8/1/1 23/31/1 24/33/1
f 25/34/1 26/32/1 8/1/1
f 8/1/1 24/33/1 25/34/1
f 63/17/1 64/35/1 65/36/1
f 67/8/1 68/37/1 4/3/1
f 16/9/1 63/17/1 65/36/1
f 67/8/1 4/3/1 16/9/1
f 16/9/1 65/36/1 66/7/1
f 4/3/1 68/37/1 93/38/1
f 99/39/1 23/31/1 4/3/1
f 90/40/1 91/41/1 89/42/1
f 98/43/1 99/39/1 4/3/1
f 89/42/1 91/41/1 92/44/1
f 97/45/1 98/43/1 4/3/1
f 88/46/1 89/42/1 92/44/1
f 96/47/1 97/45/1 4/3/1
f 87/48/1 88/46/1 86/49/1
f 95/50/1 96/47/1 4/3/1
f 86/49/1 88/46/1 92/44/1
f 94/51/1 95/50/1 4/3/1
f 85/52/1 86/49/1 84/53/1
f 93/38/1 94/51/1 4/3/1
f 84/53/1 86/49/1 81/11/1
f 93/38/1 68/37/1 71/54/1
f 83/55/1 84/53/1 82/56/1
f 92/44/1 93/38/1 72/57/1
f 69/58/1 70/59/1 71/54/1
f 63/17/1 70/59/1 64/35/1
f 73/60/1 74/19/1 75/61/1
f 70/59/1 69/58/1 64/35/1
f 72/57/1 73/60/1 76/12/1
f 76/12/1 77/62/1 78/10/1
f 73/60/1 75/61/1 76/12/1
f 69/58/1 71/54/1 68/37/1
f 82/56/1 84/53/1 81/11/1
f 93/38/1 71/54/1 72/57/1
f 72/57/1 76/12/1 92/44/1
f 78/10/1 79/63/1 80/64/1
f 80/64/1 81/11/1 78/10/1
f 86/49/1 92/44/1 81/11/1
f 76/12/1 81/11/1 92/44/1
f 105/65/1 100/66/1 28/6/1
f 28/6/1 27/5/1 101/67/1
f 104/68/1 105/65/1 28/6/1
f 28/6/1 101/67/1 102/13/1
f 103/14/1 104/68/1 28/6/1
f 70/59/1 63/17/1 117/69/1
f 117/69/1 110/18/1 115/20/1
f 75/61/1 74/19/1 110/18/1
f 115/20/1 70/59/1 117/69/1
f 110/18/1 117/69/1 28/6/1
f 28/6/1 100/66/1 119/21/1
usemtl ceiling
f 1/70/2 2/71/2 3/72/2
f 4/73/2 1/70/2 3/72/2
f 1/74/3 5/75/3 2/76/3
f 3/77/4 2/78/4 6/79/4
f 4/73/5 3/72/5 7/80/5
f 5/75/3 9/81/3 2/76/3
f 15/82/4 3/77/4 6/79/4
f 2/78/4 9/83/4 6/79/4
f 16/84/5 4/73/5 7/80/5
f 7/85/4 19/86/4 20/87/4
f 9/71/6 5/70/6 8/88/6
f 6/79/4 29/89/4 10/90/4
f 38/91/4 54/92/4 58/93/4
f 6/94/6 9/71/6 8/88/6
f 16/95/7 7/96/7 62/97/7
f 22/98/4 62/99/4 7/85/4
f 106/100/3 29/101/3 6/81/3
f 29/89/4 107/102/4 10/90/4
f 112/103/4 56/104/4 109/105/4
f 74/106/2 56/107/2 112/108/2
f 72/109/7 58/110/7 57/111/7
f 72/112/6 71/113/6 59/108/6
f 70/114/3 60/115/3 59/110/3
f 8/75/3 106/100/3 6/81/3
f 116/116/7 16/95/7 62/97/7
f 116/84/6 62/80/6 22/117/6
f 106/88/2 123/70/2 29/94/2
f 29/89/4 124/118/4 107/102/4
f 10/90/4 107/102/4 125/119/4
f 10/90/4 121/120/4 120/121/4
f 111/122/6 10/72/6 117/123/6
f 111/124/1 126/125/1 22/97/1
f 63/126/6 116/84/6 22/117/6
f 127/127/4 117/128/4 63/116/4
f 10/72/6 28/73/6 117/123/6
f 123/70/2 124/71/2 29/94/2
f 122/128/3 107/124/3 124/101/3
f 10/124/7 125/129/7 129/130/7
f 107/102/4 130/131/4 125/119/4
f 111/124/7 117/128/7 127/127/7
f 126/125/7 111/124/7 127/127/7
f 126/132/4 131/133/4 22/98/4
f 22/97/8 132/134/8 63/116/8
f 28/128/7 10/124/7 129/130/7
f 122/128/3 128/130/3 130/129/3
f 123/100/3 122/128/3 124/101/3
f 107/124/3 122/128/3 130/129/3
f 129/73/6 125/72/6 130/71/6
f 127/127/9 134/135/9 126/125/9
f 126/132/4 135/136/4 131/133/4
f 131/133/4 136/137/4 22/98/4
f 137/138/4 132/139/4 22/98/4
f 132/134/8 138/140/8 63/116/8
f 133/141/1 134/135/1 127/127/1
f 128/70/6 129/73/6 130/71/6
f 134/135/9 135/142/9 126/125/9
f 131/143/10 135/142/10 133/141/10
f 136/144/11 131/143/11 139/145/11
f 136/137/4 137/138/4 22/98/4
f 132/134/12 137/146/12 138/140/12
f 131/143/11 133/141/11 139/145/11
f 135/142/10 134/135/10 133/141/10
f 136/144/13 139/145/13 140/147/13
f 137/146/13 136/144/13 140/147/13
f 137/146/12 140/147/12 138/140/12
f 66/148/6 19/149/6 18/150/6
f 68/151/7 17/152/7 61/153/7
f 65/154/3 20/153/3 19/155/3
f 64/156/2 21/157/2 20/149/2
f 6/79/4 10/90/4 11/158/4
f 14/159/4 15/82/4 6/79/4
f 6/79/4 11/158/4 12/160/4
f 13/161/4 14/159/4 6/79/4
f 6/79/4 12/160/4 13/161/4
f 3/77/4 17/162/4 18/163/4
f 20/87/4 21/164/4 22/98/4
f 7/85/4 3/77/4 18/163/4
f 20/87/4 22/98/4 7/85/4
f 7/85/4 18/163/4 19/86/4
f 3/77/4 15/82/4 31/165/4
f 61/166/4 17/162/4 59/167/4
f 22/98/4 21/164/4 60/168/4
f 59/167/4 60/168/4 61/166/4
f 55/169/4 56/104/4 57/170/4
f 58/93/4 59/167/4 37/171/4
f 55/169/4 57/170/4 54/92/4
f 52/172/4 53/173/4 54/92/4
f 54/92/4 57/170/4 58/93/4
f 60/168/4 21/164/4 61/166/4
f 3/77/4 31/165/4 32/174/4
f 59/167/4 17/162/4 37/171/4
f 52/172/4 54/92/4 49/175/4
f 50/176/4 51/177/4 52/172/4
f 48/178/4 49/175/4 46/179/4
f 46/179/4 47/180/4 48/178/4
f 44/181/4 45/182/4 46/179/4
f 42/183/4 43/184/4 44/181/4
f 40/185/4 41/186/4 42/183/4
f 38/91/4 39/187/4 42/183/4
f 3/77/4 32/174/4 33/188/4
f 39/187/4 40/185/4 42/183/4
f 3/77/4 33/188/4 34/189/4
f 38/91/4 42/183/4 44/181/4
f 3/77/4 34/189/4 35/190/4
f 38/91/4 44/181/4 49/175/4
f 3/77/4 35/190/4 36/191/4
f 44/181/4 46/179/4 49/175/4
f 3/77/4 36/191/4 37/171/4
f 38/91/4 49/175/4 54/92/4
f 17/162/4 3/77/4 37/171/4
f 49/175/4 50/176/4 52/172/4
f 58/93/4 37/171/4 38/91/4
f 111/192/4 22/98/4 60/168/4
f 113/193/4 114/194/4 10/90/4
f 111/192/4 60/168/4 112/103/4
f 109/105/4 113/193/4 10/90/4
f 111/192/4 112/103/4 109/105/4
f 109/105/4 10/90/4 111/192/4
f 56/104/4 55/169/4 109/105/4
f 112/108/2 115/113/2 74/106/2
f 74/106/2 73/112/2 57/195/2
f 57/195/2 56/107/2 74/106/2
f 73/196/7 72/109/7 57/111/7
f 58/195/6 72/112/6 59/108/6
f 59/110/3 71/109/3 70/114/3
f 70/114/3 115/196/3 112/111/3
f 112/111/3 60/115/3 70/114/3
f 30/197/4 11/158/4 10/90/4
f 10/90/4 114/194/4 118/198/4
f 108/199/4 30/197/4 10/90/4
f 10/90/4 118/198/4 121/120/4
f 120/121/4 108/199/4 10/90/4
f 67/200/6 66/148/6 18/150/6
f 61/153/7 69/154/7 68/151/7
f 68/151/7 67/201/7 18/155/7
f 18/155/7 17/152/7 68/151/7
f 66/201/3 65/154/3 19/155/3
f 20/149/2 65/148/2 64/156/2
f 64/156/2 69/200/2 61/150/2
f 61/150/2 21/157/2 64/156/2
s 1
f 12/202/14 26/203/15 25/204/16
f 13/205/17 25/204/16 24/206/18
f 11/207/19 30/208/20 27/209/21
f 31/210/22 99/211/23 98/212/24
f 32/213/25 98/212/24 97/214/26
f 33/215/27 97/214/26 96/216/28
f 34/217/29 96/216/28 95/218/30
f 35/219/31 95/218/30 94/220/32
f 36/221/33 94/220/32 93/222/34
f 37/223/35 93/222/34 92/224/36
f 39/225/37 38/226/38 92/224/36
f 40/227/39 39/225/37 91/228/40
f 41/229/41 40/227/39 90/230/42
f 42/231/43 41/229/41 89/232/44
f 42/231/43 88/233/45 87/234/46
f 43/235/47 87/234/46 86/236/48
f 45/237/49 44/238/50 86/236/48
f 45/237/49 85/239/51 84/204/52
f 46/205/53 84/204/52 83/240/54
f 47/241/55 83/240/54 82/242/56
f 48/243/57 82/242/56 81/244/58
f 49/245/59 81/244/58 80/246/60
f 50/247/61 80/246/60 79/248/62
f 51/249/63 79/248/62 78/250/64
f 52/251/65 78/250/64 77/252/66
f 53/253/67 77/252/66 76/254/68
f 55/255/69 75/256/70 110/257/71
f 15/258/72 14/259/73 23/260/74
f 114/261/75 100/262/76 105/263/77
f 108/264/78 102/265/79 101/266/80
f 120/267/81 103/268/82 102/265/79
f 121/269/83 104/270/84 103/268/82
f 121/269/83 118/271/85 105/263/77
f 113/272/86 109/273/87 110/257/71
f 13/205/17 12/202/14 25/204/16
f 14/259/73 13/205/17 24/206/18
f 27/209/21 26/203/15 12/202/14
f 12/202/14 11/207/19 27/209/21
f 30/208/20 101/266/80 27/209/21
f 32/213/25 31/210/22 98/212/24
f 33/215/27 32/213/25 97/214/26
f 34/217/29 33/215/27 96/216/28
f 35/219/31 34/217/29 95/218/30
f 36/221/33 35/219/31 94/220/32
f 37/223/35 36/221/33 93/222/34
f 38/226/38 37/223/35 92/224/36
f 91/228/40 39/225/37 92/224/36
f 90/230/42 40/227/39 91/228/40
f 89/232/44 41/229/41 90/230/42
f 88/233/45 42/231/43 89/232/44
f 43/235/47 42/231/43 87/234/46
f 44/238/50 43/235/47 86/236/48
f 85/239/51 45/237/49 86/236/48
f 46/205/53 45/237/49 84/204/52
f 47/241/55 46/205/53 83/240/54
f 48/243/57 47/241/55 82/242/56
f 49/245/59 48/243/57 81/244/58
f 50/247/61 49/245/59 80/246/60
f 51/249/63 50/247/61 79/248/62
f 52/251/65 51/249/63 78/250/64
f 53/253/67 52/251/65 77/252/66
f 54/274/88 53/253/67 76/254/68
f 110/257/71 109/273/87 55/255/69
f 55/255/69 54/274/88 76/254/68
f 76/254/68 75/256/70 55/255/69
f 23/260/74 99/211/23 31/210/22
f 31/210/22 15/258/72 23/260/74
f 14/259/73 24/206/18 23/260/74
f 105/263/77 118/271/85 114/261/75
f 114/261/75 113/272/86 119/275/89
f 119/275/89 100/262/76 114/261/75
f 30/208/20 108/264/78 101/266/80
f 108/264/78 120/267/81 102/265/79
f 120/267/81 121/269/83 103/268/82
f 104/270/84 121/269/83 105/263/77
f 119/275/89 113/272/86 110/257/71
