# Blender v2.76 (sub 0) OBJ File: 'Baker_home_10.blend'
# www.blender.org
mtllib cave2_rdc.mtl
o Cave2_RDC_Cube.037
v 8.228851 -0.500000 -20.105623
v 8.201744 -0.500000 -17.790924
v 8.200580 -0.500000 -17.695206
v 8.129642 -0.500000 -17.695206
v 8.129642 -0.500000 -20.105623
v 8.129642 -0.481292 -20.105623
v 11.305764 -0.500000 -20.120613
v 11.278657 -0.500000 -17.805914
v 8.201846 2.062649 -17.790924
v 8.200681 2.062649 -17.695206
v 8.129642 2.062649 -20.105623
v 8.228851 2.062649 -20.105623
v 11.278759 2.062649 -17.805914
v 11.305764 2.062649 -20.120613
v 11.286807 1.230905 -18.497864
v 8.201868 2.600013 -17.790924
v 8.200703 2.600013 -17.695206
v 8.129642 2.600013 -20.105623
v 8.228851 2.600013 -20.105623
v 11.278781 2.599966 -17.805914
v 11.305764 2.599966 -20.120613
v 11.299581 2.062649 -19.590149
v 11.297960 1.921902 -19.451197
v 11.297946 1.230905 -19.451195
v 8.192593 2.600013 -17.695206
v 8.129642 2.600013 -17.695206
v 11.281931 2.062649 -18.077484
v 11.290753 2.062649 -18.834700
v 11.286821 1.921902 -18.497864
v 10.980805 1.230905 -19.445320
v 10.967240 1.230905 -18.491943
v 11.285152 2.062649 -18.354235
v 10.967257 1.921902 -18.491943
v 10.980823 1.921902 -19.445320
v 10.986856 0.000000 -19.870640
v 10.982599 2.062649 -19.570530
v 10.973027 2.062649 -18.897816
v 10.985110 2.062649 -19.747911
v 10.965401 2.062649 -18.360605
v 10.962766 2.062649 -18.174540
v 10.960833 0.000000 -18.045803
v 10.986856 2.062649 -19.870640
v 10.986856 2.400000 -19.870640
v 10.960951 2.400000 -18.045803
v 10.960935 2.062649 -18.045803
v 8.129642 0.000000 -18.032421
v 8.224034 0.000000 -19.857525
v 8.224034 0.000000 -18.781445
v 8.129642 0.000000 -18.781445
v 8.224034 2.062649 -19.857525
v 8.129642 2.062649 -18.032421
v 8.224034 2.062649 -18.781445
v 8.129642 2.062649 -18.781445
v 8.224034 2.400000 -19.857525
v 8.129642 2.400000 -18.781445
v 8.224034 2.400000 -18.781445
v 8.129642 2.400000 -18.032421
vn 0.000000 -1.000000 0.000000
vn 0.000000 0.000000 -1.000000
vn 0.999900 -0.000000 0.012200
vn 0.004900 -0.000000 1.000000
vn -0.004900 0.000000 -1.000000
vn 0.999900 -0.000000 0.011700
vn 0.000000 1.000000 -0.000000
vn 0.999900 -0.000000 0.011600
vn 0.018500 0.000000 0.999800
vn -0.018500 0.000000 -0.999800
vn -0.999900 -0.000000 -0.014200
vn -0.999900 0.000100 -0.014200
vn -0.999900 0.000000 -0.014300
vn 0.004700 0.000000 1.000000
vn -0.004700 0.000000 -1.000000
vn 1.000000 0.000000 0.000000
vn 0.000000 0.000000 1.000000
vn -1.000000 0.000000 0.000000
usemtl Matiere
s off
f 2//1 4//1 5//1
f 6//2 1//2 5//2
f 1//1 7//1 8//1
f 2//3 9//3 10//3
f 12//2 1//2 6//2
f 9//4 2//4 8//4
f 7//5 1//5 12//5
f 9//3 16//3 17//3
f 19//2 12//2 11//2
f 13//4 20//4 16//4
f 7//6 24//6 15//6
f 12//5 19//5 21//5
f 23//6 7//6 14//6
f 17//7 16//7 25//7
f 26//7 25//7 16//7
f 27//6 20//6 13//6
f 19//7 16//7 20//7
f 14//6 21//6 22//6
f 28//6 29//6 23//6
f 15//7 24//7 30//7
f 32//8 20//8 27//8
f 28//6 21//6 20//6
f 27//8 15//8 29//8
f 22//6 21//6 28//6
f 32//6 29//6 28//6
f 29//1 33//1 34//1
f 24//9 23//9 34//9
f 15//10 31//10 33//10
f 34//11 33//11 37//11
f 38//11 30//11 34//11
f 33//11 31//11 40//11
f 37//11 43//11 36//11
f 37//12 33//12 39//12
f 36//11 43//11 38//11
f 41//13 31//13 35//13
f 40//11 44//11 39//11
f 35//7 47//7 48//7
f 47//14 35//14 42//14
f 44//12 43//12 37//12
f 38//11 43//11 42//11
f 45//12 44//12 40//12
f 51//15 45//15 41//15
f 48//16 47//16 50//16
f 48//17 52//17 53//17
f 43//14 54//14 50//14
f 56//1 44//1 57//1
f 57//15 44//15 45//15
f 54//16 56//16 52//16
f 52//17 56//17 55//17
f 4//17 10//17 26//17
f 26//18 51//18 4//18
f 49//18 11//18 6//18
f 5//1 1//1 2//1
f 2//1 3//1 4//1
f 2//1 1//1 8//1
f 3//3 2//3 10//3
f 11//2 12//2 6//2
f 13//4 9//4 8//4
f 14//5 7//5 12//5
f 10//3 9//3 17//3
f 18//2 19//2 11//2
f 9//4 13//4 16//4
f 7//6 23//6 24//6
f 27//6 13//6 15//6
f 8//6 7//6 15//6
f 15//6 13//6 8//6
f 14//5 12//5 21//5
f 22//6 23//6 14//6
f 16//7 19//7 18//7
f 18//7 26//7 16//7
f 21//7 19//7 20//7
f 22//6 28//6 23//6
f 31//7 15//7 30//7
f 32//6 28//6 20//6
f 32//8 27//8 29//8
f 23//1 29//1 34//1
f 30//9 24//9 34//9
f 29//10 15//10 33//10
f 36//11 34//11 37//11
f 36//11 38//11 34//11
f 39//11 33//11 40//11
f 30//11 38//11 42//11
f 41//11 45//11 31//11
f 30//11 42//11 35//11
f 45//11 40//11 31//11
f 30//11 35//11 31//11
f 49//7 46//7 48//7
f 41//7 35//7 48//7
f 48//7 46//7 41//7
f 50//14 47//14 42//14
f 39//12 44//12 37//12
f 46//15 51//15 41//15
f 52//16 48//16 50//16
f 49//17 48//17 53//17
f 42//14 43//14 50//14
f 57//1 55//1 56//1
f 56//1 54//1 43//1
f 43//1 44//1 56//1
f 51//15 57//15 45//15
f 50//16 54//16 52//16
f 53//17 52//17 55//17
f 25//17 26//17 10//17
f 4//17 3//17 10//17
f 10//17 17//17 25//17
f 18//18 53//18 55//18
f 46//18 4//18 51//18
f 26//18 18//18 55//18
f 57//18 51//18 26//18
f 26//18 55//18 57//18
f 6//18 5//18 49//18
f 4//18 46//18 49//18
f 49//18 53//18 11//18
f 18//18 11//18 53//18
f 5//18 4//18 49//18
