# Blender v2.76 (sub 0) OBJ File: 'rdcc_3.blend'
# www.blender.org
mtllib cave1_rdc.mtl
o Cave1_RDC_Cube.015
v 2.017160 -0.500000 -1.660224
v 2.017160 -0.500000 1.393079
v -2.236128 -0.500000 1.393079
v -2.236128 -0.500000 -1.660224
v -1.025081 0.000000 1.393079
v -1.025081 0.000000 1.342268
v 0.508636 0.000000 1.351464
v 0.509891 0.000000 1.103894
v 0.917760 0.000000 1.105962
v 0.916505 0.000000 1.353532
v 1.925054 0.000000 1.358644
v 1.967701 0.000000 -1.586962
v 0.935982 0.000000 -1.586962
v 0.935982 0.000000 -1.415991
v 0.535086 0.000000 -1.415991
v 0.535086 0.000000 -1.586962
v -2.135592 0.000000 -1.616440
v -2.135592 0.000000 1.302887
v -1.873830 0.000000 1.302887
v -1.873830 0.000000 1.393079
v -1.025081 2.062649 1.393079
v -1.025081 2.062649 1.342268
v 0.508636 2.062649 1.351464
v 0.509891 2.062649 1.103894
v 0.917760 2.062649 1.105962
v 0.916505 2.062649 1.353532
v 1.925054 2.062649 1.358644
v 1.967701 2.062649 -1.586962
v 0.935982 2.062649 -1.586962
v 0.935982 2.062649 -1.415991
v 0.535086 2.062649 -1.415991
v 0.535086 2.062649 -1.586962
v -2.135592 2.062649 -1.616440
v -2.135592 2.062649 1.302887
v -1.873830 2.062649 1.302887
v -1.873830 2.062649 1.393079
v -1.025081 2.400000 1.393079
v -1.025081 2.400000 1.342268
v 0.508636 2.400000 1.351464
v 0.509891 2.400000 1.103894
v 0.917760 2.400000 1.105962
v 0.916505 2.400000 1.353532
v 1.925054 2.400000 1.358644
v 1.967701 2.400000 -1.586962
v 0.935982 2.400000 -1.586962
v 0.935982 2.400000 -1.415991
v 0.535086 2.400000 -1.415991
v 0.535086 2.400000 -1.586962
v -2.135592 2.400000 -1.616440
v -2.135592 2.400000 1.302887
v -1.873830 2.400000 1.302887
v -1.873830 2.400000 1.393079
v 2.017160 2.600013 1.393079
v 2.017160 2.600013 -1.660224
v -2.236128 2.600013 -1.660224
v -2.236128 2.600013 1.393079
vt 0.578866 0.531324
vt 0.578866 -0.500000
vt 0.553461 -0.500000
vt 0.754318 -0.500000
vt -0.012540 -0.500000
vt -0.012540 0.531324
vt 0.698053 -0.500000
vt 0.574268 -0.500000
vt 0.574268 0.531324
vt 0.958880 -0.500000
vt 0.754945 -0.500000
vt 0.754945 0.531324
vt 0.573234 -0.500000
vt 0.697019 -0.500000
vt 0.697019 0.531324
vt 0.462527 -0.500000
vt -0.041748 -0.500000
vt -0.041748 0.531324
vt 0.043481 -0.500000
vt -1.429322 -0.500000
vt -1.429322 0.531324
vt 0.967991 -0.500000
vt 1.483850 -0.500000
vt 1.483850 0.531324
vt 0.957995 -0.500000
vt 1.043481 -0.500000
vt 1.043481 0.531324
vt 0.767543 -0.500000
vt 0.967991 0.531324
vt -0.042005 -0.500000
vt -0.042005 0.531324
vt 0.432204 -0.500000
vt 1.767543 -0.500000
vt 1.767543 0.531324
vt 0.598557 -0.500000
vt 2.058220 -0.500000
vt 2.058220 0.531324
vt 0.563085 -0.500000
vt 0.432204 0.531324
vt 0.598557 0.500000
vt 0.598557 1.531324
vt 0.553461 1.531324
vt 0.578866 0.700000
vt 0.553461 0.531324
vt 0.987460 0.700000
vt 1.754318 0.700000
vt 1.754318 0.531324
vt 0.574268 0.700000
vt 0.698053 0.700000
vt 0.698053 0.531324
vt 0.754945 0.700000
vt 0.958880 0.700000
vt 0.958880 0.531324
vt 0.697019 0.700000
vt 0.573234 0.700000
vt 0.573234 0.531324
vt 0.958252 0.700000
vt 1.462527 0.700000
vt 1.462527 0.531324
vt 0.570678 0.700000
vt 2.043481 0.700000
vt 2.043481 0.531324
vt 0.483850 0.700000
vt -0.032009 0.700000
vt -0.032009 0.531324
vt 0.043481 0.700000
vt -0.042005 0.700000
vt 0.967991 0.700000
vt 0.767543 0.700000
vt 0.767543 0.531324
vt 0.957995 0.700000
vt 1.043481 0.700000
vt -0.567796 0.700000
vt -0.567796 0.531324
vt 0.058220 0.700000
vt -1.401443 0.700000
vt -1.401443 0.531324
vt 0.432204 0.700000
vt 0.563085 0.700000
vt 0.563085 0.531324
vt 0.598557 0.531324
vt 0.598557 0.700000
vt 0.553461 0.700000
vt 0.381936 1.800007
vt 2.508580 1.800007
vt 2.508580 0.250000
vt 0.080112 -0.750000
vt -1.446539 -0.750000
vt -1.446539 0.800007
vt 0.553461 -0.750000
vt 2.080112 -0.750000
vt 2.080112 0.800007
vt 0.987460 1.531324
vt 0.987460 0.500000
vt 0.563085 1.700000
vt 0.563085 1.531324
vt 0.754318 0.531324
vt 0.462527 0.531324
vt 0.043481 0.531324
vt 0.957995 0.531324
vt 0.553461 0.500000
vt 0.987460 0.531324
vt 0.958252 0.531324
vt 0.570678 0.531324
vt 0.483850 0.531324
vt 0.058220 0.531324
vt 0.381936 0.250000
vt 0.080112 0.800007
vt 0.553461 0.800007
vt 0.563085 0.500000
vt 0.987460 1.700000
vt 0.508580 -1.446539
vt -1.618064 -1.446539
vt -1.618064 0.080112
vt 1.754945 0.698053
vt 1.767543 1.957995
vt 0.987460 0.578866
vt 1.967991 1.957995
vt 1.958880 0.697019
vt 0.508580 2.080112
vt -1.618064 2.080112
vt -1.618064 0.553461
vt 0.508580 0.080112
vt 0.563085 0.553461
vt 0.987460 0.553461
vt 1.754318 0.574268
vt 1.958252 0.573234
vt 2.462527 0.570678
vt 0.563085 0.598557
vt 2.483850 2.043481
vt 0.432204 2.058220
vt 1.967991 2.043481
vt 1.767543 2.043481
vt 0.432204 0.598557
vt 0.508580 0.553461
vn -1.000000 0.000000 0.000000
vn 0.006000 0.000000 -1.000000
vn -1.000000 0.000000 -0.005100
vn 0.005100 0.000000 -1.000000
vn 1.000000 0.000000 0.005100
vn -0.999900 0.000000 -0.014500
vn 0.000000 0.000000 1.000000
vn 1.000000 0.000000 0.000000
vn -0.011000 0.000000 0.999900
vn 0.000000 0.000000 -1.000000
vn 0.000000 -1.000000 0.000000
vn -0.000000 1.000000 -0.000000
usemtl greyDWall
s off
f 22/1/1 6/2/1 5/3/1
f 7/4/2 6/5/2 22/6/2
f 8/7/3 7/8/3 23/9/3
f 9/10/4 8/11/4 24/12/4
f 10/13/5 9/14/5 25/15/5
f 11/16/4 10/17/4 26/18/4
f 12/19/6 11/20/6 27/21/6
f 13/22/7 12/23/7 28/24/7
f 14/25/8 13/26/8 29/27/8
f 15/28/7 14/22/7 30/29/7
f 16/19/1 15/30/1 31/31/1
f 17/32/9 16/33/9 32/34/9
f 18/35/8 17/36/8 33/37/8
f 19/38/10 18/32/10 34/39/10
f 19/40/8 35/41/8 36/42/8
f 38/43/1 22/1/1 21/44/1
f 38/45/2 39/46/2 23/47/2
f 39/48/3 40/49/3 24/50/3
f 40/51/4 41/52/4 25/53/4
f 41/54/5 42/55/5 26/56/5
f 42/57/4 43/58/4 27/59/4
f 43/60/6 44/61/6 28/62/6
f 44/63/7 45/64/7 29/65/7
f 45/66/8 46/67/8 30/31/8
f 46/68/7 47/69/7 31/70/7
f 47/71/1 48/72/1 32/27/1
f 48/69/9 49/73/9 33/74/9
f 49/75/8 50/76/8 34/77/8
f 50/78/10 51/79/10 35/80/10
f 35/81/8 51/82/8 52/83/8
f 55/84/10 54/85/10 1/86/10
f 4/87/1 3/88/1 56/89/1
f 2/90/8 1/91/8 54/92/8
f 2/86/7 21/93/7 5/94/7
f 52/95/7 56/84/7 36/96/7
f 21/44/1 22/1/1 5/3/1
f 23/97/2 7/4/2 22/6/2
f 24/50/3 8/7/3 23/9/3
f 25/53/4 9/10/4 24/12/4
f 26/56/5 10/13/5 25/15/5
f 27/98/4 11/16/4 26/18/4
f 28/99/6 12/19/6 27/21/6
f 29/29/7 13/22/7 28/24/7
f 30/100/8 14/25/8 29/27/8
f 31/70/7 15/28/7 30/29/7
f 32/99/1 16/19/1 31/31/1
f 33/39/9 17/32/9 32/34/9
f 34/81/8 18/35/8 33/37/8
f 35/80/10 19/38/10 34/39/10
f 20/101/8 19/40/8 36/42/8
f 37/83/1 38/43/1 21/44/1
f 22/102/2 38/45/2 23/47/2
f 23/9/3 39/48/3 24/50/3
f 24/12/4 40/51/4 25/53/4
f 25/15/5 41/54/5 26/56/5
f 26/103/4 42/57/4 27/59/4
f 27/104/6 43/60/6 28/62/6
f 28/105/7 44/63/7 29/65/7
f 29/99/8 45/66/8 30/31/8
f 30/29/7 46/68/7 31/70/7
f 31/100/1 47/71/1 32/27/1
f 32/70/9 48/69/9 33/74/9
f 33/106/8 49/75/8 34/77/8
f 34/39/10 50/78/10 35/80/10
f 36/44/8 35/81/8 52/83/8
f 4/107/10 55/84/10 1/86/10
f 55/108/1 4/87/1 56/89/1
f 53/109/8 2/90/8 54/92/8
f 5/94/7 20/110/7 3/107/7
f 2/86/7 53/85/7 21/93/7
f 5/94/7 3/107/7 2/86/7
f 37/111/7 21/93/7 53/85/7
f 3/107/7 20/110/7 36/96/7
f 52/95/7 37/111/7 56/84/7
f 3/107/7 36/96/7 56/84/7
f 37/111/7 53/85/7 56/84/7
usemtl ceiling
f 2/112/11 3/113/11 4/114/11
f 8/115/12 15/116/12 6/117/12
f 46/118/11 41/119/11 47/116/11
f 54/120/12 55/121/12 56/122/12
f 1/123/11 2/112/11 4/114/11
f 20/124/12 5/125/12 6/117/12
f 6/117/12 7/126/12 8/115/12
f 9/119/12 10/127/12 11/128/12
f 20/124/12 6/117/12 19/129/12
f 9/119/12 11/128/12 12/130/12
f 19/129/12 6/117/12 17/131/12
f 8/115/12 9/119/12 15/116/12
f 12/130/12 13/132/12 14/118/12
f 15/116/12 16/133/12 17/131/12
f 9/119/12 12/130/12 14/118/12
f 15/116/12 17/131/12 6/117/12
f 9/119/12 14/118/12 15/116/12
f 18/134/12 19/129/12 17/131/12
f 37/125/11 52/124/11 38/117/11
f 51/129/11 50/134/11 49/131/11
f 49/131/11 48/133/11 47/116/11
f 46/118/11 45/132/11 44/130/11
f 51/129/11 49/131/11 38/117/11
f 46/118/11 44/130/11 41/119/11
f 49/131/11 47/116/11 38/117/11
f 38/117/11 52/124/11 51/129/11
f 40/115/11 39/126/11 38/117/11
f 43/128/11 42/127/11 41/119/11
f 40/115/11 38/117/11 47/116/11
f 44/130/11 43/128/11 41/119/11
f 40/115/11 47/116/11 41/119/11
f 53/135/12 54/120/12 56/122/12
