# Blender v2.76 (sub 0) OBJ File: 'rdcc_2.blend'
# www.blender.org
mtllib chambre1_rdc.mtl
o Chambre1_RDC_Cube.010
v -2.152098 -0.500000 1.351735
v -2.152098 -0.500000 -1.583033
v 0.256487 -0.500000 -1.583033
v 2.574529 -0.500000 -1.583033
v 2.574529 -0.500000 1.351735
v 0.256487 -0.500000 1.351735
v -2.152098 0.231908 1.351735
v -2.152098 0.231908 0.559171
v -2.152098 0.231908 -0.235181
v -2.152098 0.231908 -1.583033
v -2.152098 1.819499 1.351735
v -2.152098 1.530018 0.559171
v -2.152098 1.050372 0.559171
v -1.850647 0.231908 0.559171
v -1.850647 0.231908 -0.235181
v -2.152098 1.050372 -0.235181
v -2.152098 1.530018 -0.235181
v -2.152098 2.046668 -1.583033
v -2.152098 2.062649 1.351735
v -2.152098 2.062649 0.559171
v -1.850647 1.050372 0.559171
v -1.850647 1.050372 -0.235181
v -1.850647 0.231908 1.234593
v -1.850647 0.000000 1.234593
v -1.850647 -0.000000 -1.533199
v -1.850647 0.231908 -1.533199
v -1.850647 1.530018 0.559171
v -1.850647 1.530018 -0.235181
v -2.152098 2.062649 -0.235181
v -2.152098 2.062649 -1.583033
v -2.152098 2.600013 1.351735
v -2.152098 2.600013 -1.583033
v -2.152098 2.348482 -0.235181
v -2.152098 2.348482 0.559171
v -1.850647 2.062649 0.559171
v -1.850647 2.062649 1.234593
v -1.850647 2.062649 -0.235181
v -1.850647 2.062649 -1.533199
v -0.829340 2.062649 1.234593
v -0.829340 0.000000 1.234593
v 2.574529 -0.000000 -0.924072
v 2.539022 -0.000000 -0.924072
v 2.539022 -0.000000 -1.295491
v 2.287695 -0.000000 -1.295491
v 2.287695 -0.000000 -1.533199
v 1.965091 -0.000000 -1.533199
v -0.346454 -0.000000 -1.533199
v -0.346454 -0.000000 -1.288700
v -0.804890 -0.000000 -1.288700
v -0.804890 -0.000000 -1.533199
v -0.370903 0.000000 1.234593
v 1.940641 0.000000 1.234593
v 2.263245 0.000000 1.234593
v 2.514572 0.000000 1.234593
v 2.531551 0.000000 -0.119019
v 2.574529 0.000000 -0.119019
v -0.804890 2.062649 -1.533199
v 0.256487 2.600013 1.351735
v 2.574529 2.600013 1.351735
v 2.574529 2.600013 -1.583033
v 0.256487 2.600013 -1.583033
v -1.850647 2.348482 -0.235181
v -1.850647 2.348482 0.559171
v -1.850647 2.348482 1.234593
v -1.850647 2.348482 -1.533199
v -1.850647 2.400000 1.234593
v -0.829340 2.400000 1.234593
v -0.370903 2.062649 1.234593
v 2.574529 2.062649 -0.924072
v 2.539022 2.062649 -0.924072
v 2.539022 2.062649 -1.295491
v 2.287695 2.062649 -1.295491
v 2.287695 2.062649 -1.533199
v 1.965091 2.062649 -1.533199
v -0.346454 2.062649 -1.533199
v -0.346454 2.062649 -1.288700
v -0.804890 2.062649 -1.288700
v 1.940641 2.062649 1.234593
v 2.263245 2.062649 1.234593
v 2.514572 2.062649 1.234593
v 2.531551 2.062649 -0.119019
v 2.574529 2.062649 -0.119019
v -0.804890 2.400000 -1.533199
v -1.850647 2.400000 -1.533199
v 2.574529 2.400000 -0.119019
v 2.531551 2.400000 -0.119019
v 2.514572 2.400000 1.234593
v 2.263245 2.400000 1.234593
v 1.940641 2.400000 1.234593
v -0.370903 2.400000 1.234593
v -0.804890 2.400000 -1.288700
v -0.346454 2.400000 -1.288700
v -0.346454 2.400000 -1.533199
v 1.965091 2.400000 -1.533199
v 2.287695 2.400000 -1.533199
v 2.287695 2.400000 -1.295491
v 2.539022 2.400000 -1.295491
v 2.539022 2.400000 -0.924072
v 2.574529 2.400000 -0.924072
vt -6.197899 -6.520605
vt 7.174225 -6.520605
vt -0.056478 -3.185700
vt 3.562945 0.543589
vt 3.562945 -3.185700
vt 7.174225 -3.185700
vt -0.056478 0.543589
vt -0.056478 2.729073
vt -6.197899 5.083165
vt 3.562945 5.155974
vt 3.562945 2.729073
vt 7.174225 4.048078
vt 6.640470 -4.242379
vt -0.056478 5.155974
vt 7.174225 7.604451
vt -0.056478 6.458364
vt 3.562945 6.458364
vt 6.640470 -3.185700
vt 6.640470 5.155974
vt -5.970837 5.155974
vt -4.856786 -4.242381
vt 0.472805 -4.242379
vt -5.970837 -3.185700
vt -5.970837 -4.242381
vt -6.197899 7.604451
vt 6.640470 6.458364
vt -5.970837 6.458364
vt 6.640470 6.693103
vt -3.195381 5.155974
vt -3.195381 -4.242381
vt -4.887734 -4.242381
vt -4.887734 5.155974
vt -4.856786 5.155974
vt 0.472805 5.155974
vt -5.970837 6.693103
vt -4.856786 6.693103
vt 0.472805 6.693103
vt -3.195381 6.693103
vt -4.887734 6.693103
vt -6.197899 -3.185700
vt 7.174225 5.155974
vt -6.197899 5.155974
vt -0.014148 -1.472758
vt 0.652377 -1.472758
vt 0.652377 0.283596
vt -0.014148 0.980503
vt 0.652377 0.980503
vt 0.652377 -0.829166
vt 0.006883 -0.813819
vt 0.673408 -0.813819
vt 0.673408 0.995850
vt -0.014148 0.283596
vt 0.667724 -0.824820
vt 0.001200 -0.824820
vt 0.001200 0.352856
vt -0.014148 -2.381084
vt 0.652377 -2.381084
vt 0.652377 -1.203409
vt 0.667724 0.984849
vt 0.001200 0.984849
vt -0.014148 -1.203409
vt -0.014148 -0.571415
vt 0.652376 -0.571415
vt -0.014148 -0.829166
vt 0.006883 0.995850
vt 0.667724 0.352856
vn 0.000000 -1.000000 0.000000
vn -1.000000 0.000000 0.000000
vn 1.000000 0.000000 0.000000
vn 0.000000 0.000000 -1.000000
vn -0.000000 1.000000 -0.000000
vn 0.000000 0.000000 1.000000
vn -0.999900 0.000000 -0.012500
usemtl Ceramic
s off
f 3/1/1 4/1/1 6/2/1
f 9/3/2 2/1/2 1/2/2
f 13/4/2 8/5/2 7/6/2
f 16/7/2 17/8/2 18/9/2
f 20/10/2 12/11/2 11/12/2
f 24/13/3 15/3/3 14/5/3
f 18/9/2 17/8/2 29/14/2
f 31/15/2 33/16/2 34/17/2
f 23/18/3 21/4/3 36/19/3
f 28/8/3 22/7/3 38/20/3
f 40/13/4 23/18/4 39/19/4
f 48/21/5 52/13/5 55/22/5
f 26/23/6 50/24/6 57/20/6
f 58/15/5 59/15/5 61/25/5
f 63/17/3 64/26/3 36/19/3
f 65/27/5 63/17/5 62/16/5
f 64/26/4 67/28/4 39/19/4
f 51/13/4 40/13/4 39/19/4
f 70/29/6 42/30/6 41/30/6
f 43/31/2 42/30/2 70/29/2
f 44/31/6 43/31/6 71/32/6
f 45/24/2 44/31/2 72/32/2
f 46/24/6 45/24/6 73/20/6
f 47/24/6 46/24/6 74/20/6
f 48/21/3 47/24/3 75/20/3
f 49/21/6 48/21/6 76/33/6
f 50/24/2 49/21/2 77/33/2
f 52/13/4 51/13/4 68/19/4
f 53/13/4 52/13/4 78/19/4
f 54/13/4 53/13/4 79/19/4
f 55/22/7 54/13/7 80/19/7
f 55/22/4 81/34/4 82/34/4
f 83/35/6 65/27/6 57/20/6
f 66/28/3 64/26/3 63/17/3
f 92/36/1 94/35/1 86/37/1
f 67/28/4 90/28/4 68/19/4
f 98/38/6 70/29/6 69/29/6
f 98/38/2 97/39/2 71/32/2
f 97/39/6 96/39/6 72/32/6
f 96/39/2 95/35/2 73/20/2
f 95/35/6 94/35/6 74/20/6
f 94/35/6 93/35/6 75/20/6
f 93/35/3 92/36/3 76/33/3
f 92/36/6 91/36/6 77/33/6
f 91/36/2 83/35/2 57/20/2
f 90/28/4 89/28/4 78/19/4
f 89/28/4 88/28/4 79/19/4
f 88/28/4 87/28/4 80/19/4
f 87/28/7 86/37/7 81/34/7
f 81/34/4 86/37/4 85/37/4
f 69/29/3 4/1/3 60/25/3
f 5/2/3 56/22/3 82/34/3
f 59/15/6 58/15/6 6/2/6
f 61/25/4 60/25/4 4/1/4
f 58/15/6 11/12/6 6/2/6
f 10/40/4 18/9/4 61/25/4
f 6/2/1 1/2/1 2/1/1
f 2/1/1 3/1/1 6/2/1
f 4/1/1 5/2/1 6/2/1
f 1/2/2 7/6/2 8/5/2
f 8/5/2 9/3/2 1/2/2
f 10/40/2 2/1/2 9/3/2
f 7/6/2 11/12/2 13/4/2
f 12/11/2 13/4/2 11/12/2
f 18/9/2 10/40/2 16/7/2
f 16/7/2 13/4/2 12/11/2
f 10/40/2 9/3/2 16/7/2
f 16/7/2 12/11/2 17/8/2
f 19/41/2 20/10/2 11/12/2
f 14/5/3 23/18/3 24/13/3
f 24/13/3 25/24/3 15/3/3
f 26/23/3 15/3/3 25/24/3
f 30/42/2 18/9/2 29/14/2
f 32/25/2 30/42/2 33/16/2
f 20/10/2 19/41/2 34/17/2
f 30/42/2 29/14/2 33/16/2
f 34/17/2 19/41/2 31/15/2
f 31/15/2 32/25/2 33/16/2
f 35/10/3 36/19/3 27/11/3
f 23/18/3 14/5/3 21/4/3
f 21/4/3 27/11/3 36/19/3
f 38/20/3 37/14/3 28/8/3
f 28/8/3 27/11/3 21/4/3
f 22/7/3 15/3/3 26/23/3
f 28/8/3 21/4/3 22/7/3
f 26/23/3 38/20/3 22/7/3
f 36/19/4 39/19/4 23/18/4
f 40/13/4 24/13/4 23/18/4
f 56/22/5 41/30/5 42/30/5
f 42/30/5 43/31/5 44/31/5
f 44/31/5 45/24/5 46/24/5
f 46/24/5 47/24/5 48/21/5
f 49/21/5 50/24/5 25/24/5
f 44/31/5 46/24/5 55/22/5
f 49/21/5 25/24/5 24/13/5
f 42/30/5 44/31/5 55/22/5
f 48/21/5 49/21/5 51/13/5
f 24/13/5 40/13/5 49/21/5
f 51/13/5 52/13/5 48/21/5
f 53/13/5 54/13/5 55/22/5
f 55/22/5 56/22/5 42/30/5
f 46/24/5 48/21/5 55/22/5
f 40/13/5 51/13/5 49/21/5
f 53/13/5 55/22/5 52/13/5
f 57/20/6 38/20/6 26/23/6
f 26/23/6 25/24/6 50/24/6
f 61/25/5 32/25/5 31/15/5
f 31/15/5 58/15/5 61/25/5
f 59/15/5 60/25/5 61/25/5
f 35/10/3 63/17/3 36/19/3
f 37/14/3 38/20/3 65/27/3
f 62/16/3 37/14/3 65/27/3
f 39/19/4 36/19/4 64/26/4
f 64/26/4 66/28/4 67/28/4
f 68/19/4 51/13/4 39/19/4
f 69/29/6 70/29/6 41/30/6
f 71/32/2 43/31/2 70/29/2
f 72/32/6 44/31/6 71/32/6
f 73/20/2 45/24/2 72/32/2
f 74/20/6 46/24/6 73/20/6
f 75/20/6 47/24/6 74/20/6
f 76/33/3 48/21/3 75/20/3
f 77/33/6 49/21/6 76/33/6
f 57/20/2 50/24/2 77/33/2
f 78/19/4 52/13/4 68/19/4
f 79/19/4 53/13/4 78/19/4
f 80/19/4 54/13/4 79/19/4
f 81/34/7 55/22/7 80/19/7
f 56/22/4 55/22/4 82/34/4
f 38/20/6 57/20/6 65/27/6
f 83/35/6 84/35/6 65/27/6
f 63/17/3 65/27/3 84/35/3
f 84/35/3 66/28/3 63/17/3
f 99/38/1 85/37/1 98/38/1
f 86/37/1 87/28/1 88/28/1
f 88/28/1 89/28/1 86/37/1
f 90/28/1 91/36/1 92/36/1
f 66/28/1 84/35/1 91/36/1
f 92/36/1 93/35/1 94/35/1
f 84/35/1 83/35/1 91/36/1
f 92/36/1 86/37/1 89/28/1
f 66/28/1 91/36/1 67/28/1
f 89/28/1 90/28/1 92/36/1
f 85/37/1 86/37/1 98/38/1
f 96/39/1 97/39/1 98/38/1
f 98/38/1 86/37/1 96/39/1
f 67/28/1 91/36/1 90/28/1
f 94/35/1 95/35/1 96/39/1
f 96/39/1 86/37/1 94/35/1
f 39/19/4 67/28/4 68/19/4
f 99/38/6 98/38/6 69/29/6
f 70/29/2 98/38/2 71/32/2
f 71/32/6 97/39/6 72/32/6
f 72/32/2 96/39/2 73/20/2
f 73/20/6 95/35/6 74/20/6
f 74/20/6 94/35/6 75/20/6
f 75/20/3 93/35/3 76/33/3
f 76/33/6 92/36/6 77/33/6
f 77/33/2 91/36/2 57/20/2
f 68/19/4 90/28/4 78/19/4
f 78/19/4 89/28/4 79/19/4
f 79/19/4 88/28/4 80/19/4
f 80/19/7 87/28/7 81/34/7
f 82/34/4 81/34/4 85/37/4
f 59/15/3 85/37/3 60/25/3
f 99/38/3 69/29/3 60/25/3
f 41/30/3 4/1/3 69/29/3
f 60/25/3 85/37/3 99/38/3
f 82/34/3 85/37/3 59/15/3
f 5/2/3 4/1/3 56/22/3
f 82/34/3 59/15/3 5/2/3
f 4/1/3 41/30/3 56/22/3
f 5/2/6 59/15/6 6/2/6
f 3/1/4 61/25/4 4/1/4
f 1/2/6 6/2/6 7/6/6
f 58/15/6 31/15/6 19/41/6
f 19/41/6 11/12/6 58/15/6
f 7/6/6 6/2/6 11/12/6
f 32/25/4 61/25/4 30/42/4
f 3/1/4 2/1/4 10/40/4
f 18/9/4 30/42/4 61/25/4
f 3/1/4 10/40/4 61/25/4
usemtl Ceramic_Ceramic.jpg
f 8/43/5 14/44/5 15/45/5
f 13/46/4 21/47/4 14/48/4
f 9/49/6 15/50/6 22/51/6
f 16/52/1 22/45/1 21/44/1
f 12/43/5 27/44/5 28/45/5
f 27/53/4 12/54/4 20/55/4
f 17/56/6 28/57/6 37/58/6
f 62/59/6 33/60/6 29/55/6
f 33/52/1 62/45/1 63/44/1
f 20/61/4 34/62/4 63/63/4
f 9/52/5 8/43/5 15/45/5
f 8/64/4 13/46/4 14/48/4
f 16/65/6 9/49/6 22/51/6
f 13/43/1 16/52/1 21/44/1
f 17/52/5 12/43/5 28/45/5
f 35/66/4 27/53/4 20/55/4
f 29/61/6 17/56/6 37/58/6
f 37/66/6 62/59/6 29/55/6
f 34/43/1 33/52/1 63/44/1
f 35/58/4 20/61/4 63/63/4
