# Blender v2.76 (sub 0) OBJ File: 'Baker_home_10.blend'
# www.blender.org
mtllib chambre1_rdc.mtl
o Chambre1_RDC_Cube.010
v -1.152098 -0.500000 -5.148265
v -1.152098 -0.500000 -8.083033
v 1.256487 -0.500000 -8.083033
v 3.574529 -0.500000 -8.083033
v 3.574529 -0.500000 -5.148265
v 1.256487 -0.500000 -5.148265
v -1.152098 0.231908 -5.148265
v -1.152098 0.231908 -5.940829
v -1.152098 0.231908 -6.735181
v -1.152098 0.231908 -8.083033
v -1.152098 1.819499 -5.148265
v -1.152098 1.530018 -5.940829
v -1.152098 1.050372 -5.940829
v -0.850647 0.231908 -5.940829
v -0.850647 0.231908 -6.735181
v -1.152098 1.050372 -6.735181
v -1.152098 1.530018 -6.735181
v -1.152098 2.046668 -8.083033
v -1.152098 2.062649 -5.148265
v -1.152098 2.062649 -5.940829
v -0.850647 1.050372 -5.940829
v -0.850647 1.050372 -6.735181
v -0.850647 0.231908 -5.265407
v -0.850647 0.000000 -5.265407
v -0.850647 -0.000000 -8.033199
v -0.850647 0.231908 -8.033199
v -0.850647 1.530018 -5.940829
v -0.850647 1.530018 -6.735181
v -1.152098 2.062649 -6.735181
v -1.152098 2.062649 -8.083033
v -1.152098 2.600013 -5.148265
v -1.152098 2.600013 -8.083033
v -1.152098 2.348482 -6.735181
v -1.152098 2.348482 -5.940829
v -0.850647 2.062649 -5.940829
v -0.850647 2.062649 -5.265407
v -0.850647 2.062649 -6.735181
v -0.850647 2.062649 -8.033199
v 0.170660 2.062649 -5.265407
v 0.170660 0.000000 -5.265407
v 3.574529 -0.000000 -7.424072
v 3.539022 -0.000000 -7.424072
v 3.539022 -0.000000 -7.795491
v 3.287695 -0.000000 -7.795491
v 3.287695 -0.000000 -8.033199
v 2.965091 -0.000000 -8.033199
v 0.653546 -0.000000 -8.033199
v 0.653546 -0.000000 -7.788700
v 0.195110 -0.000000 -7.788700
v 0.195110 -0.000000 -8.033199
v 0.629097 0.000000 -5.265407
v 2.940641 0.000000 -5.265407
v 3.263245 0.000000 -5.265407
v 3.514572 0.000000 -5.265407
v 3.531551 0.000000 -6.619019
v 3.574529 0.000000 -6.619019
v 0.195110 2.062649 -8.033199
v 1.256487 2.600013 -5.148265
v 3.574529 2.600013 -5.148265
v 3.574529 2.600013 -8.083033
v 1.256487 2.600013 -8.083033
v -0.850647 2.348482 -6.735181
v -0.850647 2.348482 -5.940829
v -0.850647 2.348482 -5.265407
v -0.850647 2.348482 -8.033199
v -0.850647 2.400000 -5.265407
v 0.170660 2.400000 -5.265407
v 0.629097 2.062649 -5.265407
v 3.574529 2.062649 -7.424072
v 3.539022 2.062649 -7.424072
v 3.539022 2.062649 -7.795491
v 3.287695 2.062649 -7.795491
v 3.287695 2.062649 -8.033199
v 2.965091 2.062649 -8.033199
v 0.653546 2.062649 -8.033199
v 0.653546 2.062649 -7.788700
v 0.195110 2.062649 -7.788700
v 2.940641 2.062649 -5.265407
v 3.263245 2.062649 -5.265407
v 3.514572 2.062649 -5.265407
v 3.531551 2.062649 -6.619019
v 3.574529 2.062649 -6.619019
v 0.195110 2.400000 -8.033199
v -0.850647 2.400000 -8.033199
v 3.574529 2.400000 -6.619019
v 3.531551 2.400000 -6.619019
v 3.514572 2.400000 -5.265407
v 3.263245 2.400000 -5.265407
v 2.940641 2.400000 -5.265407
v 0.629097 2.400000 -5.265407
v 0.195110 2.400000 -7.788700
v 0.653546 2.400000 -7.788700
v 0.653546 2.400000 -8.033199
v 2.965091 2.400000 -8.033199
v 3.287695 2.400000 -8.033199
v 3.287695 2.400000 -7.795491
v 3.539022 2.400000 -7.795491
v 3.539022 2.400000 -7.424072
v 3.574529 2.400000 -7.424072
vn 0.000000 -1.000000 0.000000
vn -1.000000 0.000000 0.000000
vn 0.000000 1.000000 0.000000
vn 0.000000 0.000000 -1.000000
vn 0.000000 0.000000 1.000000
vn 1.000000 -0.000000 0.000000
vn -0.999900 0.000000 -0.012500
usemtl Matiere
s off
f 3//1 4//1 6//1
f 9//2 2//2 1//2
f 13//2 8//2 7//2
f 8//3 14//3 15//3
f 16//2 17//2 18//2
f 20//2 12//2 11//2
f 13//4 21//4 14//4
f 9//5 15//5 22//5
f 24//6 15//6 14//6
f 16//1 22//1 21//1
f 12//3 27//3 28//3
f 18//2 17//2 29//2
f 31//2 33//2 34//2
f 27//4 12//4 20//4
f 23//6 21//6 36//6
f 28//6 22//6 38//6
f 40//4 23//4 39//4
f 48//3 52//3 55//3
f 26//5 50//5 57//5
f 17//5 28//5 37//5
f 58//3 59//3 61//3
f 62//5 33//5 29//5
f 33//1 62//1 63//1
f 20//4 34//4 63//4
f 63//6 64//6 36//6
f 65//3 63//3 62//3
f 64//4 67//4 39//4
f 51//4 40//4 39//4
f 70//5 42//5 41//5
f 43//2 42//2 70//2
f 44//5 43//5 71//5
f 45//2 44//2 72//2
f 46//5 45//5 73//5
f 47//5 46//5 74//5
f 48//6 47//6 75//6
f 49//5 48//5 76//5
f 50//2 49//2 77//2
f 52//4 51//4 68//4
f 53//4 52//4 78//4
f 54//4 53//4 79//4
f 55//7 54//7 80//7
f 55//4 81//4 82//4
f 83//5 65//5 57//5
f 66//6 64//6 63//6
f 92//1 94//1 86//1
f 67//4 90//4 68//4
f 98//5 70//5 69//5
f 98//2 97//2 71//2
f 97//5 96//5 72//5
f 96//2 95//2 73//2
f 95//5 94//5 74//5
f 94//5 93//5 75//5
f 93//6 92//6 76//6
f 92//5 91//5 77//5
f 91//2 83//2 57//2
f 90//4 89//4 78//4
f 89//4 88//4 79//4
f 88//4 87//4 80//4
f 87//7 86//7 81//7
f 81//4 86//4 85//4
f 69//6 4//6 60//6
f 5//6 56//6 82//6
f 59//5 58//5 6//5
f 61//4 60//4 4//4
f 58//5 11//5 6//5
f 10//4 18//4 61//4
f 6//1 1//1 2//1
f 2//1 3//1 6//1
f 4//1 5//1 6//1
f 1//2 7//2 8//2
f 9//2 10//2 2//2
f 1//2 8//2 9//2
f 7//2 11//2 13//2
f 12//2 13//2 11//2
f 9//3 8//3 15//3
f 18//2 10//2 16//2
f 16//2 13//2 12//2
f 10//2 9//2 16//2
f 16//2 12//2 17//2
f 19//2 20//2 11//2
f 8//4 13//4 14//4
f 16//5 9//5 22//5
f 14//6 23//6 24//6
f 24//6 25//6 15//6
f 26//6 15//6 25//6
f 13//1 16//1 21//1
f 17//3 12//3 28//3
f 30//2 18//2 29//2
f 32//2 30//2 33//2
f 20//2 19//2 34//2
f 30//2 29//2 33//2
f 34//2 19//2 31//2
f 31//2 32//2 33//2
f 35//4 27//4 20//4
f 35//6 36//6 27//6
f 23//6 14//6 21//6
f 21//6 27//6 36//6
f 38//6 37//6 28//6
f 28//6 27//6 21//6
f 22//6 15//6 26//6
f 28//6 21//6 22//6
f 26//6 38//6 22//6
f 36//4 39//4 23//4
f 40//4 24//4 23//4
f 56//3 41//3 42//3
f 42//3 43//3 44//3
f 44//3 45//3 46//3
f 46//3 47//3 48//3
f 49//3 50//3 25//3
f 44//3 46//3 55//3
f 49//3 25//3 24//3
f 42//3 44//3 55//3
f 48//3 49//3 51//3
f 24//3 40//3 49//3
f 51//3 52//3 48//3
f 53//3 54//3 55//3
f 55//3 56//3 42//3
f 46//3 48//3 55//3
f 40//3 51//3 49//3
f 53//3 55//3 52//3
f 57//5 38//5 26//5
f 26//5 25//5 50//5
f 29//5 17//5 37//5
f 61//3 32//3 31//3
f 31//3 58//3 61//3
f 59//3 60//3 61//3
f 37//5 62//5 29//5
f 34//1 33//1 63//1
f 35//4 20//4 63//4
f 35//6 63//6 36//6
f 37//6 38//6 65//6
f 62//6 37//6 65//6
f 39//4 36//4 64//4
f 64//4 66//4 67//4
f 68//4 51//4 39//4
f 69//5 70//5 41//5
f 71//2 43//2 70//2
f 72//5 44//5 71//5
f 73//2 45//2 72//2
f 74//5 46//5 73//5
f 75//5 47//5 74//5
f 76//6 48//6 75//6
f 77//5 49//5 76//5
f 57//2 50//2 77//2
f 78//4 52//4 68//4
f 79//4 53//4 78//4
f 80//4 54//4 79//4
f 81//7 55//7 80//7
f 56//4 55//4 82//4
f 38//5 57//5 65//5
f 83//5 84//5 65//5
f 63//6 65//6 84//6
f 84//6 66//6 63//6
f 99//1 85//1 98//1
f 86//1 87//1 88//1
f 88//1 89//1 86//1
f 90//1 91//1 92//1
f 66//1 84//1 91//1
f 92//1 93//1 94//1
f 84//1 83//1 91//1
f 92//1 86//1 89//1
f 66//1 91//1 67//1
f 89//1 90//1 92//1
f 85//1 86//1 98//1
f 96//1 97//1 98//1
f 98//1 86//1 96//1
f 67//1 91//1 90//1
f 94//1 95//1 96//1
f 96//1 86//1 94//1
f 39//4 67//4 68//4
f 99//5 98//5 69//5
f 70//2 98//2 71//2
f 71//5 97//5 72//5
f 72//2 96//2 73//2
f 73//5 95//5 74//5
f 74//5 94//5 75//5
f 75//6 93//6 76//6
f 76//5 92//5 77//5
f 77//2 91//2 57//2
f 68//4 90//4 78//4
f 78//4 89//4 79//4
f 79//4 88//4 80//4
f 80//7 87//7 81//7
f 82//4 81//4 85//4
f 59//6 85//6 60//6
f 99//6 69//6 60//6
f 41//6 4//6 69//6
f 60//6 85//6 99//6
f 82//6 85//6 59//6
f 5//6 4//6 56//6
f 82//6 59//6 5//6
f 4//6 41//6 56//6
f 5//5 59//5 6//5
f 3//4 61//4 4//4
f 1//5 6//5 7//5
f 58//5 31//5 19//5
f 19//5 11//5 58//5
f 7//5 6//5 11//5
f 32//4 61//4 30//4
f 3//4 2//4 10//4
f 18//4 30//4 61//4
f 3//4 10//4 61//4
