# Blender v2.76 (sub 0) OBJ File: 'rdcc_3.blend'
# www.blender.org
mtllib chambre2_rdc.mtl
o Chambre2_RDC_Cube.011
v -2.152098 -0.500000 1.416967
v -2.152098 -0.500000 -0.497013
v 0.256487 -0.500000 -0.497013
v 2.574529 -0.500000 -0.497013
v 2.574529 -0.500000 1.416967
v 0.256487 -0.500000 1.416967
v -2.152098 0.231908 1.416967
v -2.152098 0.231908 0.629586
v -2.152098 0.231908 -0.164765
v -2.152098 0.174617 -0.497013
v -2.152098 2.046668 1.416967
v -2.152098 2.062649 1.375278
v -2.152098 2.062649 0.629586
v -2.152098 1.530018 0.629586
v -2.152098 1.050372 0.629586
v -1.850647 0.231908 0.629586
v -1.850647 0.231908 -0.164765
v -2.152098 1.050372 -0.164765
v -2.152098 1.530018 -0.164765
v -2.152098 2.062649 -0.164765
v -2.152098 2.062649 -0.497013
v -2.152098 2.062649 1.416967
v -2.152098 2.348482 0.629586
v -1.850647 2.062649 0.629586
v -1.850647 1.530018 0.629586
v -1.850647 1.050372 0.629586
v -1.850647 1.050372 -0.164765
v -1.850647 0.231908 1.263922
v -1.850647 -0.000000 1.263922
v -1.850647 -0.000000 -0.405660
v -1.850647 0.197005 -0.405660
v -1.850647 1.530018 -0.164765
v -1.850647 2.062649 -0.164765
v -2.152098 2.348482 -0.164765
v -2.152098 2.373704 -0.497013
v -2.152098 2.600013 1.416967
v -2.152098 2.600013 -0.497013
v -1.850647 2.348482 0.629586
v -1.850647 2.062649 1.263922
v -1.850647 2.062649 -0.405660
v -0.804890 2.062649 1.263922
v -0.804890 -0.000000 1.263922
v -0.248800 -0.000000 -0.497013
v -0.248800 -0.000000 -0.405660
v -0.248800 -0.000000 -0.169838
v -0.795269 -0.000000 -0.169838
v -0.795269 -0.000000 -0.405660
v -0.346454 -0.000000 1.263922
v 1.965091 -0.000000 1.263922
v 2.287695 -0.000000 1.263922
v 2.539022 -0.000000 1.263922
v 2.556001 -0.000000 0.774180
v 2.558847 -0.000000 -0.012560
v 2.558847 -0.000000 -0.164644
v 2.295670 -0.000000 -0.164644
v 2.295670 -0.000000 -0.443466
v 2.151348 -0.000000 -0.443466
v 2.151348 -0.000000 -0.497013
v 1.716912 -0.000000 -0.497013
v 1.716912 -0.000000 -0.431379
v 1.495699 -0.000000 -0.431379
v 0.346335 -0.000000 -0.431379
v 0.346335 -0.000000 -0.497013
v 0.256487 -0.000000 -0.497013
v -0.795269 2.062649 -0.405660
v -1.850647 2.348482 -0.164765
v 2.574529 2.600013 0.263895
v 1.659401 2.600013 -0.497013
v 0.256487 2.600013 -0.497013
v 0.256487 2.600013 1.416967
v 2.574529 2.600013 1.416967
v -1.850647 2.348482 1.263922
v -1.850647 2.400000 1.263922
v -0.804890 2.400000 1.263922
v -0.346454 2.062649 1.263922
v -0.248800 2.062649 -0.497013
v -0.248800 2.062649 -0.405660
v -0.248800 2.062649 -0.169838
v -0.795269 2.062649 -0.169838
v 1.965091 2.062649 1.263922
v 2.287695 2.062649 1.263922
v 2.539022 2.062649 1.263922
v 2.556001 2.062649 0.774180
v 2.574529 -0.000000 -0.012560
v 2.574529 -0.000000 0.774180
v 2.558847 2.062649 -0.164644
v 2.558847 2.062649 -0.012560
v 2.295670 2.062649 -0.164644
v 2.295670 2.062649 -0.443466
v 2.151348 2.062649 -0.443466
v 2.151348 2.062649 -0.497013
v 1.716912 2.062649 -0.497013
v 1.716912 2.062649 -0.431379
v 1.495699 2.062649 -0.431379
v 0.346335 2.062649 -0.431379
v 0.346335 2.062649 -0.497013
v -0.795269 2.400000 -0.405660
v -1.850647 2.400000 -0.405660
v 2.574529 2.600013 -0.497013
v 2.574529 2.400000 0.774180
v 2.556001 2.400000 0.774180
v 2.539022 2.400000 1.263922
v 2.287695 2.400000 1.263922
v 1.965091 2.400000 1.263922
v -0.346454 2.400000 1.263922
v -0.795269 2.400000 -0.169838
v -0.248800 2.400000 -0.169838
v -0.248800 2.400000 -0.405660
v -0.248800 2.400000 -0.497013
v 0.256487 2.400000 -0.497013
v 0.346335 2.400000 -0.497013
v 0.346335 2.400000 -0.431379
v 1.495699 2.400000 -0.431379
v 1.716912 2.400000 -0.431379
v 1.716912 2.400000 -0.449194
v 2.574529 2.400000 0.263895
v 2.574529 2.062649 0.774180
v 2.574529 2.062649 -0.012560
v 2.558847 2.400000 -0.012560
v 2.558847 2.400000 -0.164644
v 2.295670 2.400000 -0.164644
v 2.295670 2.400000 -0.443466
v 2.151348 2.400000 -0.443466
v 2.151348 2.400000 -0.497013
v 1.716912 2.400000 -0.497013
v 2.574529 2.400000 -0.012560
vt 2.065685 0.633325
vt 3.499520 -1.598922
vt 3.499519 2.238682
vt -0.360646 0.524498
vt 0.513981 0.605231
vt -1.575198 1.827478
vt 0.492608 -0.876748
vt -0.402120 -0.823573
vt -1.444185 -1.420736
vt -1.591870 1.743912
vt -1.558892 0.437430
vt -1.168866 0.463592
vt -1.351374 -0.800206
vt -1.850730 -0.714248
vt -2.499520 1.921288
vt 2.009311 2.209511
vt 2.060224 -0.937083
vt 2.157579 -1.583085
vt -2.043419 -1.285096
vt -2.408531 -1.291176
vt -1.597596 1.946834
vt 2.314809 -1.830110
vt 2.959223 -1.830110
vt 2.959223 -0.132023
vt -1.316182 -0.420073
vt -1.960595 -0.420073
vt -1.960595 0.718533
vt 2.314809 1.080360
vt 2.314809 2.829992
vt 2.959222 2.829992
vt 2.314809 -3.195044
vt 2.959223 -3.195044
vt 2.959222 -1.445412
vt 2.314809 4.143381
vt 2.959222 4.143381
vt 2.959222 2.445294
vt 2.314809 -0.420073
vt 2.959222 -0.420073
vt 2.959221 0.718533
vt 2.314809 1.329560
vt 2.959221 1.329560
vt -1.316183 1.329560
vt -1.960595 1.329560
vt 2.314809 -0.132023
vt -1.316183 0.718533
vt 2.959223 1.080360
vt 2.314809 -1.445412
vt 2.314809 2.445294
vt 2.314809 0.718533
vt 0.541516 0.531324
vt 0.562361 0.531324
vt 0.541516 0.523334
vt 1.452830 0.500000
vt 1.332383 0.615954
vt 0.935207 0.615954
vt 0.618039 -0.384046
vt 0.935207 0.025186
vt 0.618039 0.531324
vt 0.332383 0.265009
vt 0.332383 0.025186
vt 0.452830 0.531324
vt 0.597555 -0.500000
vt 0.074677 -0.384046
vt 0.597555 0.531324
vt 0.074677 -0.401497
vt 0.602365 -0.500000
vt 0.602365 0.531324
vt 0.935207 0.674241
vt 0.618039 0.674241
vt 0.332383 0.674241
vt 0.332383 0.531324
vt 0.074676 0.674241
vt 0.597555 0.700000
vt 0.826773 -0.500000
vt 0.452830 -0.500000
vt 0.498507 -0.500000
vt 0.334919 -0.500000
vt 0.875600 -0.500000
vt 0.875600 0.531324
vt 0.334919 0.531324
vt 0.982546 -0.500000
vt -0.173227 -0.500000
vt -0.173227 0.531324
vt 0.143847 -0.500000
vt -0.017454 -0.500000
vt -0.017454 0.531324
vt 0.269511 -0.500000
vt 0.143847 0.531324
vt 0.862910 -0.500000
vt 0.618039 -0.500000
vt 0.279423 0.256280
vt 0.278001 -0.137090
vt 0.287265 -0.137090
vt 0.332322 -0.500000
vt 0.256280 -0.500000
vt 0.256280 0.531324
vt 0.147835 -0.500000
vt 0.279423 -0.500000
vt 0.279423 0.531324
vt 0.471733 -0.500000
vt 0.332322 0.531324
vt 0.075674 -0.500000
vt 0.147835 0.531324
vt 0.471733 0.500000
vt 0.471733 1.531324
vt 0.498507 1.531324
vt 0.465690 0.531324
vt 0.465690 -0.500000
vt 0.747849 -0.500000
vt 0.858456 -0.500000
vt 0.858456 0.531324
vt 0.173167 -0.500000
vt 0.747849 0.531324
vt 0.465690 0.500000
vt 0.465690 1.531324
vt 0.602365 0.700000
vt 0.074676 0.700000
vt 0.074676 0.531324
vt 0.829701 0.498507
vt 1.287265 0.118052
vt 1.287265 0.498507
vt 0.452830 0.700000
vt -0.064793 0.674241
vt 0.826773 0.700000
vt 0.826773 0.531324
vt 0.498507 0.531324
vt 0.334919 0.700000
vt 0.875600 0.700000
vt 1.982546 0.700000
vt 1.982546 0.531324
vt 0.982546 0.700000
vt 1.143847 0.700000
vt 1.143847 0.531324
vt 0.143847 0.700000
vt 0.269511 0.700000
vt 0.269511 0.531324
vt 0.618039 0.700000
vt 0.862910 0.700000
vt 0.862910 0.531324
vt 0.278001 0.500000
vt 0.278001 1.531324
vt 0.287265 1.531324
vt 0.287265 -0.500000
vt 0.256280 0.700000
vt 0.332322 0.700000
vt 0.279423 0.700000
vt 0.147835 0.700000
vt 0.471733 0.700000
vt 0.471733 0.531324
vt 0.075674 0.700000
vt 0.075674 0.531324
vt 0.498507 0.700000
vt 0.474597 0.700000
vt 0.858456 0.700000
vt 0.747849 0.700000
vt 0.173167 0.700000
vt 0.173167 0.531324
vt 0.465690 0.700000
vt 0.278001 0.531324
vt 0.278001 0.700000
vt 0.287265 0.700000
vt 0.075674 0.471733
vt 0.147835 0.332322
vt -0.141544 0.474597
vt 0.287265 0.531324
vt -0.124400 -0.500000
vt -1.076049 -0.412692
vt -0.124400 0.531324
vt 0.287265 0.800007
vt -0.170299 0.800007
vt 0.173167 0.500000
vt 0.858456 1.531324
vt 0.858456 0.500000
vt 0.541516 -0.750000
vt 0.541516 0.800007
vt 0.118052 0.800007
vt 0.118052 0.700000
vt 0.287265 1.800007
vt -0.871756 1.800007
vt -0.871756 0.250000
vt 0.128244 1.800007
vt -1.076049 1.523334
vt -1.076049 0.615954
vt 0.618039 0.615954
vt 0.618039 0.500000
vt 1.452830 0.598503
vt 0.935207 0.531324
vt 0.935207 0.265009
vt 0.935207 -0.384046
vt -0.064793 0.265009
vt -0.064793 0.025186
vt 0.332383 -0.384046
vt 0.452830 -0.401497
vt 0.074677 -0.500000
vt 0.982546 0.531324
vt 0.287265 0.256280
vt 0.498507 0.500000
vt -0.381961 0.700000
vt -0.381961 0.674241
vt 0.287265 0.500000
vt 0.287265 0.118052
vt 0.279423 0.332322
vt 0.147835 0.471733
vt -0.141544 0.498507
vt 0.075674 0.498507
vt -1.076049 0.800007
vt 0.128244 0.800007
vt -0.124400 0.700000
vt -1.076049 0.686852
vt 0.128244 0.700000
vt -1.076049 0.531324
vt 0.128244 -0.500000
vt 0.128244 -0.750000
vt -1.076049 -0.750000
vt 0.287265 -0.750000
vt -0.141544 -0.500000
vt -0.871756 0.800007
vt -0.826833 0.700000
vt -0.141544 0.700000
vt -0.871756 0.700000
vt 1.287265 0.250000
vt 0.128244 0.250000
vt 0.173167 1.531324
vt 0.128244 0.500000
vt 0.858456 1.700000
vt 0.173167 1.700000
vt 1.498507 -0.750000
vt 1.118052 0.700000
vt 1.256280 -0.500000
vt 0.498507 0.800007
vt 0.498507 -0.750000
vt -0.458484 0.800007
vt 0.287265 0.250000
vt -1.076049 0.250000
vt -1.076049 1.800007
vt -1.076049 1.531324
vt 2.128244 1.498507
vt 3.287265 1.498507
vt 2.128244 0.541516
vt 1.982546 -0.381961
vt 2.147835 0.332322
vt 1.858456 0.465690
vt -0.871756 0.498507
vt -2.076049 0.498507
vt -0.871756 -0.458484
vt -1.124400 1.334919
vt -1.173227 0.618039
vt -1.397635 1.334919
vt 0.923951 0.541516
vt 0.923951 1.498507
vt 3.287265 0.541516
vt 1.128244 0.498507
vt 0.875600 0.498507
vt 0.875600 0.452830
vt 0.602365 0.334919
vt 0.602365 0.452830
vt 0.074677 0.452830
vt 0.875600 0.334919
vt 0.074677 -0.381961
vt 1.173167 0.498507
vt 1.173167 0.465690
vt 0.826773 -0.381961
vt 0.597555 -0.381961
vt 2.143847 -0.381961
vt 2.269511 -0.381961
vt 2.278001 -0.137090
vt 2.279423 0.256280
vt 2.147835 0.471733
vt 2.075674 0.471733
vt 2.279423 0.332322
vt 1.747849 0.465690
vt 2.075674 0.498507
vt 1.858456 0.498507
vt 0.287265 -0.458484
vt -0.170299 0.498507
vt -2.076049 -0.458484
vt 0.287265 1.118052
vt 0.287265 0.862910
vt 0.278001 0.862910
vt 0.269511 0.618039
vt 0.143847 0.618039
vt -0.017454 0.618039
vt -0.826833 1.465690
vt -1.925324 0.618039
vt -1.925324 1.452830
vt -1.124400 1.452830
vt -0.871756 1.498507
vt -1.397635 1.452830
vt -1.124400 1.498507
vt -1.402445 0.618039
vt -0.141544 1.465690
vt -0.141544 1.474597
vt -0.252151 1.465690
vt -0.826833 1.498507
vn -1.000000 0.000000 0.000000
vn 0.000000 1.000000 0.000000
vn 0.000000 0.000000 -1.000000
vn 0.000000 0.000000 1.000000
vn 0.000000 -1.000000 0.000000
vn 1.000000 0.000000 0.000000
vn -0.999400 0.000000 -0.034600
usemtl MurExtLow
s off
f 8/1/1 2/2/1 1/3/1
f 14/4/1 15/5/1 11/6/1
f 18/7/1 19/8/1 21/9/1
f 12/10/1 23/11/1 13/12/1
f 20/13/1 34/14/1 21/9/1
f 36/15/1 23/11/1 12/10/1
f 1/3/1 7/16/1 8/1/1
f 8/1/1 9/17/1 2/2/1
f 10/18/1 2/2/1 9/17/1
f 7/16/1 11/6/1 15/5/1
f 12/10/1 13/12/1 14/4/1
f 14/4/1 11/6/1 12/10/1
f 8/1/1 7/16/1 15/5/1
f 21/9/1 10/18/1 18/7/1
f 18/7/1 15/5/1 14/4/1
f 10/18/1 9/17/1 18/7/1
f 19/8/1 20/13/1 21/9/1
f 18/7/1 14/4/1 19/8/1
f 35/19/1 21/9/1 34/14/1
f 34/14/1 23/11/1 35/19/1
f 36/15/1 37/20/1 23/11/1
f 12/10/1 22/21/1 36/15/1
f 37/20/1 35/19/1 23/11/1
usemtl Ceramic
f 8/22/2 16/23/2 17/24/2
f 25/25/3 14/26/3 13/27/3
f 8/28/3 15/29/3 26/30/3
f 9/31/4 17/32/4 27/33/4
f 18/34/5 27/35/5 26/36/5
f 14/22/2 25/23/2 32/24/2
f 19/37/4 32/38/4 33/39/4
f 23/40/3 38/41/3 24/39/3
f 66/42/4 34/43/4 20/27/4
f 34/34/5 66/35/5 38/36/5
f 9/44/2 8/22/2 17/24/2
f 24/45/3 25/25/3 13/27/3
f 16/46/3 8/28/3 26/30/3
f 18/47/4 9/31/4 27/33/4
f 15/48/5 18/34/5 26/36/5
f 19/44/2 14/22/2 32/24/2
f 20/49/4 19/37/4 33/39/4
f 13/49/3 23/40/3 24/39/3
f 33/45/4 66/42/4 20/27/4
f 23/48/5 34/34/5 38/36/5
usemtl greyDWall
f 22/50/1 12/51/1 11/52/1
f 30/53/6 17/54/6 16/55/6
f 28/56/6 26/57/6 39/58/6
f 32/59/6 27/60/6 40/61/6
f 42/62/3 28/63/3 41/64/3
f 31/65/4 47/66/4 65/67/4
f 38/68/6 72/69/6 39/58/6
f 66/70/6 33/71/6 40/61/6
f 72/72/3 74/73/3 41/64/3
f 48/74/3 42/62/3 41/64/3
f 77/61/6 44/75/6 43/76/6
f 45/77/6 44/75/6 77/61/6
f 46/66/4 45/78/4 78/79/4
f 47/75/1 46/77/1 79/80/1
f 49/81/3 48/82/3 75/83/3
f 50/84/3 49/85/3 80/86/3
f 51/87/3 50/84/3 81/88/3
f 52/89/7 51/90/7 82/58/7
f 53/91/2 52/92/2 85/93/2
f 54/94/1 53/95/1 87/96/1
f 55/97/4 54/98/4 86/99/4
f 56/100/1 55/94/1 88/101/1
f 57/102/4 56/97/4 89/103/4
f 57/104/1 90/105/1 91/106/1
f 93/107/6 60/108/6 59/76/6
f 61/109/4 60/110/4 93/111/4
f 62/112/4 61/109/4 94/113/4
f 62/114/1 95/115/1 96/106/1
f 97/116/4 98/117/4 40/118/4
f 68/119/2 67/120/2 99/121/2
f 98/122/6 38/123/6 66/70/6
f 74/73/3 105/124/3 75/125/3
f 108/122/6 77/61/6 76/126/6
f 108/122/6 107/127/6 78/80/6
f 107/128/4 106/116/4 79/67/4
f 106/127/1 97/122/1 65/61/1
f 105/124/3 104/129/3 80/130/3
f 104/131/3 103/132/3 81/133/3
f 103/134/3 102/135/3 82/136/3
f 102/137/7 101/138/7 83/139/7
f 52/140/3 83/141/3 117/142/3
f 87/99/4 53/98/4 84/143/4
f 119/144/1 120/145/1 86/101/1
f 120/146/4 121/147/4 88/103/4
f 121/145/1 122/148/1 89/149/1
f 122/147/4 123/150/4 90/151/4
f 90/149/1 123/148/1 124/152/1
f 115/153/6 93/107/6 92/126/6
f 114/154/4 113/155/4 94/113/4
f 113/155/4 112/156/4 95/157/4
f 95/107/1 112/158/1 111/152/1
f 83/159/3 101/160/3 100/161/3
f 123/162/5 121/163/5 115/164/5
f 119/146/4 87/99/4 118/165/4
f 43/166/3 10/167/3 76/168/3
f 99/169/3 124/150/3 68/170/3
f 63/171/3 92/172/3 59/173/3
f 5/174/6 117/139/6 71/175/6
f 67/176/6 116/177/6 126/144/6
f 71/178/4 70/179/4 6/180/4
f 70/181/4 11/182/4 7/183/4
f 16/55/6 28/184/6 29/185/6
f 29/185/6 30/53/6 16/55/6
f 31/186/6 17/54/6 30/53/6
f 24/187/6 39/58/6 25/188/6
f 28/56/6 16/189/6 26/57/6
f 26/57/6 25/188/6 39/58/6
f 40/61/6 33/71/6 32/59/6
f 32/59/6 25/190/6 26/191/6
f 27/60/6 17/192/6 31/193/6
f 32/59/6 26/191/6 27/60/6
f 31/193/6 40/61/6 27/60/6
f 39/118/3 41/64/3 28/63/3
f 42/62/3 29/194/3 28/63/3
f 65/67/4 40/118/4 31/65/4
f 31/65/4 30/194/4 47/66/4
f 24/187/6 38/68/6 39/58/6
f 41/64/3 39/118/3 72/72/3
f 72/72/3 73/117/3 74/73/3
f 75/125/3 48/74/3 41/64/3
f 76/126/6 77/61/6 43/76/6
f 78/80/6 45/77/6 77/61/6
f 79/67/4 46/66/4 78/79/4
f 65/61/1 47/75/1 79/80/1
f 80/195/3 49/81/3 75/83/3
f 81/88/3 50/84/3 80/86/3
f 82/136/3 51/87/3 81/88/3
f 83/139/7 52/89/7 82/58/7
f 84/196/2 53/91/2 85/93/2
f 86/101/1 54/94/1 87/96/1
f 88/103/4 55/97/4 86/99/4
f 89/149/1 56/100/1 88/101/1
f 90/151/4 57/102/4 89/103/4
f 58/197/1 57/104/1 91/106/1
f 92/126/6 93/107/6 59/76/6
f 94/113/4 61/109/4 93/111/4
f 95/157/4 62/112/4 94/113/4
f 63/197/1 62/114/1 96/106/1
f 65/67/4 97/116/4 40/118/4
f 66/70/6 40/61/6 98/122/6
f 98/122/6 73/198/6 38/123/6
f 72/199/6 38/123/6 73/198/6
f 41/64/3 74/73/3 75/125/3
f 109/152/6 108/122/6 76/126/6
f 77/61/6 108/122/6 78/80/6
f 78/79/4 107/128/4 79/67/4
f 79/80/1 106/127/1 65/61/1
f 75/125/3 105/124/3 80/130/3
f 80/195/3 104/131/3 81/133/3
f 81/88/3 103/134/3 82/136/3
f 82/58/7 102/137/7 83/139/7
f 85/200/3 52/140/3 117/142/3
f 118/165/4 87/99/4 84/143/4
f 87/96/1 119/144/1 86/101/1
f 86/99/4 120/146/4 88/103/4
f 88/101/1 121/145/1 89/149/1
f 89/103/4 122/147/4 90/151/4
f 91/126/1 90/149/1 124/152/1
f 92/126/6 125/152/6 115/153/6
f 115/153/6 114/158/6 93/107/6
f 93/111/4 114/154/4 94/113/4
f 94/113/4 113/155/4 95/157/4
f 96/126/1 95/107/1 111/152/1
f 117/165/3 83/159/3 100/161/3
f 116/201/5 115/164/5 121/163/5
f 119/91/5 126/196/5 116/201/5
f 121/163/5 120/202/5 119/91/5
f 123/162/5 122/203/5 121/163/5
f 125/204/5 124/205/5 115/164/5
f 119/91/5 116/201/5 121/163/5
f 124/205/5 123/162/5 115/164/5
f 126/161/4 119/146/4 118/165/4
f 37/206/3 69/207/3 109/208/3
f 109/208/3 76/168/3 35/209/3
f 69/207/3 110/210/3 109/208/3
f 10/167/3 21/211/3 76/168/3
f 35/209/3 37/206/3 109/208/3
f 43/166/3 64/212/3 3/213/3
f 35/209/3 76/168/3 21/211/3
f 2/214/3 10/167/3 43/166/3
f 43/166/3 3/213/3 2/214/3
f 4/215/3 59/216/3 58/102/3
f 69/217/3 68/170/3 111/218/3
f 99/169/3 4/215/3 91/151/3
f 58/102/3 91/151/3 4/215/3
f 124/150/3 125/219/3 68/170/3
f 111/218/3 110/220/3 69/217/3
f 99/169/3 91/151/3 124/150/3
f 111/218/3 68/170/3 125/219/3
f 4/221/3 3/222/3 59/173/3
f 63/171/3 96/223/3 92/172/3
f 3/222/3 64/224/3 63/171/3
f 125/225/3 92/172/3 96/223/3
f 59/173/3 3/222/3 63/171/3
f 96/223/3 111/226/3 125/225/3
f 5/174/6 4/227/6 85/89/6
f 100/138/6 116/228/6 71/175/6
f 4/227/6 84/229/6 85/89/6
f 100/138/6 71/175/6 117/139/6
f 85/89/6 117/139/6 5/174/6
f 99/230/6 67/176/6 126/144/6
f 84/95/6 4/231/6 118/96/6
f 126/144/6 118/96/6 99/230/6
f 71/232/6 116/177/6 67/176/6
f 118/96/6 4/231/6 99/230/6
f 5/233/4 71/178/4 6/180/4
f 1/234/4 6/222/4 7/183/4
f 70/181/4 36/235/4 22/236/4
f 7/183/4 6/222/4 70/181/4
f 70/181/4 22/236/4 11/182/4
usemtl ceiling
f 3/237/5 4/238/5 6/239/5
f 49/240/2 55/241/2 60/242/2
f 69/243/2 37/244/2 70/245/2
f 107/246/5 105/247/5 106/248/5
f 6/239/5 1/249/5 2/250/5
f 2/250/5 3/237/5 6/239/5
f 4/238/5 5/251/5 6/239/5
f 64/252/2 43/253/2 44/254/2
f 46/255/2 47/256/2 30/257/2
f 64/252/2 44/254/2 45/258/2
f 46/255/2 30/257/2 29/259/2
f 63/260/2 64/252/2 62/261/2
f 45/258/2 46/255/2 48/262/2
f 29/259/2 42/263/2 46/255/2
f 48/262/2 62/261/2 45/258/2
f 50/264/2 51/265/2 52/266/2
f 52/266/2 53/267/2 55/241/2
f 55/241/2 56/268/2 57/269/2
f 53/267/2 54/270/2 55/241/2
f 49/240/2 50/264/2 52/266/2
f 46/255/2 42/263/2 48/262/2
f 62/261/2 64/252/2 45/258/2
f 60/242/2 61/271/2 49/240/2
f 58/272/2 59/273/2 57/269/2
f 52/266/2 55/241/2 49/240/2
f 57/269/2 59/273/2 60/242/2
f 61/271/2 62/261/2 49/240/2
f 48/262/2 49/240/2 62/261/2
f 55/241/2 57/269/2 60/242/2
f 71/274/2 67/201/2 70/245/2
f 68/275/2 69/243/2 70/245/2
f 37/244/2 36/276/2 70/245/2
f 70/245/2 67/201/2 68/275/2
f 116/277/5 100/278/5 101/279/5
f 101/279/5 102/280/5 103/281/5
f 103/281/5 104/282/5 101/279/5
f 105/247/5 107/246/5 112/283/5
f 73/284/5 98/285/5 106/248/5
f 107/246/5 108/286/5 110/287/5
f 98/285/5 97/288/5 106/248/5
f 108/286/5 109/289/5 110/287/5
f 73/284/5 106/248/5 74/290/5
f 104/282/5 105/247/5 112/283/5
f 116/277/5 101/279/5 104/282/5
f 114/291/5 115/292/5 116/277/5
f 112/283/5 113/293/5 104/282/5
f 110/287/5 111/294/5 112/283/5
f 106/248/5 105/247/5 74/290/5
f 116/277/5 104/282/5 114/291/5
f 113/293/5 114/291/5 104/282/5
f 107/246/5 110/287/5 112/283/5
