# Blender v2.76 (sub 0) OBJ File: 'Baker_home_10.blend'
# www.blender.org
mtllib concierge1_rdc.mtl
o Concierge1_RDC_Cube.023
v 8.023954 -0.500000 -3.177876
v 8.000000 -0.500000 -1.208999
v 6.972959 -0.500000 -1.066975
v 6.972959 -0.500000 -3.177876
v 8.023966 2.062649 -3.177876
v 8.000000 2.062649 -1.208998
v 6.972959 1.760616 -1.066974
v 8.023969 2.600013 -3.177876
v 8.000000 2.600013 -1.208998
v 6.972959 2.062649 -1.066974
v 6.972959 2.600013 -3.177876
v 6.972959 2.600013 -1.066974
v 6.972959 0.000000 -2.213645
v 7.043631 0.000000 -2.213645
v 7.045784 0.000000 -1.436746
v 7.722579 0.000000 -1.532661
v 7.741129 0.000000 -3.112829
v 7.054801 0.000000 -3.112829
v 6.972959 0.000000 -3.112829
v 6.972959 2.062649 -2.213645
v 7.043631 2.062649 -2.213645
v 7.045784 2.062649 -1.436746
v 7.722579 2.062649 -1.532661
v 7.741139 2.062649 -3.112829
v 7.054801 2.062649 -3.112829
v 6.972959 2.062649 -3.112829
v 6.972959 2.400000 -2.213645
v 7.043631 2.400000 -2.213645
v 7.045784 2.400000 -1.436746
v 7.045784 2.386207 -1.436746
v 7.045784 2.235555 -1.436746
v 7.722579 2.400000 -1.532660
v 7.741140 2.400000 -3.112829
v 7.054801 2.400000 -3.112829
v 6.972959 2.400000 -3.112829
vn 0.000000 -1.000000 0.000000
vn 0.999900 0.000000 0.012200
vn 0.137000 0.000000 0.990600
vn 0.000000 1.000000 0.000000
vn 0.000000 0.000000 -1.000000
vn 1.000000 0.000000 -0.002800
vn -0.140300 0.000000 -0.990100
vn -0.999900 0.000000 -0.011700
vn 0.000000 0.000000 1.000000
vn -1.000000 0.000000 0.000000
usemtl Matiere
s off
f 2//1 3//1 4//1
f 6//2 2//2 1//2
f 3//3 2//3 7//3
f 9//2 6//2 5//2
f 7//3 2//3 6//3
f 9//4 8//4 11//4
f 10//3 6//3 9//3
f 14//4 17//4 18//4
f 21//5 14//5 13//5
f 15//6 14//6 21//6
f 16//7 15//7 22//7
f 24//8 17//8 16//8
f 25//9 18//9 17//9
f 18//9 25//9 26//9
f 28//5 21//5 20//5
f 28//6 30//6 31//6
f 31//7 32//7 23//7
f 32//8 33//8 24//8
f 24//9 33//9 34//9
f 25//9 34//9 35//9
f 33//1 32//1 28//1
f 32//7 30//7 29//7
f 32//7 31//7 30//7
f 11//5 5//5 4//5
f 11//10 26//10 35//10
f 7//10 20//10 13//10
f 1//1 2//1 4//1
f 5//2 6//2 1//2
f 8//2 9//2 5//2
f 10//3 7//3 6//3
f 12//4 9//4 11//4
f 12//3 10//3 9//3
f 19//4 13//4 14//4
f 14//4 15//4 16//4
f 16//4 17//4 14//4
f 18//4 19//4 14//4
f 20//5 21//5 13//5
f 22//6 15//6 21//6
f 23//7 16//7 22//7
f 23//8 24//8 16//8
f 24//9 25//9 17//9
f 19//9 18//9 26//9
f 27//5 28//5 20//5
f 22//6 21//6 31//6
f 28//6 29//6 30//6
f 31//6 21//6 28//6
f 22//7 31//7 23//7
f 23//8 32//8 24//8
f 25//9 24//9 34//9
f 26//9 25//9 35//9
f 27//1 35//1 28//1
f 34//1 33//1 28//1
f 32//1 29//1 28//1
f 28//1 35//1 34//1
f 1//5 4//5 5//5
f 11//5 8//5 5//5
f 4//10 13//10 19//10
f 27//10 12//10 11//10
f 11//10 4//10 26//10
f 19//10 26//10 4//10
f 35//10 27//10 11//10
f 13//10 4//10 3//10
f 7//10 10//10 20//10
f 13//10 3//10 7//10
f 27//10 20//10 10//10
f 10//10 12//10 27//10
