# Blender v2.76 (sub 0) OBJ File: 'rdcc_3.blend'
# www.blender.org
mtllib cuisine_rdc.mtl
o Cuisine1_RDC_Cube.004
v 0.256487 -0.500000 3.223526
v -2.152098 -0.500000 3.556597
v -2.152098 -0.500000 -1.648265
v 0.256487 -0.500000 -1.648265
v 2.574529 -0.500000 -1.648265
v 2.574529 -0.500000 1.010040
v 0.256487 -0.500000 1.010040
v 0.256487 1.300114 3.223526
v -0.048137 1.547479 3.265651
v -1.022005 1.547479 3.400322
v -1.575137 2.062649 3.476812
v -2.152098 2.062649 3.556597
v -2.152098 0.231908 0.594378
v -2.152098 0.231908 -0.199973
v -2.152098 0.231908 -1.648265
v 0.256487 2.062649 3.223526
v -0.048137 2.062649 3.265651
v -0.089212 1.547479 2.932701
v -1.062675 1.547479 3.070659
v -1.022005 2.062649 3.400322
v -2.152098 2.600013 3.556597
v -2.152098 2.062649 0.594378
v -2.152098 1.530018 0.594378
v -2.152098 1.050372 0.594378
v -1.850647 0.231908 0.594378
v -1.850647 0.231908 -0.199973
v -2.152098 1.050372 -0.199973
v -2.152098 1.530018 -0.199973
v -2.152098 2.062649 -0.199973
v -2.152098 2.062649 -0.982551
v -2.152098 1.819499 -1.648265
v 0.256487 2.287860 3.223526
v -0.048137 2.287860 3.265651
v -0.089212 2.062649 2.932701
v -1.062675 2.062649 3.070659
v -1.538839 2.062649 3.138141
v 0.159189 1.042790 2.897498
v 0.159189 0.000000 2.897497
v -1.850647 0.000000 3.182330
v -1.850647 2.062649 3.182330
v 0.256487 2.600013 3.223526
v -1.022005 2.287860 3.400322
v -2.152098 2.062649 -1.648265
v -2.152098 2.348482 -0.199973
v -2.152098 2.348482 0.594378
v -2.152098 2.600013 -1.648265
v -1.850647 2.062649 0.594378
v -1.850647 1.530018 0.594378
v -1.850647 1.050372 0.594378
v -1.850647 1.050372 -0.199973
v -1.850647 0.204269 0.902817
v -1.850647 0.000000 0.902817
v -1.850647 0.000000 -1.562528
v -1.850647 0.231908 -1.562528
v -1.850647 1.530018 -0.199973
v -1.850647 2.062649 -0.199973
v -0.089212 2.287860 2.932701
v 0.060894 2.062649 2.911428
v -1.062675 2.287860 3.070659
v -1.850647 2.400000 3.182330
v 0.159189 2.062649 2.897498
v 0.145998 2.062649 1.136476
v 0.145998 0.000000 1.136476
v 0.145998 0.000000 0.933597
v 0.372387 0.000000 0.933597
v 1.560927 0.000000 0.933597
v 1.800050 0.000000 0.933597
v 1.800050 0.000000 1.010040
v 2.224148 0.000000 1.010040
v 2.224148 0.000000 0.662377
v 2.468647 0.000000 0.662377
v 2.476565 0.000000 0.444638
v 2.482797 0.000000 0.273272
v 2.574529 0.000000 0.273272
v 2.574529 0.000000 -0.565931
v 2.514572 0.000000 -0.565931
v 2.514572 0.000000 -1.324820
v 2.263245 0.000000 -1.324820
v 2.263245 0.000000 -1.562528
v 1.940641 0.000000 -1.562528
v -0.370903 0.000000 -1.562528
v -0.370903 0.000000 -1.318028
v -0.829340 0.000000 -1.318028
v -0.829340 0.000000 -1.562528
v -0.818134 0.000000 0.902817
v -0.818134 0.000000 0.658318
v -0.359697 0.000000 0.658318
v -0.359697 0.000000 0.902817
v -0.359697 0.000000 1.105696
v -0.818134 0.000000 1.105696
v -1.850647 0.000000 1.105696
v -1.850647 0.186089 1.105696
v -1.850647 2.062649 1.105696
v 0.256487 2.600013 1.010040
v 2.574529 2.600013 1.010040
v 2.574529 2.600013 -1.648265
v 0.256487 2.600013 -1.648265
v -1.850647 2.348482 -0.199973
v -1.850647 2.348482 0.594378
v -1.850647 2.062649 0.902817
v -1.850647 2.062649 -1.562528
v -0.818134 2.062649 0.902817
v -0.829340 2.062649 -1.562528
v -1.850647 2.400000 1.105696
v 0.159189 2.400000 2.897498
v 0.145998 2.400000 1.136476
v 0.145998 2.062649 0.933597
v 0.372387 2.062649 0.933597
v 1.560927 2.062649 0.933597
v 1.800050 2.062649 0.933597
v 1.800050 2.062649 1.010040
v 2.224148 2.062649 1.010040
v 2.224148 2.062649 0.662377
v 2.468647 2.062649 0.662377
v 2.476565 2.062649 0.444638
v 2.482797 2.062649 0.273272
v 2.574529 2.062649 0.273272
v 2.574529 2.062649 -0.565931
v 2.514572 2.062649 -0.565931
v 2.514572 2.062649 -1.324820
v 2.263245 2.062649 -1.324820
v 2.263245 2.062649 -1.562528
v 1.940641 2.062649 -1.562528
v -0.370903 2.062649 -1.562528
v -0.370903 2.062649 -1.318028
v -0.829340 2.062649 -1.318028
v -0.818134 2.062649 0.658318
v -0.359697 2.062649 0.658318
v -0.359697 2.062649 0.902817
v -0.359697 2.062649 1.105696
v -0.818134 2.062649 1.105696
v -1.850647 2.400000 0.902817
v -1.850647 2.348482 -1.562528
v -0.818134 2.400000 0.902817
v -0.829340 2.400000 -1.562528
v -1.850647 2.400000 -1.562528
v -0.818134 2.400000 1.105696
v -0.359697 2.400000 1.105696
v -0.359697 2.400000 0.902817
v -0.359697 2.400000 0.658318
v -0.818134 2.400000 0.658318
v -0.829340 2.400000 -1.318028
v -0.370903 2.400000 -1.318028
v -0.370903 2.400000 -1.562528
v 1.940641 2.400000 -1.562528
v 2.263245 2.400000 -1.562528
v 2.263245 2.400000 -1.324820
v 2.514572 2.400000 -1.324820
v 2.514572 2.400000 -0.565931
v 2.574529 2.400000 -0.565931
v 2.574529 2.400000 0.273272
v 2.482797 2.400000 0.273272
v 2.476565 2.400000 0.444638
v 2.468647 2.400000 0.662377
v 2.224148 2.400000 0.662377
v 2.224148 2.400000 1.010040
v 1.800050 2.400000 1.010040
v 1.800050 2.400000 0.933597
v 1.560927 2.400000 0.933597
v 0.372387 2.400000 0.933597
v 0.145998 2.400000 0.933597
vt 2.962178 3.962845
vt 2.486784 0.000004
vt 3.500000 0.000004
vt -0.351321 1.416591
vt -1.112389 1.416591
vt -2.500000 0.000000
vt 3.500000 4.959943
vt 3.371854 4.959943
vt 3.371854 3.962845
vt 2.729493 4.959943
vt 2.962178 4.959943
vt 2.486784 6.000000
vt 2.486784 4.959943
vt -0.351321 3.000708
vt -1.112389 3.000707
vt -1.862178 4.959941
vt -2.500000 4.489331
vt 3.371854 5.395836
vt 2.962178 5.395836
vt 3.500000 6.000000
vt -0.351321 5.513167
vt -2.500000 5.999997
vt -1.112389 4.959941
vt -1.112389 5.513165
vt -2.500000 4.959941
vt 3.500000 3.484076
vt -2.500000 1.416589
vt -0.351321 4.959941
vt -0.351321 3.929049
vt -1.112389 3.929049
vt 3.500000 5.395836
vt 2.553586 1.061404
vt 2.465067 1.778930
vt 0.367204 1.481622
vt 2.329545 -1.802073
vt 2.979188 -1.802073
vt 2.979188 -0.090204
vt 1.724831 0.691381
vt 1.724831 -0.418836
vt 1.007306 -0.418836
vt 0.717083 -0.418836
vt 1.427523 -0.418836
vt 1.427523 0.691381
vt -1.330918 0.691381
vt -1.330918 -0.456466
vt -1.980561 -0.456466
vt 2.329545 2.819978
vt 2.979188 2.819978
vt 2.979188 1.056145
vt 2.329545 -3.253960
vt 2.979188 -3.253960
vt 2.979188 -1.490127
vt 2.329545 4.219901
vt 2.979188 4.219901
vt 2.979188 2.508032
vt 2.329545 -0.456466
vt 2.979188 -0.456466
vt 2.979188 0.691381
vt 1.007306 1.176725
vt 1.724831 1.176725
vt 1.427523 1.176725
vt 0.717083 1.176725
vt 0.717083 0.691381
vt 0.454849 0.771181
vt 2.329545 0.691381
vt 2.329545 1.307368
vt 2.979187 1.307368
vt -1.330918 1.307368
vt -1.980561 1.307368
vt -1.980561 0.691381
vt 2.329545 -0.090204
vt 1.007306 0.691381
vt 2.329545 1.056145
vt 2.329545 -1.490127
vt 2.329545 2.508032
vt 0.468663 0.273739
vt 1.079595 -0.500000
vt 0.074677 -0.500000
vt 2.031264 0.500000
vt 2.031264 0.615954
vt 1.349986 0.615954
vt 0.030447 0.531324
vt -0.044606 0.273739
vt -0.044606 0.531324
vt 0.468663 0.531324
vt 0.230581 0.531324
vt 0.074676 0.531324
vt 0.074676 0.700000
vt 0.079595 0.531324
vt 0.079595 0.021395
vt 0.681762 -0.500000
vt -0.198749 0.021395
vt 0.681762 0.531324
vt 0.658835 0.531324
vt 0.658835 -0.500000
vt 1.697152 -0.406956
vt 0.798591 -0.397866
vt 0.952811 0.025186
vt 0.798591 0.531324
vt 0.349986 0.265009
vt 0.349986 0.025186
vt 1.031264 0.531324
vt 0.590933 -0.500000
vt 0.074677 -0.397866
vt 0.590933 0.531324
vt 0.074677 -0.384046
vt 0.585330 -0.500000
vt 0.585330 0.531324
vt -0.044606 0.643930
vt 0.468663 0.643930
vt 0.697152 0.700000
vt -0.341165 0.700000
vt -0.341165 0.531324
vt 0.079595 0.700000
vt 0.801251 0.700000
vt 1.681762 0.700000
vt 1.681762 0.531324
vt 0.783201 -0.500000
vt 0.658835 0.500000
vt 1.697152 0.500000
vt 1.697152 0.593044
vt 0.186193 -0.500000
vt 0.072999 -0.500000
vt 0.072999 0.531324
vt 0.780463 -0.500000
vt 0.186193 0.531324
vt 0.900025 -0.500000
vt 0.780463 0.531324
vt 0.783201 0.500000
vt 0.783201 1.531324
vt 0.744980 1.531324
vt 0.918811 0.531324
vt 0.918811 -0.500000
vt 0.744980 -0.500000
vt 0.234324 -0.500000
vt 0.112074 -0.500000
vt 0.112074 0.531324
vt 0.027681 -0.500000
vt -0.081189 -0.500000
vt -0.081189 0.531324
vt 0.113364 -0.500000
vt 0.027681 0.531324
vt 0.241398 0.500000
vt 0.241398 1.531324
vt 0.287265 1.531324
vt 0.257286 0.531324
vt 0.257286 -0.500000
vt 0.287265 -0.500000
vt 0.912410 -0.500000
vt 0.532966 -0.500000
vt 0.532966 0.531324
vt 0.131623 -0.500000
vt 0.031264 -0.500000
vt -0.087590 -0.500000
vt -0.087590 0.531324
vt 0.970321 -0.500000
vt 1.131623 -0.500000
vt 1.131623 0.531324
vt 0.814548 -0.500000
vt 1.970321 -0.500000
vt 1.970321 0.531324
vt 0.909014 -0.500000
vt 1.031264 -0.500000
vt 0.814548 0.531324
vt -0.090986 -0.500000
vt -0.090986 0.531324
vt 0.920841 -0.500000
vt 0.798591 -0.500000
vt 0.820151 -0.500000
vt 0.920841 0.531324
vt 0.697152 -0.500000
vt 0.820151 0.531324
vt 0.074677 -0.406956
vt 1.079595 0.700000
vt 0.955394 0.643930
vt 0.952811 0.531324
vt 0.952811 0.674241
vt 0.031264 0.674241
vt -0.650014 0.674241
vt -0.650014 0.531324
vt 0.590933 0.700000
vt 0.585330 0.700000
vt 0.074676 0.674241
vt 0.681762 0.700000
vt 0.783201 0.700000
vt 0.783201 0.531324
vt 0.072999 0.700000
vt 0.186193 0.700000
vt 0.780463 0.700000
vt 0.900025 0.700000
vt 0.900025 0.531324
vt 0.744980 0.700000
vt 0.918811 0.700000
vt 0.744980 0.531324
vt 0.112074 0.700000
vt 0.234324 0.700000
vt 0.234324 0.531324
vt 1.027681 0.700000
vt 1.027681 0.531324
vt 0.027681 0.700000
vt 0.113364 0.700000
vt 0.113364 0.531324
vt 0.241398 0.531324
vt 0.241398 0.700000
vt 0.287265 0.700000
vt 0.257286 0.700000
vt 0.287265 0.531324
vt 0.532966 0.700000
vt 0.912410 0.700000
vt 0.912410 0.531324
vt 0.131623 0.700000
vt 0.131623 0.531324
vt 1.031264 0.700000
vt -0.029679 0.700000
vt -0.029679 0.531324
vt 0.970321 0.700000
vt -0.185452 0.700000
vt -0.185452 0.531324
vt 0.031264 0.700000
vt -0.090986 0.700000
vt 0.814548 0.700000
vt 0.909014 0.700000
vt 0.798591 0.700000
vt 0.920841 0.700000
vt 0.820151 0.700000
vt 0.697152 0.531324
vt -1.201409 0.700000
vt -1.047189 0.674241
vt 0.128244 0.800007
vt 0.287265 0.800007
vt 0.744980 1.800007
vt -0.361763 1.531324
vt -0.361763 1.150057
vt -0.467034 -0.500000
vt -1.255020 -0.750000
vt 0.074132 -0.750000
vt 0.744980 0.800007
vt 1.113364 0.531324
vt 1.113364 0.700000
vt 0.128244 1.800007
vt 1.287265 1.800007
vt 1.287265 0.250000
vt 0.128244 -0.750000
vt -1.076049 0.409750
vt 0.955394 0.273739
vt 1.079595 0.021395
vt 0.952811 0.615954
vt 0.798591 0.602134
vt 0.798591 0.500000
vt -0.198749 0.531324
vt -0.198749 -0.500000
vt 1.697152 0.531324
vt 0.952811 0.265009
vt 0.952811 -0.384046
vt 0.349986 0.531324
vt -0.047189 0.265009
vt -0.047189 0.025186
vt 0.349986 -0.384046
vt 1.031264 -0.384046
vt 0.801251 0.531324
vt 0.744980 0.500000
vt 0.287265 0.500000
vt 0.031264 0.531324
vt 0.970321 0.531324
vt 0.909014 0.531324
vt 1.030447 0.531324
vt -1.201409 0.531324
vt 1.287265 -0.750000
vt 1.287265 0.800007
vt -0.099975 0.700000
vt -0.099975 -0.500000
vt 0.287265 -0.750000
vt -0.361763 0.250000
vt 0.744980 0.250000
vt -0.361763 1.800007
vt -0.361763 1.643930
vt 0.074132 0.800007
vt -0.467034 0.531324
vt -0.467034 0.700000
vt -0.886636 -0.500000
vt 0.744980 -0.750000
vt 1.532966 0.700000
vt 2.074132 0.800007
vt 1.113364 -0.500000
vt 0.128244 0.250000
vt -1.076049 0.800007
vt -1.076049 0.531324
vt -1.076049 -0.750000
vt -1.076049 -0.384046
vt 0.128244 3.074132
vt 1.287265 1.744980
vt 0.128244 1.744980
vt 1.970321 3.031264
vt 1.186193 1.783201
vt 1.780463 1.783201
vt 0.923951 -2.528298
vt 2.128244 -1.255020
vt 0.923951 0.074132
vt 2.241398 2.113364
vt 2.112074 1.918811
vt 0.128244 0.638237
vt -1.076049 0.471702
vt -1.076049 3.074132
vt 1.287265 3.074132
vt 0.074677 1.697152
vt 0.074677 0.658835
vt 0.590933 1.697152
vt 1.072999 1.783201
vt 0.820151 1.920841
vt 1.079595 0.801251
vt 0.814548 2.909014
vt 0.820151 1.697152
vt 1.900025 1.783201
vt 1.900025 1.744980
vt 2.112074 1.744980
vt 1.072999 1.681762
vt 2.234324 1.918811
vt 2.238282 2.027681
vt 2.287265 2.113364
vt 2.257286 2.532966
vt 0.820151 1.798591
vt 2.287265 2.532966
vt 2.257286 2.912410
vt 2.131623 2.912410
vt 2.131623 3.031264
vt 0.814548 3.031264
vt 0.585330 2.909014
vt 0.585330 3.031264
vt 0.074677 3.031264
vt 0.074677 1.798591
vt 0.590933 1.920841
vt 0.590933 1.798591
vt 2.128244 0.074132
vt 2.128244 -2.361763
vt 3.287265 -1.255020
vt 3.287265 0.074132
vn 0.137000 0.000000 0.990600
vn -1.000000 0.000000 0.000000
vn 0.000000 1.000000 -0.000000
vn -0.992500 -0.000000 0.122400
vn 0.992500 0.000000 -0.122400
vn 0.000000 0.000000 -1.000000
vn 0.000000 0.000000 1.000000
vn 0.000000 -1.000000 0.000000
vn -0.140300 0.000000 -0.990100
vn 1.000000 0.000000 0.000000
vn -1.000000 0.000000 0.007500
vn -0.999300 0.000000 -0.036300
usemtl MurExtLow
s off
f 10/1/1 2/2/1 1/3/1
f 13/4/2 14/5/2 3/6/2
f 16/7/1 17/8/1 9/9/1
f 11/10/1 10/1/1 20/11/1
f 11/10/1 21/12/1 12/13/1
f 12/13/2 24/14/2 2/2/2
f 27/15/2 30/16/2 31/17/2
f 33/18/1 17/8/1 16/7/1
f 21/12/1 42/19/1 41/20/1
f 45/21/2 21/12/2 46/22/2
f 29/23/2 44/24/2 30/16/2
f 31/17/2 30/16/2 43/25/2
f 1/3/1 8/26/1 10/1/1
f 10/1/1 11/10/1 12/13/1
f 8/26/1 9/9/1 10/1/1
f 12/13/1 2/2/1 10/1/1
f 15/27/2 3/6/2 14/5/2
f 2/2/2 13/4/2 3/6/2
f 8/26/1 16/7/1 9/9/1
f 13/4/2 2/2/2 24/14/2
f 12/13/2 22/28/2 23/29/2
f 23/29/2 24/14/2 12/13/2
f 31/17/2 15/27/2 27/15/2
f 27/15/2 24/14/2 23/29/2
f 15/27/2 14/5/2 27/15/2
f 29/23/2 30/16/2 28/30/2
f 27/15/2 23/29/2 28/30/2
f 28/30/2 30/16/2 27/15/2
f 32/31/1 33/18/1 16/7/1
f 32/31/1 41/20/1 33/18/1
f 21/12/1 11/10/1 42/19/1
f 42/19/1 33/18/1 41/20/1
f 11/10/1 20/11/1 42/19/1
f 46/22/2 43/25/2 30/16/2
f 45/21/2 22/28/2 12/13/2
f 46/22/2 30/16/2 44/24/2
f 45/21/2 12/13/2 21/12/2
f 46/22/2 44/24/2 45/21/2
usemtl Ceramic
f 9/32/3 18/33/3 19/34/3
f 13/35/3 25/36/3 26/37/3
f 34/38/4 18/39/4 9/40/4
f 10/41/5 19/42/5 35/43/5
f 47/44/6 48/45/6 23/46/6
f 24/47/6 49/48/6 25/49/6
f 14/50/7 26/51/7 50/52/7
f 27/53/8 50/54/8 49/55/8
f 23/35/3 48/36/3 55/37/3
f 28/56/7 55/57/7 56/58/7
f 33/59/4 57/60/4 34/38/4
f 59/61/5 42/62/5 20/63/5
f 33/32/8 42/64/8 59/34/8
f 44/53/8 98/54/8 99/55/8
f 22/65/6 45/66/6 99/67/6
f 98/68/7 44/69/7 29/70/7
f 10/64/3 9/32/3 19/34/3
f 14/71/3 13/35/3 26/37/3
f 17/72/4 34/38/4 9/40/4
f 20/63/5 10/41/5 35/43/5
f 22/70/6 47/44/6 23/46/6
f 13/73/6 24/47/6 25/49/6
f 27/74/7 14/50/7 50/52/7
f 24/75/8 27/53/8 49/55/8
f 28/71/3 23/35/3 55/37/3
f 29/65/7 28/56/7 56/58/7
f 17/72/4 33/59/4 34/38/4
f 35/43/5 59/61/5 20/63/5
f 57/33/8 33/32/8 59/34/8
f 45/75/8 44/53/8 99/55/8
f 47/58/6 22/65/6 99/67/6
f 56/44/7 98/68/7 29/70/7
usemtl greyDWall
f 19/76/9 38/77/9 39/78/9
f 53/79/10 54/80/10 26/81/10
f 58/82/9 18/83/9 34/84/9
f 35/85/9 19/76/9 36/86/9
f 40/87/9 60/88/9 36/86/9
f 61/89/9 37/90/9 18/83/9
f 63/91/11 37/92/11 62/93/11
f 40/94/10 39/95/10 92/96/10
f 51/97/10 49/98/10 100/99/10
f 55/100/10 50/101/10 101/102/10
f 85/103/6 51/104/6 102/105/6
f 54/106/7 84/107/7 103/108/7
f 58/82/9 34/84/9 57/109/9
f 59/110/9 35/85/9 36/86/9
f 104/111/10 60/112/10 40/113/10
f 58/82/9 105/114/9 61/89/9
f 105/115/11 106/116/11 62/117/11
f 64/118/2 63/91/2 62/93/2
f 39/119/10 91/120/10 92/121/10
f 65/122/6 64/123/6 107/124/6
f 66/125/6 65/122/6 108/126/6
f 67/127/6 66/125/6 109/128/6
f 67/129/10 110/130/10 111/131/10
f 113/132/2 70/133/2 69/134/2
f 71/135/6 70/136/6 113/137/6
f 72/138/12 71/139/12 114/140/12
f 73/141/12 72/138/12 115/142/12
f 73/143/6 116/144/6 117/145/6
f 119/146/7 76/147/7 75/148/7
f 77/149/2 76/150/2 119/151/2
f 78/152/7 77/147/7 120/146/7
f 79/153/2 78/154/2 121/155/2
f 80/156/7 79/157/7 122/158/7
f 81/159/7 80/160/7 123/161/7
f 82/162/10 81/163/10 124/102/10
f 83/107/7 82/159/7 125/164/7
f 84/153/2 83/165/2 126/166/2
f 86/167/2 85/168/2 102/99/2
f 87/169/6 86/103/6 127/105/6
f 88/168/10 87/167/10 128/170/10
f 89/171/10 88/168/10 129/99/10
f 90/103/7 89/169/7 130/172/7
f 92/173/7 90/103/7 131/105/7
f 105/174/9 57/175/9 59/110/9
f 100/99/10 47/176/10 99/177/10
f 133/178/10 98/179/10 56/180/10
f 100/87/6 132/88/6 134/181/6
f 135/182/7 133/183/7 103/108/7
f 137/181/7 104/88/7 93/87/7
f 106/184/2 161/185/2 107/186/2
f 161/187/6 160/188/6 108/126/6
f 160/188/6 159/189/6 109/128/6
f 159/189/6 158/190/6 110/191/6
f 110/186/10 158/185/10 157/192/10
f 155/193/2 113/132/2 112/194/2
f 155/195/6 154/196/6 114/197/6
f 154/193/12 153/198/12 115/199/12
f 153/200/12 152/201/12 116/202/12
f 116/203/6 152/204/6 151/205/6
f 149/206/7 119/146/7 118/207/7
f 149/208/2 148/209/2 120/210/2
f 148/206/7 147/211/7 121/212/7
f 147/209/2 146/213/2 122/102/2
f 146/211/7 145/214/7 123/215/7
f 145/216/7 144/217/7 124/218/7
f 144/219/10 143/220/10 125/166/10
f 143/221/7 142/182/7 126/108/7
f 142/222/2 135/213/2 103/102/2
f 134/223/2 141/224/2 127/170/2
f 141/181/6 140/225/6 128/172/6
f 140/224/10 139/223/10 129/99/10
f 139/223/10 138/111/10 130/226/10
f 138/225/7 137/181/7 131/105/7
f 132/227/10 99/228/10 98/179/10
f 94/229/7 111/191/7 157/190/7
f 156/195/7 112/137/7 95/230/7
f 94/231/10 16/232/10 8/233/10
f 75/234/10 6/235/10 5/236/10
f 95/237/10 117/238/10 151/239/10
f 97/240/6 96/241/6 5/242/6
f 4/243/6 31/244/6 97/229/6
f 40/87/9 36/86/9 19/76/9
f 19/76/9 18/245/9 37/246/9
f 37/246/9 38/77/9 19/76/9
f 39/78/9 40/87/9 19/76/9
f 25/247/10 51/248/10 52/249/10
f 52/249/10 53/79/10 26/81/10
f 26/81/10 25/247/10 52/249/10
f 58/82/9 61/89/9 18/83/9
f 61/250/11 62/93/11 37/92/11
f 63/91/11 38/251/11 37/92/11
f 93/252/10 40/94/10 92/96/10
f 47/176/10 100/99/10 48/253/10
f 51/97/10 25/254/10 49/98/10
f 49/98/10 48/253/10 100/99/10
f 101/102/10 56/255/10 55/100/10
f 55/100/10 48/256/10 49/257/10
f 50/101/10 26/258/10 54/259/10
f 55/100/10 49/257/10 50/101/10
f 54/259/10 101/102/10 50/101/10
f 100/87/6 102/105/6 51/104/6
f 85/103/6 52/78/6 51/104/6
f 103/108/7 101/87/7 54/106/7
f 54/106/7 53/78/7 84/107/7
f 93/226/10 104/111/10 40/113/10
f 61/260/11 105/115/11 62/117/11
f 107/186/2 64/118/2 62/93/2
f 108/126/6 65/122/6 107/124/6
f 109/128/6 66/125/6 108/126/6
f 110/191/6 67/127/6 109/128/6
f 68/261/10 67/129/10 111/131/10
f 112/194/2 113/132/2 69/134/2
f 114/197/6 71/135/6 113/137/6
f 115/142/12 72/138/12 114/140/12
f 116/202/12 73/141/12 115/142/12
f 74/262/6 73/143/6 117/145/6
f 118/207/7 119/146/7 75/148/7
f 120/210/2 77/149/2 119/151/2
f 121/212/7 78/152/7 120/146/7
f 122/263/2 79/153/2 121/155/2
f 123/264/7 80/156/7 122/158/7
f 124/164/7 81/159/7 123/161/7
f 125/265/10 82/162/10 124/102/10
f 126/108/7 83/107/7 125/164/7
f 103/263/2 84/153/2 126/166/2
f 127/170/2 86/167/2 102/99/2
f 128/172/6 87/169/6 127/105/6
f 129/99/10 88/168/10 128/170/10
f 130/226/10 89/171/10 129/99/10
f 131/105/7 90/103/7 130/172/7
f 131/105/7 93/87/7 92/173/7
f 92/173/7 91/78/7 90/103/7
f 105/174/9 58/266/9 57/175/9
f 59/110/9 36/86/9 60/88/9
f 60/88/9 105/174/9 59/110/9
f 101/263/10 133/178/10 56/180/10
f 102/105/6 100/87/6 134/181/6
f 101/87/7 103/108/7 133/183/7
f 135/182/7 136/88/7 133/183/7
f 131/105/7 137/181/7 93/87/7
f 62/93/2 106/184/2 107/186/2
f 107/124/6 161/187/6 108/126/6
f 108/126/6 160/188/6 109/128/6
f 109/128/6 159/189/6 110/191/6
f 111/194/10 110/186/10 157/192/10
f 156/192/2 155/193/2 112/194/2
f 113/137/6 155/195/6 114/197/6
f 114/132/12 154/193/12 115/199/12
f 115/142/12 153/200/12 116/202/12
f 117/207/6 116/203/6 151/205/6
f 150/205/7 149/206/7 118/207/7
f 119/151/2 149/208/2 120/210/2
f 120/146/7 148/206/7 121/212/7
f 121/210/2 147/209/2 122/102/2
f 122/212/7 146/211/7 123/215/7
f 123/264/7 145/216/7 124/218/7
f 124/263/10 144/219/10 125/166/10
f 125/164/7 143/221/7 126/108/7
f 126/265/2 142/222/2 103/102/2
f 102/99/2 134/223/2 127/170/2
f 127/105/6 141/181/6 128/172/6
f 128/170/10 140/224/10 129/99/10
f 129/99/10 139/223/10 130/226/10
f 130/172/7 138/225/7 131/105/7
f 98/179/10 133/178/10 136/219/10
f 132/227/10 100/267/10 99/228/10
f 98/179/10 136/219/10 132/227/10
f 7/243/7 6/268/7 68/127/7
f 157/190/7 95/269/7 94/229/7
f 94/229/7 7/243/7 111/191/7
f 68/127/7 111/191/7 7/243/7
f 95/230/7 157/270/7 156/195/7
f 69/136/7 68/271/7 6/272/7
f 6/272/7 95/230/7 112/137/7
f 112/137/7 69/136/7 6/272/7
f 1/273/10 7/274/10 8/233/10
f 94/231/10 41/275/10 32/276/10
f 32/276/10 16/232/10 94/231/10
f 8/233/10 7/274/10 94/231/10
f 5/236/10 96/277/10 118/278/10
f 150/279/10 118/278/10 96/277/10
f 75/234/10 74/280/10 6/235/10
f 5/236/10 118/278/10 75/234/10
f 95/237/10 6/281/10 117/238/10
f 150/282/10 96/283/10 95/237/10
f 74/284/10 117/238/10 6/281/10
f 151/239/10 150/282/10 95/237/10
f 4/285/6 97/240/6 5/242/6
f 46/286/6 97/229/6 43/287/6
f 4/243/6 3/288/6 15/289/6
f 31/244/6 43/287/6 97/229/6
f 4/243/6 15/289/6 31/244/6
usemtl ceiling
f 4/290/8 6/291/8 7/292/8
f 80/293/3 65/294/3 66/295/3
f 21/296/3 94/297/3 46/298/3
f 152/299/8 155/300/8 159/295/8
f 7/292/8 1/301/8 2/302/8
f 2/302/8 3/303/8 7/292/8
f 4/290/8 5/304/8 6/291/8
f 7/292/8 3/303/8 4/290/8
f 91/305/3 39/306/3 90/307/3
f 64/308/3 65/294/3 87/309/3
f 39/306/3 38/310/3 90/307/3
f 65/294/3 80/293/3 82/311/3
f 90/307/3 38/310/3 89/312/3
f 67/313/3 68/314/3 69/315/3
f 89/312/3 38/310/3 63/316/3
f 67/313/3 69/315/3 70/300/3
f 89/312/3 63/316/3 64/308/3
f 66/295/3 67/313/3 70/300/3
f 70/300/3 71/317/3 72/318/3
f 73/299/3 74/319/3 76/320/3
f 70/300/3 72/318/3 73/299/3
f 88/321/3 89/312/3 64/308/3
f 66/295/3 70/300/3 73/299/3
f 74/319/3 75/322/3 76/320/3
f 76/320/3 77/323/3 78/324/3
f 78/324/3 79/325/3 80/293/3
f 80/293/3 81/326/3 82/311/3
f 83/327/3 84/328/3 53/329/3
f 78/324/3 80/293/3 76/320/3
f 83/327/3 53/329/3 52/330/3
f 76/320/3 80/293/3 66/295/3
f 82/311/3 83/327/3 86/331/3
f 52/330/3 85/332/3 86/331/3
f 87/309/3 88/321/3 64/308/3
f 83/327/3 52/330/3 86/331/3
f 87/309/3 65/294/3 82/311/3
f 82/311/3 86/331/3 87/309/3
f 73/299/3 76/320/3 66/295/3
f 97/333/3 46/298/3 94/297/3
f 21/296/3 41/334/3 94/297/3
f 94/297/3 95/335/3 96/336/3
f 96/336/3 97/333/3 94/297/3
f 105/310/8 60/306/8 137/307/8
f 104/305/8 137/307/8 60/306/8
f 138/312/8 161/308/8 106/316/8
f 141/331/8 134/332/8 132/330/8
f 105/310/8 137/307/8 138/312/8
f 141/331/8 132/330/8 142/327/8
f 105/310/8 138/312/8 106/316/8
f 140/309/8 141/331/8 143/311/8
f 136/329/8 135/328/8 142/327/8
f 143/311/8 144/326/8 145/293/8
f 132/330/8 136/329/8 142/327/8
f 160/294/8 161/308/8 140/309/8
f 141/331/8 142/327/8 143/311/8
f 138/312/8 139/321/8 161/308/8
f 159/295/8 160/294/8 145/293/8
f 161/308/8 139/321/8 140/309/8
f 143/311/8 145/293/8 160/294/8
f 147/324/8 148/323/8 149/320/8
f 145/293/8 146/325/8 147/324/8
f 160/294/8 140/309/8 143/311/8
f 156/315/8 157/314/8 158/313/8
f 158/313/8 159/295/8 155/300/8
f 145/293/8 147/324/8 149/320/8
f 149/320/8 150/322/8 151/319/8
f 153/318/8 154/317/8 155/300/8
f 149/320/8 151/319/8 152/299/8
f 152/299/8 153/318/8 155/300/8
f 155/300/8 156/315/8 158/313/8
f 159/295/8 145/293/8 149/320/8
f 149/320/8 152/299/8 159/295/8
