# Blender v2.76 (sub 0) OBJ File: 'Baker_home_10.blend'
# www.blender.org
mtllib garage_rdc.mtl
o Garage_RDC_Cube.038
v -1.152098 -0.500000 -15.160224
v -1.152098 -0.500000 -20.105623
v 6.017160 -0.500000 -20.105623
v 6.017160 -0.500000 -15.160224
v -1.152098 0.788282 -15.160224
v -1.152098 -0.023257 -16.057312
v -1.152098 -0.023257 -18.506998
v -1.152098 2.062649 -18.506998
v -1.152098 2.062649 -20.105623
v 5.792468 2.062649 -20.105623
v 5.792468 -0.040571 -20.105623
v 6.017160 -0.082941 -20.105623
v -1.152098 2.062649 -15.160224
v -1.152098 2.062649 -16.057312
v -0.850646 0.017506 -16.057312
v -0.850646 0.017506 -18.506998
v -0.850647 2.062649 -18.506998
v -1.152098 2.121001 -18.506998
v -1.152098 2.600013 -20.105623
v 6.017160 2.121001 -20.105623
v 5.792468 2.121001 -20.105623
v 6.017160 2.166060 -20.105623
v 5.792468 2.062649 -19.856251
v 5.792468 0.000000 -19.856251
v 5.792468 0.000000 -19.682388
v 6.017160 -0.040571 -20.105623
v -1.152098 2.335659 -15.160224
v -1.152098 2.121001 -16.057312
v -0.850647 2.062649 -16.057312
v -0.850647 0.691663 -15.290440
v -0.850646 0.000000 -15.290440
v -0.850646 0.000000 -19.856251
v -0.850647 2.062649 -19.856251
v -0.850647 2.121001 -18.506998
v 6.017160 2.121001 -19.856251
v 5.792468 2.121001 -19.856251
v 6.017160 2.600013 -20.105623
v 5.748476 2.062649 -19.856251
v 5.748476 0.000000 -19.856251
v 6.017160 0.000000 -19.682388
v 5.748476 0.000000 -19.188927
v 6.016470 0.000000 -19.188927
v 6.017160 0.000000 -19.188927
v -1.152098 2.489297 -15.160224
v -0.850647 2.121001 -16.057312
v -0.850647 2.062649 -15.290440
v -0.850647 2.400000 -19.856251
v 1.658064 2.062649 -15.290440
v 1.658064 0.000000 -15.290440
v 1.864408 0.000000 -15.290440
v 4.535086 0.000000 -15.260962
v 4.535086 0.000000 -15.549843
v 4.935982 0.000000 -15.549843
v 4.935982 0.000000 -15.260962
v 5.967701 0.000000 -15.260962
v 6.016470 0.000000 -18.819506
v 5.748476 0.000000 -18.819506
v 5.397822 0.000000 -18.819506
v 5.397822 0.000000 -19.188927
v 5.397822 0.000000 -19.856251
v 4.935317 0.000000 -19.856251
v 4.935317 0.000000 -18.819504
v 4.525707 0.000000 -18.819504
v 4.525707 0.000000 -19.856251
v 4.525707 2.062649 -19.856251
v 6.017160 2.400000 -19.856251
v 5.748476 2.400000 -19.856251
v 5.748476 2.395933 -19.856251
v -0.088287 2.600013 -15.160224
v 6.017160 2.600013 -15.160224
v 5.748476 2.062649 -19.780678
v 5.748476 1.921901 -19.748764
v 5.748476 1.230905 -19.748764
v 5.748476 1.230905 -19.284510
v 6.016470 2.062649 -19.188927
v 5.748476 2.062649 -19.188927
v 6.017160 2.062649 -19.188927
v -1.152098 2.600013 -15.160224
v -0.850647 2.239671 -15.290440
v 4.525707 2.400000 -19.856251
v -0.850647 2.400000 -15.290440
v 0.014983 2.400000 -15.290440
v 1.658064 2.400000 -15.290440
v 1.864408 2.062649 -15.290440
v 4.535086 2.062649 -15.260962
v 4.535086 2.062649 -15.549843
v 4.935982 2.062649 -15.549843
v 4.935982 2.062649 -15.260962
v 5.967701 2.062649 -15.260962
v 6.016470 2.062649 -18.819506
v 5.748476 2.062649 -18.819506
v 5.397822 2.062649 -18.819506
v 5.397822 2.062649 -19.188927
v 5.397822 2.062649 -19.856251
v 5.397822 1.230905 -19.280144
v 5.397822 1.230905 -19.744396
v 5.397822 1.921901 -19.744396
v 5.397822 2.062649 -19.777279
v 4.935317 2.062649 -19.856251
v 4.935317 2.062649 -18.819504
v 4.525707 2.062649 -18.819504
v 6.017160 2.400000 -19.188927
v 6.016470 2.400000 -19.188927
v 5.748476 2.400000 -19.188927
v 5.748476 1.921901 -19.284510
v 4.525707 2.400000 -18.819504
v 5.397822 2.400000 -19.856251
v 5.397822 2.400000 -19.856092
v 5.397822 2.400000 -19.188927
v 5.397822 2.400000 -18.819506
v 5.748476 2.400000 -18.819506
v 6.016470 2.400000 -18.819506
v 5.967701 2.400000 -15.260962
v 4.935982 2.400000 -15.260962
v 4.935982 2.400000 -15.549843
v 4.535086 2.400000 -15.549843
v 4.535086 2.400000 -15.260962
v 1.864408 2.400000 -15.290440
v 4.935317 2.400000 -18.819504
v 4.935317 2.400000 -19.856251
v 5.397822 1.921901 -19.280144
vn 0.000000 -1.000000 0.000000
vn -1.000000 0.000000 0.000000
vn 0.000000 0.000000 -1.000000
vn -0.134000 0.991000 0.000000
vn 0.000000 0.000000 1.000000
vn 1.000000 0.000000 0.000000
vn 0.000000 1.000000 -0.000000
vn 0.000000 0.995400 -0.095400
vn 0.011000 0.000000 -0.999900
vn -0.999900 0.000000 -0.013700
vn 0.012500 0.000000 0.999900
vn -0.012400 0.000000 -0.999900
vn -0.012500 0.000000 -0.999900
usemtl Matiere
s off
f 2//1 3//1 4//1
f 7//2 2//2 1//2
f 9//3 10//3 11//3
f 14//2 6//2 5//2
f 6//4 15//4 16//4
f 8//5 7//5 16//5
f 18//2 19//2 9//2
f 21//3 19//3 22//3
f 24//6 11//6 10//6
f 12//3 11//3 26//3
f 19//2 28//2 27//2
f 15//3 6//3 14//3
f 16//6 31//6 32//6
f 34//5 18//5 8//5
f 36//1 21//1 20//1
f 21//6 36//6 23//6
f 22//3 19//3 37//3
f 39//5 24//5 23//5
f 25//7 42//7 40//7
f 11//8 25//8 40//8
f 44//2 19//2 27//2
f 18//1 34//1 45//1
f 28//3 45//3 29//3
f 30//6 15//6 29//6
f 33//6 47//6 34//6
f 49//3 30//3 48//3
f 57//7 58//7 53//7
f 32//5 64//5 65//5
f 68//5 38//5 36//5
f 37//7 19//7 69//7
f 73//6 39//6 38//6
f 42//3 41//3 76//3
f 42//3 75//3 77//3
f 78//2 19//2 44//2
f 45//6 47//6 79//6
f 80//5 47//5 33//5
f 79//3 82//3 46//3
f 50//3 49//3 48//3
f 51//9 50//9 84//9
f 52//2 51//2 85//2
f 53//3 52//3 86//3
f 54//6 53//6 87//6
f 55//3 54//3 88//3
f 56//10 55//10 89//10
f 57//5 56//5 90//5
f 58//5 57//5 91//5
f 59//2 58//2 92//2
f 60//2 96//2 94//2
f 61//5 60//5 94//5
f 62//6 61//6 99//6
f 63//5 62//5 100//5
f 64//2 63//2 101//2
f 103//1 67//1 66//1
f 68//6 104//6 71//6
f 38//6 68//6 71//6
f 69//7 19//7 78//7
f 76//6 105//6 71//6
f 96//11 73//11 72//11
f 74//7 73//7 96//7
f 104//3 103//3 75//3
f 75//3 103//3 102//3
f 81//6 79//6 47//6
f 106//2 80//2 65//2
f 115//1 116//1 119//1
f 82//1 81//1 47//1
f 83//3 118//3 84//3
f 118//9 117//9 85//9
f 117//2 116//2 86//2
f 116//3 115//3 87//3
f 115//6 114//6 88//6
f 114//3 113//3 89//3
f 113//10 112//10 90//10
f 112//5 111//5 91//5
f 111//5 110//5 92//5
f 110//2 109//2 93//2
f 95//2 59//2 93//2
f 108//2 107//2 94//2
f 107//5 120//5 99//5
f 120//6 119//6 100//6
f 119//5 106//5 101//5
f 74//12 95//12 121//12
f 105//1 121//1 97//1
f 109//2 108//2 98//2
f 69//5 13//5 5//5
f 70//6 77//6 102//6
f 1//1 2//1 4//1
f 1//2 5//2 6//2
f 7//2 8//2 9//2
f 1//2 6//2 7//2
f 7//2 9//2 2//2
f 12//3 3//3 11//3
f 2//3 9//3 11//3
f 11//3 3//3 2//3
f 13//2 14//2 5//2
f 7//4 6//4 16//4
f 17//5 8//5 16//5
f 8//2 18//2 9//2
f 22//3 20//3 21//3
f 21//3 10//3 9//3
f 9//3 19//3 21//3
f 10//6 23//6 24//6
f 24//6 25//6 11//6
f 13//2 27//2 28//2
f 19//2 18//2 28//2
f 28//2 14//2 13//2
f 29//3 15//3 14//3
f 33//6 17//6 16//6
f 15//6 30//6 31//6
f 32//6 33//6 16//6
f 16//6 15//6 31//6
f 17//5 34//5 8//5
f 35//1 36//1 20//1
f 10//6 21//6 23//6
f 38//5 39//5 23//5
f 43//7 40//7 42//7
f 25//7 24//7 39//7
f 41//7 42//7 25//7
f 25//7 39//7 41//7
f 26//8 11//8 40//8
f 28//1 18//1 45//1
f 14//3 28//3 29//3
f 46//6 30//6 29//6
f 17//6 33//6 34//6
f 46//3 48//3 30//3
f 49//3 31//3 30//3
f 32//7 31//7 49//7
f 50//7 51//7 52//7
f 32//7 49//7 63//7
f 63//7 64//7 32//7
f 60//7 61//7 59//7
f 63//7 49//7 50//7
f 59//7 61//7 62//7
f 62//7 63//7 52//7
f 53//7 54//7 55//7
f 63//7 50//7 52//7
f 53//7 55//7 56//7
f 62//7 52//7 53//7
f 58//7 59//7 62//7
f 56//7 57//7 53//7
f 62//7 53//7 58//7
f 33//5 32//5 65//5
f 35//5 66//5 36//5
f 67//5 68//5 66//5
f 38//5 23//5 36//5
f 36//5 66//5 68//5
f 70//7 37//7 69//7
f 38//6 71//6 72//6
f 73//6 74//6 41//6
f 38//6 72//6 73//6
f 73//6 41//6 39//6
f 75//3 42//3 76//3
f 43//3 42//3 77//3
f 46//6 29//6 45//6
f 45//6 34//6 47//6
f 79//6 46//6 45//6
f 65//5 80//5 33//5
f 48//3 46//3 82//3
f 79//3 81//3 82//3
f 82//3 83//3 48//3
f 84//3 50//3 48//3
f 85//9 51//9 84//9
f 86//2 52//2 85//2
f 87//3 53//3 86//3
f 88//6 54//6 87//6
f 89//3 55//3 88//3
f 90//10 56//10 89//10
f 91//5 57//5 90//5
f 92//5 58//5 91//5
f 93//2 59//2 92//2
f 98//2 94//2 97//2
f 60//2 59//2 96//2
f 96//2 97//2 94//2
f 59//2 95//2 96//2
f 99//5 61//5 94//5
f 100//6 62//6 99//6
f 101//5 63//5 100//5
f 65//2 64//2 101//2
f 66//1 102//1 103//1
f 103//1 104//1 67//1
f 76//6 71//6 104//6
f 68//6 67//6 104//6
f 76//6 41//6 74//6
f 72//6 71//6 105//6
f 76//6 74//6 105//6
f 97//11 96//11 72//11
f 95//7 74//7 96//7
f 76//3 104//3 75//3
f 77//3 75//3 102//3
f 101//2 106//2 65//2
f 120//1 107//1 108//1
f 110//1 111//1 115//1
f 120//1 108//1 109//1
f 111//1 112//1 115//1
f 120//1 109//1 119//1
f 47//1 80//1 106//1
f 119//1 109//1 110//1
f 82//1 47//1 83//1
f 119//1 110//1 115//1
f 47//1 106//1 83//1
f 118//1 83//1 106//1
f 116//1 117//1 118//1
f 113//1 114//1 115//1
f 116//1 106//1 119//1
f 112//1 113//1 115//1
f 118//1 106//1 116//1
f 48//3 83//3 84//3
f 84//9 118//9 85//9
f 85//2 117//2 86//2
f 86//3 116//3 87//3
f 87//6 115//6 88//6
f 88//3 114//3 89//3
f 89//10 113//10 90//10
f 90//5 112//5 91//5
f 91//5 111//5 92//5
f 92//2 110//2 93//2
f 93//2 98//2 121//2
f 121//2 95//2 93//2
f 98//2 97//2 121//2
f 98//2 108//2 94//2
f 94//5 107//5 99//5
f 99//6 120//6 100//6
f 100//5 119//5 101//5
f 105//13 74//13 121//13
f 72//1 105//1 97//1
f 93//2 109//2 98//2
f 1//5 69//5 5//5
f 70//5 69//5 4//5
f 78//5 44//5 69//5
f 27//5 13//5 69//5
f 1//5 4//5 69//5
f 69//5 44//5 27//5
f 4//6 3//6 43//6
f 20//6 22//6 35//6
f 3//6 12//6 40//6
f 35//6 22//6 66//6
f 12//6 26//6 40//6
f 66//6 22//6 37//6
f 3//6 40//6 43//6
f 66//6 37//6 102//6
f 70//6 4//6 77//6
f 43//6 77//6 4//6
f 102//6 37//6 70//6
