# Blender v2.76 (sub 0) OBJ File: 'rdcc_3.blend'
# www.blender.org
mtllib salle2_rdc.mtl
o Salle2_RDC_Cube.021
v 1.116585 -0.500000 0.758876
v -0.797395 -0.500000 1.023550
v -0.797395 -0.500000 -0.989960
v -0.797395 -0.500000 -0.989960
v -0.797395 -0.500000 -0.989960
v 1.116585 -0.500000 -0.989960
v 1.116585 2.062649 0.758876
v 0.470723 2.062649 0.848189
v 0.470723 1.547479 0.848189
v -0.503145 1.547479 0.982860
v -0.503145 2.062649 0.982860
v -0.559951 2.062649 0.990715
v -0.797395 1.121276 1.023550
v 1.116585 2.240706 0.758876
v 0.470723 2.287860 0.848189
v 0.428391 2.062649 0.505049
v 0.428391 1.547479 0.505049
v -0.545072 1.547479 0.643007
v -0.545072 2.062649 0.643007
v -0.503145 2.287860 0.982860
v -0.797395 2.062649 1.023550
v 1.116585 2.600013 0.758876
v -0.797395 2.600013 1.023550
v -0.797395 2.287860 1.023550
v 0.428391 2.287860 0.505049
v 0.994370 2.062649 0.424839
v 0.994370 1.036051 0.424838
v 0.994370 -0.000000 0.424838
v -0.699874 -0.000000 0.664945
v -0.699874 1.396254 0.664945
v -0.545072 2.287860 0.643007
v -0.699874 2.062649 0.664946
v 1.116585 2.600013 -0.989960
v -0.797395 2.600013 -0.989960
v -0.797395 2.600013 -0.989960
v -0.797395 2.600013 -0.989960
v 0.991436 -0.000000 -0.989960
v 0.991436 2.062649 -0.989960
v 0.171526 0.000000 -0.989960
v 0.171526 0.000000 -0.879185
v -0.031353 0.000000 -0.879185
v -0.275852 0.000000 -0.879185
v -0.699950 0.000000 -0.863524
v -0.699950 0.000000 -0.781741
v -0.797395 0.000000 -0.781741
v -0.797395 -0.000000 -0.052870
v -0.716619 -0.000000 -0.052870
v -0.716619 2.062649 -0.052870
v -0.699874 2.299679 0.664946
v 0.994370 2.334208 0.424839
v 0.994370 2.400000 0.424839
v 0.991436 2.400000 -0.989960
v 0.171526 2.062649 -0.989960
v 0.171526 2.062649 -0.879185
v -0.031353 2.062649 -0.879185
v -0.275852 2.062649 -0.879185
v -0.699950 0.000000 -0.989960
v -0.275852 0.000000 -0.989960
v -0.699950 2.062649 -0.781741
v -0.699950 2.062649 -0.863524
v -0.797395 2.062649 -0.781741
v -0.797395 2.062649 -0.052870
v -0.716619 2.400000 -0.052870
v -0.699874 2.400000 0.664946
v -0.031353 2.400000 -0.879185
v 0.171526 2.400000 -0.879185
v 0.171526 2.400000 -0.989960
v -0.797395 2.400000 -0.052870
v -0.797395 2.400000 -0.781741
v -0.699950 2.400000 -0.781741
v -0.699950 2.400000 -0.863524
v -0.275852 2.400000 -0.879185
v -0.275852 2.062649 -0.989960
v -0.699950 2.062649 -0.989960
v -0.275852 2.400000 -0.989960
v -0.699950 2.400000 -0.989960
vt -0.983016 1.462707
vt -1.557864 0.637948
vt 0.919498 1.462683
vt 2.181250 2.804161
vt 0.919517 2.895430
vt 0.919511 2.459611
vt -0.983002 2.459637
vt -0.982997 2.895456
vt -1.093976 2.459639
vt -1.557839 2.459646
vt -1.557825 3.499527
vt -1.557833 2.895464
vt 2.181181 -2.499526
vt 2.181246 2.459594
vt -1.557907 -2.499471
vt 2.181260 3.499476
vt 1.861886 0.192518
vt 1.861887 -0.901933
vt 1.132902 -0.901933
vt 3.934863 1.444164
vt 3.844931 2.173148
vt 1.776860 1.880063
vt 0.846800 -0.901933
vt 1.568801 -0.901933
vt 1.568801 0.192518
vt 1.132902 0.192518
vt 1.132902 0.670969
vt 1.861886 0.670969
vt 1.568801 0.670969
vt 0.846800 0.670969
vt 0.846800 0.192518
vt -0.314034 1.444164
vt -2.382967 1.158062
vt -2.472038 1.880062
vt 1.865931 1.158062
vt -0.403966 2.173148
vt 0.747185 0.531324
vt 0.747185 0.018025
vt 0.464195 0.273739
vt -0.099937 -0.500000
vt -0.099937 0.198127
vt 0.977464 0.273739
vt 0.900063 0.198127
vt 0.900063 0.531324
vt 0.464195 0.643930
vt 0.464195 0.531324
vt 0.037581 0.500000
vt 0.037581 1.018025
vt 0.744980 0.500000
vt 0.917527 0.198127
vt 1.276435 -0.500000
vt 1.276435 0.531324
vt 0.977464 0.643930
vt 0.977464 0.531324
vt -0.022536 0.643930
vt -0.099937 0.649840
vt 0.037581 0.667104
vt 0.037581 0.700000
vt 0.744980 0.700000
vt 0.689593 0.531324
vt 0.689593 -0.500000
vt 0.744980 -0.500000
vt 0.234324 -0.500000
vt 0.335763 -0.500000
vt 0.335763 0.531324
vt 0.112074 -0.500000
vt 0.234324 0.531324
vt 0.900025 0.744980
vt 0.900025 0.681762
vt 1.112074 0.689593
vt 0.640870 -0.500000
vt 0.681762 -0.500000
vt 0.681762 0.531324
vt 0.900025 0.500000
vt 0.900025 1.531324
vt 0.851303 1.531324
vt 0.891690 0.531324
vt 0.891690 -0.500000
vt 0.851303 -0.500000
vt 0.276435 0.700000
vt -0.082473 0.649840
vt 0.276435 0.531324
vt 0.747185 0.667104
vt -0.099937 0.700000
vt 0.689593 0.700000
vt 0.744980 0.531324
vt 0.335763 0.700000
vt 0.234324 0.700000
vt 0.112074 0.700000
vt 0.112074 0.531324
vt 0.689593 0.500000
vt 0.689593 1.531324
vt 0.744980 1.531324
vt 0.681762 0.700000
vt 0.640870 0.700000
vt 0.640870 0.531324
vt 0.900025 0.531324
vt 0.900025 0.700000
vt 0.851303 0.700000
vt 0.891690 0.700000
vt 0.851303 0.531324
vt 0.112074 0.689593
vt -0.099975 0.681762
vt -0.099975 0.744980
vt 0.744980 0.800007
vt -0.261775 1.531324
vt 0.276435 1.531324
vt -0.261775 1.060638
vt 0.851303 0.744980
vt 1.112074 0.500000
vt 1.335763 0.500000
vt 0.851303 0.250000
vt 0.851303 0.800007
vt 1.335763 0.700000
vt 1.112074 0.700000
vt 0.744980 1.800007
vt -0.129438 1.531324
vt 0.744980 0.250000
vt 0.747185 -0.500000
vt -0.022536 0.273739
vt 0.037581 1.531324
vt 0.917527 0.531324
vt 0.917527 -0.500000
vt -0.099937 0.531324
vt 0.037581 0.531324
vt 1.112074 0.744980
vt 0.851303 0.500000
vt -0.082473 0.531324
vt -0.082473 0.700000
vt 0.747185 0.700000
vt 0.112074 0.744980
vt 0.744980 -0.750000
vt 0.276435 -0.500000
vt -0.261775 0.643930
vt -0.261775 0.800007
vt 0.276435 0.500000
vt -0.261775 0.250000
vt -0.261775 1.643930
vt 0.276435 1.700000
vt 1.808292 0.250000
vt 1.112074 1.531324
vt 1.112074 1.700000
vt 1.335763 1.531324
vt 1.745718 0.500000
vt 1.808292 0.800007
vt 1.808292 -0.750000
vt 1.745718 0.531324
vt 0.900025 -0.500000
vt 0.851303 -0.750000
vt 1.745718 -0.500000
vt 1.745718 0.700000
vt 1.335763 0.531324
vt -0.129438 0.250000
vt -0.129438 1.800007
vt -0.129438 1.620353
vt -0.148697 0.738225
vt -0.148697 1.744980
vt 0.808292 0.870562
vt 1.808292 0.870562
vt 1.808292 1.744980
vt 0.851303 1.744980
vt -0.099975 0.640870
vt -0.108310 0.276435
vt 0.335763 0.689593
vt 0.234324 0.689593
vt 0.808292 1.744980
vt 0.851303 0.738225
vt -0.099937 -0.082473
vt 0.747185 0.037581
vt 0.745718 0.744980
vt 0.335763 0.744980
vt -0.148697 0.640870
vt -0.148697 0.276435
vn 0.137000 0.000000 0.990600
vn -0.992500 0.000000 0.122400
vn 0.000000 1.000000 0.000000
vn 0.992500 -0.000000 -0.122400
vn 0.000000 -1.000000 0.000000
vn -0.140300 0.000000 -0.990100
vn -1.000000 0.000000 0.002100
vn 0.999700 0.000000 -0.023300
vn 1.000000 0.000000 0.000000
vn 0.000000 0.000000 1.000000
vn 0.000000 0.000000 -1.000000
vn -1.000000 0.000000 0.000000
usemtl MurExtLow
s off
f 10/1/1 13/2/1 9/3/1
f 14/4/1 15/5/1 8/6/1
f 11/7/1 20/8/1 12/9/1
f 13/2/1 12/9/1 21/10/1
f 23/11/1 20/8/1 15/5/1
f 12/9/1 20/8/1 24/12/1
f 1/13/1 7/14/1 9/3/1
f 10/1/1 11/7/1 12/9/1
f 7/14/1 8/6/1 9/3/1
f 10/1/1 12/9/1 13/2/1
f 1/13/1 9/3/1 13/2/1
f 13/2/1 2/15/1 1/13/1
f 7/14/1 14/4/1 8/6/1
f 14/4/1 22/16/1 15/5/1
f 23/11/1 24/12/1 20/8/1
f 15/5/1 22/16/1 23/11/1
f 21/10/1 12/9/1 24/12/1
usemtl Ceramic
f 16/17/2 17/18/2 9/19/2
f 9/20/3 17/21/3 18/22/3
f 10/23/4 18/24/4 19/25/4
f 8/26/2 15/27/2 25/28/2
f 31/29/4 20/30/4 11/31/4
f 15/32/5 20/33/5 31/34/5
f 8/26/2 16/17/2 9/19/2
f 10/35/3 9/20/3 18/22/3
f 11/31/4 10/23/4 19/25/4
f 16/17/2 8/26/2 25/28/2
f 19/25/4 31/29/4 11/31/4
f 25/36/5 15/32/5 31/34/5
usemtl greyDWall
f 26/37/6 27/38/6 17/39/6
f 29/40/6 30/41/6 17/39/6
f 18/42/6 30/43/6 32/44/6
f 25/45/6 26/37/6 16/46/6
f 28/47/7 27/48/7 37/49/7
f 30/50/8 47/51/8 48/52/8
f 31/53/6 19/54/6 32/44/6
f 31/55/6 49/56/6 25/45/6
f 50/57/7 51/58/7 52/59/7
f 54/60/9 40/61/9 39/62/9
f 41/63/10 40/64/10 54/65/10
f 42/66/10 41/63/10 55/67/10
f 57/68/3 43/69/3 42/70/3
f 44/71/9 43/72/9 60/73/9
f 44/74/10 59/75/10 61/76/10
f 48/77/11 47/78/11 46/79/11
f 63/80/8 49/81/8 48/82/8
f 50/83/6 49/56/6 64/84/6
f 66/85/9 54/60/9 53/86/9
f 66/87/10 65/88/10 55/67/10
f 65/88/10 72/89/10 56/90/10
f 42/91/12 56/92/12 73/93/12
f 60/73/9 43/72/9 57/62/9
f 71/94/9 70/95/9 59/96/9
f 59/97/10 70/98/10 69/99/10
f 63/100/11 48/77/11 62/101/11
f 72/102/5 71/103/5 76/104/5
f 56/60/12 72/85/12 75/59/12
f 71/94/9 60/73/9 74/86/9
f 36/105/12 69/95/12 68/80/12
f 21/106/12 62/107/12 13/108/12
f 3/109/10 36/109/10 35/109/10
f 4/109/10 35/109/10 34/109/10
f 58/110/11 39/111/11 5/112/11
f 34/113/11 67/114/11 75/115/11
f 33/116/9 7/117/9 6/118/9
f 16/46/6 26/37/6 17/39/6
f 17/39/6 27/38/6 29/40/6
f 28/119/6 29/40/6 27/38/6
f 30/41/6 18/120/6 17/39/6
f 19/54/6 18/42/6 32/44/6
f 38/93/7 37/49/7 27/48/7
f 27/48/7 26/121/7 38/93/7
f 48/52/8 32/122/8 30/50/8
f 30/50/8 29/123/8 47/51/8
f 50/83/6 26/37/6 25/45/6
f 31/55/6 32/124/6 49/56/6
f 50/83/6 25/45/6 49/56/6
f 52/59/7 38/86/7 50/57/7
f 26/125/7 50/57/7 38/86/7
f 53/86/9 54/60/9 39/62/9
f 55/67/10 41/63/10 54/65/10
f 56/90/10 42/66/10 55/67/10
f 58/126/3 57/68/3 42/70/3
f 59/96/9 44/71/9 60/73/9
f 45/127/10 44/74/10 61/76/10
f 62/101/11 48/77/11 46/79/11
f 32/128/8 48/82/8 49/81/8
f 63/80/8 64/129/8 49/81/8
f 51/130/6 50/83/6 64/84/6
f 67/59/9 66/85/9 53/86/9
f 54/65/10 66/87/10 55/67/10
f 55/67/10 65/88/10 56/90/10
f 58/49/12 42/91/12 73/93/12
f 74/86/9 60/73/9 57/62/9
f 60/73/9 71/94/9 59/96/9
f 61/101/10 59/97/10 69/99/10
f 68/99/11 63/100/11 62/101/11
f 75/131/5 72/102/5 76/104/5
f 73/86/12 56/60/12 75/59/12
f 76/59/9 71/94/9 74/86/9
f 3/132/12 46/133/12 45/71/12
f 24/134/12 23/135/12 68/80/12
f 36/105/12 3/132/12 61/96/12
f 45/71/12 61/96/12 3/132/12
f 68/80/12 23/135/12 36/105/12
f 36/105/12 61/96/12 69/95/12
f 46/136/12 3/118/12 2/137/12
f 2/137/12 13/108/12 46/136/12
f 21/106/12 24/138/12 62/107/12
f 68/139/12 62/107/12 24/138/12
f 46/136/12 13/108/12 62/107/12
f 4/109/10 3/109/10 35/109/10
f 5/109/10 4/109/10 34/109/10
f 6/140/11 5/112/11 39/111/11
f 73/141/11 75/142/11 53/143/11
f 5/112/11 57/74/11 58/110/11
f 58/110/11 73/141/11 53/143/11
f 39/111/11 37/144/11 6/140/11
f 58/110/11 53/143/11 39/111/11
f 33/145/11 6/146/11 38/147/11
f 57/148/11 5/149/11 74/97/11
f 6/146/11 37/150/11 38/147/11
f 74/97/11 5/149/11 34/113/11
f 33/145/11 38/147/11 52/151/11
f 76/98/11 74/97/11 34/113/11
f 34/113/11 33/145/11 67/114/11
f 67/114/11 53/152/11 75/115/11
f 33/145/11 52/151/11 67/114/11
f 75/115/11 76/98/11 34/113/11
f 1/153/9 6/118/9 7/117/9
f 33/116/9 22/154/9 14/155/9
f 14/155/9 7/117/9 33/116/9
usemtl ceiling
f 2/156/5 3/157/5 1/158/5
f 22/159/3 33/160/3 35/161/3
f 42/102/3 44/162/3 47/163/3
f 66/164/5 63/163/5 65/165/5
f 6/166/5 1/158/5 3/157/5
f 3/157/10 4/157/10 5/157/10
f 3/157/10 5/157/10 6/166/10
f 23/167/3 22/159/3 35/161/3
f 35/161/10 36/161/10 23/167/10
f 33/160/10 34/161/10 35/161/10
f 29/168/3 28/169/3 47/163/3
f 37/170/3 39/171/3 40/164/3
f 40/164/3 41/165/3 47/163/3
f 42/102/3 43/103/3 44/162/3
f 44/162/3 45/172/3 47/163/3
f 47/163/3 28/169/3 40/164/3
f 45/172/3 46/173/3 47/163/3
f 41/165/3 42/102/3 47/163/3
f 28/169/3 37/170/3 40/164/3
f 72/102/5 65/165/5 63/163/5
f 66/164/5 67/171/5 52/170/5
f 52/170/5 51/169/5 66/164/5
f 63/163/5 68/173/5 69/172/5
f 51/169/5 64/168/5 63/163/5
f 71/103/5 72/102/5 70/162/5
f 66/164/5 51/169/5 63/163/5
f 63/163/5 69/172/5 70/162/5
f 70/162/5 72/102/5 63/163/5
