# Blender v2.76 (sub 0) OBJ File: 'rdcc_6.blend'
# www.blender.org
mtllib transparent_rdc.mtl
o rdc_transparent_Cube.001
v -0.179025 1.506732 -0.149726
v -0.179025 2.405176 -0.149726
v -0.207388 1.506732 -0.356699
v -0.207388 2.405176 -0.356699
v 4.135829 1.506732 -0.741024
v 4.135829 2.405176 -0.741024
v 4.107466 1.506732 -0.947996
v 4.107466 2.405176 -0.947996
v 1.284887 0.284151 -0.350337
v 1.284887 1.182595 -0.350337
v 1.256524 0.284151 -0.557310
v 1.256524 1.182595 -0.557310
v 2.671917 0.284151 -0.540413
v 2.671917 1.182595 -0.540413
v 2.643554 0.284151 -0.747385
v 2.643554 1.182595 -0.747385
v -1.099437 1.506731 -9.810382
v -1.099437 2.405176 -9.810382
v -0.890531 1.506731 -9.810382
v -0.890531 2.405176 -9.810382
v -1.099437 1.506731 -2.633282
v -1.099437 2.405176 -2.633282
v -0.890531 1.506731 -2.633282
v -0.890531 2.405176 -2.633282
v -1.099437 0.205489 -9.810382
v -1.099437 1.103933 -9.810382
v -0.890531 0.205489 -9.810382
v -0.890531 1.103933 -9.810382
v -1.099437 0.205489 -2.633282
v -1.099437 1.103933 -2.633282
v -0.890531 0.205489 -2.633282
v -0.890531 1.103933 -2.633282
v -1.099437 1.293711 -14.621844
v -1.099437 2.192155 -14.621844
v -0.890531 1.293711 -14.621844
v -0.890531 2.192155 -14.621844
v -1.099437 1.293711 -13.301292
v -1.099437 2.192155 -13.301292
v -0.890531 1.293711 -13.301292
v -0.890531 2.192155 -13.301292
v 5.468687 1.080599 -19.876659
v 5.468687 1.979043 -19.876659
v 5.677594 1.080599 -19.876659
v 5.677594 1.979043 -19.876659
v 5.468687 1.080599 -19.194536
v 5.468687 1.979043 -19.194536
v 5.677594 1.080599 -19.194536
v 5.677594 1.979043 -19.194536
v 6.890135 1.080599 -19.075037
v 6.890135 1.979043 -19.075037
v 6.890135 1.080599 -18.866131
v 6.890135 1.979043 -18.866131
v 6.208012 1.080599 -19.075037
v 6.208012 1.979043 -19.075037
v 6.208012 1.080599 -18.866129
v 6.208012 1.979043 -18.866129
v 11.259240 1.080599 -18.373613
v 11.259240 1.979043 -18.373613
v 11.050334 1.080599 -18.373613
v 11.050334 1.979043 -18.373613
v 11.259240 1.080599 -19.533306
v 11.259240 1.979043 -19.533306
v 11.050332 1.080599 -19.533306
v 11.050332 1.979043 -19.533306
vn -0.990700 0.000000 0.135800
vn -0.135800 0.000000 -0.990700
vn 0.990700 0.000000 -0.135800
vn 0.135800 0.000000 0.990700
vn 0.000000 -1.000000 0.000000
vn 0.000000 1.000000 -0.000000
vn 0.000000 0.000000 -1.000000
vn 1.000000 0.000000 -0.000000
vn 0.000000 0.000000 1.000000
vn -1.000000 0.000000 0.000000
usemtl vitre
s off
f 4//1 3//1 1//1
f 8//2 7//2 3//2
f 6//3 5//3 7//3
f 2//4 1//4 5//4
f 1//5 3//5 7//5
f 8//6 4//6 2//6
f 12//1 11//1 9//1
f 16//2 15//2 11//2
f 14//3 13//3 15//3
f 10//4 9//4 13//4
f 9//5 11//5 15//5
f 16//6 12//6 10//6
f 20//7 19//7 17//7
f 24//8 23//8 19//8
f 22//9 21//9 23//9
f 18//10 17//10 21//10
f 19//5 23//5 21//5
f 24//6 20//6 18//6
f 28//7 27//7 25//7
f 32//8 31//8 27//8
f 30//9 29//9 31//9
f 26//10 25//10 29//10
f 27//5 31//5 29//5
f 32//6 28//6 26//6
f 36//7 35//7 33//7
f 40//8 39//8 35//8
f 38//9 37//9 39//9
f 34//10 33//10 37//10
f 35//5 39//5 37//5
f 40//6 36//6 34//6
f 44//7 43//7 41//7
f 48//8 47//8 43//8
f 46//9 45//9 47//9
f 42//10 41//10 45//10
f 43//5 47//5 45//5
f 48//6 44//6 42//6
f 52//8 51//8 49//8
f 56//9 55//9 51//9
f 54//10 53//10 55//10
f 50//7 49//7 53//7
f 51//5 55//5 53//5
f 54//6 56//6 52//6
f 60//9 59//9 57//9
f 64//10 63//10 59//10
f 62//7 61//7 63//7
f 58//8 57//8 61//8
f 59//5 63//5 61//5
f 62//6 64//6 60//6
f 2//1 4//1 1//1
f 4//2 8//2 3//2
f 8//3 6//3 7//3
f 6//4 2//4 5//4
f 5//5 1//5 7//5
f 6//6 8//6 2//6
f 10//1 12//1 9//1
f 12//2 16//2 11//2
f 16//3 14//3 15//3
f 14//4 10//4 13//4
f 13//5 9//5 15//5
f 14//6 16//6 10//6
f 18//7 20//7 17//7
f 20//8 24//8 19//8
f 24//9 22//9 23//9
f 22//10 18//10 21//10
f 17//5 19//5 21//5
f 22//6 24//6 18//6
f 26//7 28//7 25//7
f 28//8 32//8 27//8
f 32//9 30//9 31//9
f 30//10 26//10 29//10
f 25//5 27//5 29//5
f 30//6 32//6 26//6
f 34//7 36//7 33//7
f 36//8 40//8 35//8
f 40//9 38//9 39//9
f 38//10 34//10 37//10
f 33//5 35//5 37//5
f 38//6 40//6 34//6
f 42//7 44//7 41//7
f 44//8 48//8 43//8
f 48//9 46//9 47//9
f 46//10 42//10 45//10
f 41//5 43//5 45//5
f 46//6 48//6 42//6
f 50//8 52//8 49//8
f 52//9 56//9 51//9
f 56//10 54//10 55//10
f 54//7 50//7 53//7
f 49//5 51//5 53//5
f 50//6 54//6 52//6
f 58//9 60//9 57//9
f 60//10 64//10 59//10
f 64//7 62//7 63//7
f 62//8 58//8 61//8
f 57//5 59//5 61//5
f 58//6 62//6 60//6
