# Blender v2.76 (sub 0) OBJ File: 'Baker_home_10.blend'
# www.blender.org
mtllib cave1_rdc.mtl
o Cave1_RDC_Cube.015
v 6.017160 -0.500000 -15.160224
v 6.017160 -0.500000 -12.106921
v 1.763872 -0.500000 -12.106921
v 1.763872 -0.500000 -15.160224
v 2.974919 0.000000 -12.106921
v 2.974919 0.000000 -12.157732
v 4.508636 0.000000 -12.148536
v 4.509891 0.000000 -12.396106
v 4.917760 0.000000 -12.394038
v 4.916505 0.000000 -12.146468
v 5.925054 0.000000 -12.141356
v 5.967701 0.000000 -15.086962
v 4.935982 0.000000 -15.086962
v 4.935982 0.000000 -14.915991
v 4.535086 0.000000 -14.915991
v 4.535086 0.000000 -15.086962
v 1.864408 0.000000 -15.116440
v 1.864408 0.000000 -12.197113
v 2.126170 0.000000 -12.197113
v 2.126170 0.000000 -12.106921
v 2.974919 2.062649 -12.106921
v 2.974919 2.062649 -12.157732
v 4.508636 2.062649 -12.148536
v 4.509891 2.062649 -12.396106
v 4.917760 2.062649 -12.394038
v 4.916505 2.062649 -12.146468
v 5.925054 2.062649 -12.141356
v 5.967701 2.062649 -15.086962
v 4.935982 2.062649 -15.086962
v 4.935982 2.062649 -14.915991
v 4.535086 2.062649 -14.915991
v 4.535086 2.062649 -15.086962
v 1.864408 2.062649 -15.116440
v 1.864408 2.062649 -12.197113
v 2.126170 2.062649 -12.197113
v 2.126170 2.062649 -12.106921
v 2.974919 2.400000 -12.106921
v 2.974919 2.400000 -12.157732
v 4.508636 2.400000 -12.148536
v 4.509891 2.400000 -12.396106
v 4.917760 2.400000 -12.394038
v 4.916505 2.400000 -12.146468
v 5.925054 2.400000 -12.141356
v 5.967701 2.400000 -15.086962
v 4.935982 2.400000 -15.086962
v 4.935982 2.400000 -14.915991
v 4.535086 2.400000 -14.915991
v 4.535086 2.400000 -15.086962
v 1.864408 2.400000 -15.116440
v 1.864408 2.400000 -12.197113
v 2.126170 2.400000 -12.197113
v 2.126170 2.400000 -12.106921
v 6.017160 2.600013 -12.106921
v 6.017160 2.600013 -15.160224
v 1.763872 2.600013 -15.160224
v 1.763872 2.600013 -12.106921
vn 0.000000 -1.000000 0.000000
vn -0.000000 1.000000 -0.000000
vn -1.000000 0.000000 0.000000
vn 0.006000 0.000000 -1.000000
vn -1.000000 0.000000 -0.005100
vn 0.005100 0.000000 -1.000000
vn 1.000000 0.000000 0.005100
vn -0.999900 0.000000 -0.014500
vn 0.000000 0.000000 1.000000
vn 1.000000 0.000000 0.000000
vn -0.011000 0.000000 0.999900
vn 0.000000 0.000000 -1.000000
usemtl Matiere
s off
f 2//1 3//1 4//1
f 8//2 15//2 6//2
f 22//3 6//3 5//3
f 7//4 6//4 22//4
f 8//5 7//5 23//5
f 9//6 8//6 24//6
f 10//7 9//7 25//7
f 11//6 10//6 26//6
f 12//8 11//8 27//8
f 13//9 12//9 28//9
f 14//10 13//10 29//10
f 15//9 14//9 30//9
f 16//3 15//3 31//3
f 17//11 16//11 32//11
f 18//10 17//10 33//10
f 19//12 18//12 34//12
f 19//10 35//10 36//10
f 38//3 22//3 21//3
f 38//4 39//4 23//4
f 39//5 40//5 24//5
f 40//6 41//6 25//6
f 41//7 42//7 26//7
f 42//6 43//6 27//6
f 43//8 44//8 28//8
f 44//9 45//9 29//9
f 45//10 46//10 30//10
f 46//9 47//9 31//9
f 47//3 48//3 32//3
f 48//11 49//11 33//11
f 49//10 50//10 34//10
f 50//12 51//12 35//12
f 35//10 51//10 52//10
f 46//1 41//1 47//1
f 54//2 55//2 56//2
f 55//12 54//12 1//12
f 4//3 3//3 56//3
f 2//10 1//10 54//10
f 2//9 21//9 5//9
f 52//9 56//9 36//9
f 1//1 2//1 4//1
f 20//2 5//2 6//2
f 6//2 7//2 8//2
f 9//2 10//2 11//2
f 20//2 6//2 19//2
f 9//2 11//2 12//2
f 19//2 6//2 17//2
f 8//2 9//2 15//2
f 12//2 13//2 14//2
f 15//2 16//2 17//2
f 9//2 12//2 14//2
f 15//2 17//2 6//2
f 9//2 14//2 15//2
f 18//2 19//2 17//2
f 21//3 22//3 5//3
f 23//4 7//4 22//4
f 24//5 8//5 23//5
f 25//6 9//6 24//6
f 26//7 10//7 25//7
f 27//6 11//6 26//6
f 28//8 12//8 27//8
f 29//9 13//9 28//9
f 30//10 14//10 29//10
f 31//9 15//9 30//9
f 32//3 16//3 31//3
f 33//11 17//11 32//11
f 34//10 18//10 33//10
f 35//12 19//12 34//12
f 20//10 19//10 36//10
f 37//3 38//3 21//3
f 22//4 38//4 23//4
f 23//5 39//5 24//5
f 24//6 40//6 25//6
f 25//7 41//7 26//7
f 26//6 42//6 27//6
f 27//8 43//8 28//8
f 28//9 44//9 29//9
f 29//10 45//10 30//10
f 30//9 46//9 31//9
f 31//3 47//3 32//3
f 32//11 48//11 33//11
f 33//10 49//10 34//10
f 34//12 50//12 35//12
f 36//10 35//10 52//10
f 37//1 52//1 38//1
f 51//1 50//1 49//1
f 49//1 48//1 47//1
f 46//1 45//1 44//1
f 51//1 49//1 38//1
f 46//1 44//1 41//1
f 49//1 47//1 38//1
f 38//1 52//1 51//1
f 40//1 39//1 38//1
f 43//1 42//1 41//1
f 40//1 38//1 47//1
f 44//1 43//1 41//1
f 40//1 47//1 41//1
f 53//2 54//2 56//2
f 4//12 55//12 1//12
f 55//3 4//3 56//3
f 53//10 2//10 54//10
f 5//9 20//9 3//9
f 2//9 53//9 21//9
f 5//9 3//9 2//9
f 37//9 21//9 53//9
f 3//9 20//9 36//9
f 52//9 37//9 56//9
f 3//9 36//9 56//9
f 37//9 53//9 56//9
