# Blender v2.76 (sub 0) OBJ File: '1er_1.blend'
# www.blender.org
mtllib piscine_f2.mtl
o Cube_Cube.036
v 0.206120 2.300000 -0.510200
v 0.206120 2.300000 -0.846466
v 0.206120 0.000000 -0.846466
v 0.206120 0.000000 -0.510200
v 0.542386 2.300000 -0.510200
v 0.542386 0.000000 -0.510200
v 0.542386 2.300000 -0.846466
v 0.206120 2.300000 -10.910872
v 0.206120 0.000000 -10.910872
v 0.542386 0.000000 -0.846466
v 5.780950 0.000000 -0.510200
v 5.780950 2.300000 -0.510200
v 5.780950 2.300000 -0.846466
v 0.542386 2.300000 -10.910872
v 0.542386 0.000000 -10.910872
v 0.206120 0.000000 -11.044226
v 0.206120 2.300000 -11.044226
v 5.780950 0.000000 -0.846466
v 5.917365 2.300000 -0.510200
v 5.917365 0.000000 -0.510200
v 5.917365 2.300000 -0.846466
v 0.542386 2.300000 -11.044226
v 0.542386 0.000000 -11.044226
v 5.917365 0.000000 -0.846466
v 5.780950 2.300000 -2.105346
v 5.780950 0.000000 -2.105346
v 5.917365 2.300000 -2.105346
v 1.546331 0.000000 -10.910872
v 1.546331 2.300000 -10.910872
v 1.546331 2.300000 -11.044226
v 1.546331 0.000000 -11.044226
v 5.917365 -0.000000 -1.380776
v 5.917365 -0.000000 -1.934845
v 5.917365 0.000000 -2.105346
v 1.647854 0.000000 -10.910872
v 1.647854 2.300000 -10.910872
v 1.647854 2.300000 -11.044226
v 1.647854 0.000000 -11.044226
v 5.917365 -0.000000 -1.955625
v 2.561557 0.000000 -10.910872
v 2.561557 2.300000 -10.910872
v 2.561557 2.300000 -11.044226
v 2.561557 0.000000 -11.044226
v 2.674360 0.000000 -10.910872
v 2.674360 2.300000 -10.910872
v 2.674360 2.300000 -11.044226
v 2.674360 0.000000 -11.044226
v 3.588063 0.000000 -10.910872
v 3.588063 2.300000 -10.910872
v 3.588063 2.300000 -11.044226
v 3.588063 0.000000 -11.044226
v 3.700866 0.000000 -10.910872
v 3.700866 2.300000 -10.910872
v 3.700866 2.300000 -11.044226
v 3.700866 0.000000 -11.044226
v 4.659690 0.000000 -10.910872
v 4.659690 2.300000 -10.910872
v 4.659690 2.300000 -11.044226
v 4.659690 0.000000 -11.044226
v 4.761212 0.000000 -10.910872
v 4.761212 2.300000 -10.910872
v 4.761212 2.300000 -11.044226
v 4.761212 0.000000 -11.044226
v 5.099621 0.000000 -10.910872
v 5.099621 2.300000 -10.910872
v 5.099621 2.300000 -11.044226
v 5.099621 0.000000 -11.044226
v 5.832088 2.300000 -4.774697
v 5.832088 2.300000 -7.490376
v 5.832088 0.000000 -7.490376
v 5.832088 0.000000 -4.774697
v 5.832088 0.000000 -3.848812
v 5.832088 2.300000 -3.848812
v 5.917365 2.300000 -7.490376
v 5.917365 2.300000 -4.774697
v 5.917365 0.000000 -7.490376
v 5.917365 0.000000 -4.774697
v 5.917365 2.300000 -3.848812
v 5.917365 2.300000 -4.143309
v 5.894871 2.300000 -4.256395
v 5.917365 2.300000 -4.369482
v 5.917365 0.000000 -4.369482
v 5.894871 0.000000 -4.256395
v 5.917365 0.000000 -4.143309
v 5.917365 0.000000 -3.848812
v 5.832088 0.000000 -2.874195
v 5.832088 2.300000 -2.874195
v 5.917365 2.300000 -2.874195
v 5.917365 2.300000 -2.900640
v 5.893182 2.300000 -2.900640
v 5.901100 2.300000 -2.960783
v 5.917365 2.300000 -3.000051
v 5.917365 -0.000000 -3.652924
v 5.917365 -0.000000 -3.049589
v 5.917365 0.000000 -2.874195
v 5.917365 -0.000000 -3.000051
v 5.901100 -0.000000 -2.960783
v 5.893182 -0.000000 -2.900640
v 5.917365 -0.000000 -2.896711
v 5.917365 -0.000000 -2.956563
v 5.917365 -0.000000 -2.900640
v 5.917365 -0.000000 -2.956424
v 5.917365 -0.000000 -2.903440
v 5.758224 2.300000 -11.044226
v 5.758224 2.300000 -10.941655
v 5.823198 2.300000 -10.941655
v 5.823198 2.300000 -11.044226
v 5.758224 0.000000 -11.044226
v 5.758224 0.000000 -10.941655
v 5.823198 0.000000 -10.941655
v 5.917365 2.300000 -10.941655
v 5.917365 2.300000 -11.044226
v 5.823198 0.000000 -11.044226
v 5.823198 0.000000 -8.212729
v 5.823198 2.300000 -8.212729
v 5.917365 2.300000 -8.212729
v 5.917365 0.000000 -11.044226
v 5.917365 0.000000 -10.941655
v 5.917365 0.000000 -8.212729
vn -1.000000 0.000000 0.000000
vn 0.000000 0.000000 1.000000
vn 0.000000 1.000000 0.000000
vn 0.000000 -1.000000 0.000000
vn 0.000000 0.000000 -1.000000
vn 1.000000 0.000000 0.000000
vn 0.980800 0.000000 -0.195100
vn 0.980800 0.000000 0.195100
vn 0.000000 -1.000000 -0.000100
vn 1.000000 -0.000100 0.000000
usemtl None
s off
f 2//1 3//1 4//1
f 1//2 4//2 6//2
f 7//3 2//3 1//3
f 2//1 8//1 9//1
f 3//4 10//4 6//4
f 6//2 11//2 12//2
f 5//3 12//3 13//3
f 7//3 14//3 8//3
f 3//4 9//4 15//4
f 9//1 8//1 17//1
f 10//4 18//4 11//4
f 12//2 11//2 20//2
f 7//5 13//5 18//5
f 13//3 12//3 19//3
f 10//6 15//6 14//6
f 8//3 14//3 22//3
f 15//4 9//4 16//4
f 11//4 18//4 24//4
f 13//1 25//1 26//1
f 25//3 13//3 21//3
f 15//2 28//2 29//2
f 14//3 29//3 30//3
f 28//4 15//4 23//4
f 24//4 18//4 32//4
f 32//4 18//4 26//4
f 26//5 25//5 27//5
f 28//2 35//2 36//2
f 29//3 36//3 37//3
f 35//4 28//4 31//4
f 33//4 26//4 39//4
f 39//4 26//4 34//4
f 35//2 40//2 41//2
f 36//3 41//3 42//3
f 40//4 35//4 38//4
f 40//2 44//2 45//2
f 41//3 45//3 46//3
f 44//4 40//4 43//4
f 44//2 48//2 49//2
f 45//3 49//3 50//3
f 48//4 44//4 47//4
f 48//2 52//2 53//2
f 49//3 53//3 54//3
f 52//4 48//4 51//4
f 52//2 56//2 57//2
f 53//3 57//3 58//3
f 56//4 52//4 55//4
f 56//2 60//2 61//2
f 57//3 61//3 62//3
f 60//4 56//4 59//4
f 60//2 64//2 65//2
f 61//3 65//3 66//3
f 64//4 60//4 63//4
f 65//6 64//6 67//6
f 38//5 42//5 43//5
f 27//6 32//6 33//6
f 69//1 70//1 71//1
f 71//1 72//1 73//1
f 69//3 68//3 75//3
f 70//5 69//5 74//5
f 71//4 70//4 76//4
f 73//3 79//3 80//3
f 84//4 85//4 72//4
f 72//1 86//1 87//1
f 87//3 90//3 91//3
f 83//7 80//7 79//7
f 80//8 83//8 82//8
f 93//4 72//4 85//4
f 86//4 72//4 93//4
f 87//2 86//2 95//2
f 91//3 90//3 89//3
f 97//4 98//4 86//4
f 100//4 97//4 96//4
f 99//4 98//4 101//4
f 102//9 97//9 100//9
f 98//4 97//4 102//4
f 101//4 98//4 103//4
f 100//6 96//6 92//6
f 77//6 76//6 75//6
f 105//3 106//3 107//3
f 109//1 105//1 104//1
f 106//2 105//2 109//2
f 106//3 111//3 112//3
f 110//4 109//4 108//4
f 110//1 114//1 115//1
f 106//3 115//3 116//3
f 113//4 117//4 118//4
f 114//4 110//4 118//4
f 115//2 114//2 119//2
f 113//5 108//5 107//5
f 111//6 116//6 118//6
f 1//1 2//1 4//1
f 5//2 1//2 6//2
f 5//3 7//3 1//3
f 3//1 2//1 9//1
f 4//4 3//4 6//4
f 5//2 6//2 12//2
f 7//3 5//3 13//3
f 2//3 7//3 8//3
f 10//4 3//4 15//4
f 16//1 9//1 17//1
f 6//4 10//4 11//4
f 19//2 12//2 20//2
f 10//5 7//5 18//5
f 21//3 13//3 19//3
f 7//6 10//6 14//6
f 17//3 8//3 22//3
f 23//4 15//4 16//4
f 20//4 11//4 24//4
f 18//1 13//1 26//1
f 27//3 25//3 21//3
f 14//2 15//2 29//2
f 22//3 14//3 30//3
f 31//4 28//4 23//4
f 33//4 32//4 26//4
f 34//5 26//5 27//5
f 29//2 28//2 36//2
f 30//3 29//3 37//3
f 38//4 35//4 31//4
f 36//2 35//2 41//2
f 37//3 36//3 42//3
f 43//4 40//4 38//4
f 41//2 40//2 45//2
f 42//3 41//3 46//3
f 47//4 44//4 43//4
f 45//2 44//2 49//2
f 46//3 45//3 50//3
f 51//4 48//4 47//4
f 49//2 48//2 53//2
f 50//3 49//3 54//3
f 55//4 52//4 51//4
f 53//2 52//2 57//2
f 54//3 53//3 58//3
f 59//4 56//4 55//4
f 57//2 56//2 61//2
f 58//3 57//3 62//3
f 63//4 60//4 59//4
f 61//2 60//2 65//2
f 62//3 61//3 66//3
f 67//4 64//4 63//4
f 66//6 65//6 67//6
f 55//5 51//5 50//5
f 47//5 43//5 42//5
f 38//5 31//5 30//5
f 23//5 16//5 17//5
f 17//5 22//5 23//5
f 30//5 37//5 38//5
f 42//5 46//5 47//5
f 50//5 54//5 55//5
f 58//5 62//5 63//5
f 66//5 67//5 63//5
f 63//5 59//5 58//5
f 51//5 47//5 46//5
f 31//5 23//5 22//5
f 22//5 30//5 31//5
f 46//5 50//5 51//5
f 62//5 66//5 63//5
f 59//5 55//5 54//5
f 38//5 37//5 42//5
f 54//5 58//5 59//5
f 24//6 32//6 21//6
f 33//6 39//6 27//6
f 34//6 27//6 39//6
f 21//6 19//6 20//6
f 32//6 27//6 21//6
f 21//6 20//6 24//6
f 68//1 69//1 71//1
f 68//1 71//1 73//1
f 74//3 69//3 75//3
f 76//5 70//5 74//5
f 77//4 71//4 76//4
f 81//3 75//3 68//3
f 68//3 73//3 80//3
f 78//3 79//3 73//3
f 80//3 81//3 68//3
f 72//4 71//4 83//4
f 77//4 82//4 71//4
f 83//4 84//4 72//4
f 71//4 82//4 83//4
f 73//1 72//1 87//1
f 92//3 78//3 73//3
f 87//3 88//3 90//3
f 92//3 73//3 87//3
f 88//3 89//3 90//3
f 91//3 92//3 87//3
f 84//7 83//7 79//7
f 81//8 80//8 82//8
f 94//4 86//4 93//4
f 88//2 87//2 95//2
f 92//3 91//3 89//3
f 94//4 96//4 97//4
f 98//4 99//4 95//4
f 86//4 94//4 97//4
f 98//4 95//4 86//4
f 103//4 98//4 102//4
f 84//6 79//6 78//6
f 78//6 93//6 85//6
f 89//6 88//6 99//6
f 99//6 101//6 89//6
f 88//6 95//6 99//6
f 84//6 78//6 85//6
f 94//6 92//6 96//6
f 78//6 92//6 93//6
f 89//6 101//6 103//6
f 103//6 102//6 89//6
f 100//6 92//6 89//6
f 93//6 92//6 94//6
f 89//10 102//10 100//10
f 75//6 81//6 82//6
f 82//6 77//6 75//6
f 76//6 74//6 75//6
f 104//3 105//3 107//3
f 108//1 109//1 104//1
f 110//2 106//2 109//2
f 107//3 106//3 112//3
f 113//4 110//4 108//4
f 106//1 110//1 115//1
f 111//3 106//3 116//3
f 110//4 113//4 118//4
f 119//4 114//4 118//4
f 116//2 115//2 119//2
f 107//5 112//5 117//5
f 117//5 113//5 107//5
f 108//5 104//5 107//5
f 118//6 117//6 112//6
f 112//6 111//6 118//6
f 116//6 119//6 118//6
