# Blender v2.76 (sub 0) OBJ File: '1er_1.blend'
# www.blender.org
mtllib sol_f2.mtl
o Cube.001_Cube.042
v 0.329988 0.048747 -18.011606
v 0.329988 0.048747 -20.001825
v 0.329988 -0.048747 -20.001825
v 0.329988 -0.048747 -18.011606
v 0.329988 0.048747 -0.684996
v 0.329988 -0.048747 -0.684996
v 9.330221 0.048747 -18.011606
v 9.330221 0.048747 -20.001825
v 7.061367 0.048747 -18.011606
v 7.161762 0.048747 -18.053192
v 7.536973 0.048747 -18.102589
v 7.912182 0.048747 -18.053192
v 8.012577 0.048747 -18.011606
v 9.330221 -0.048747 -20.001825
v 9.330221 -0.048747 -18.011606
v 8.012577 -0.048747 -18.011606
v 7.912182 -0.048747 -18.053192
v 7.536973 -0.048747 -18.102589
v 7.161762 -0.048747 -18.053192
v 7.061367 -0.048747 -18.011606
v 5.949124 0.048747 -0.684996
v 5.949124 -0.048747 -0.684996
v 9.330221 0.048747 -2.521536
v 8.261822 0.048747 -17.908363
v 8.562064 0.048747 -17.677979
v 8.792448 0.048747 -17.377739
v 6.866403 0.048747 -12.358798
v 4.640911 0.048747 -9.946827
v 4.640911 0.048747 -3.442493
v 1.807676 0.048747 -3.442493
v 5.949124 0.048747 -1.850264
v 6.037230 0.048747 -1.637557
v 6.302807 0.048747 -1.291450
v 6.648914 0.048747 -1.025874
v 7.051963 0.048747 -0.858925
v 7.484488 0.048747 -0.801982
v 7.917014 0.048747 -0.858926
v 8.320063 0.048747 -1.025874
v 8.666169 0.048747 -1.291451
v 8.931746 0.048747 -1.637557
v 9.098694 0.048747 -2.040607
v 9.155637 0.048747 -2.473132
v 9.149264 0.048747 -2.521536
v 1.807676 0.048747 -9.946827
v 6.866403 0.048747 -15.883423
v 8.330863 0.048747 -12.358798
v 7.919626 0.048747 -16.873821
v 7.849408 0.048747 -16.965330
v 7.757897 0.048747 -17.035549
v 7.651331 0.048747 -17.079689
v 7.536973 0.048747 -17.094746
v 7.422613 0.048747 -17.079689
v 7.316047 0.048747 -17.035549
v 7.224537 0.048747 -16.965330
v 7.154319 0.048747 -16.873821
v 7.110178 0.048747 -16.767254
v 7.095122 0.048747 -16.652895
v 6.087274 0.048747 -16.652889
v 6.136671 0.048747 -17.028097
v 6.281496 0.048747 -17.377739
v 6.511880 0.048747 -17.677979
v 6.812122 0.048747 -17.908363
v 8.330863 0.048747 -15.883423
v 9.330221 -0.048747 -2.521536
v 9.149264 -0.048747 -2.521536
v 9.155637 -0.048747 -2.473132
v 9.098694 -0.048747 -2.040607
v 8.931746 -0.048747 -1.637557
v 8.666169 -0.048747 -1.291451
v 8.320063 -0.048747 -1.025874
v 7.917014 -0.048747 -0.858926
v 7.484488 -0.048747 -0.801982
v 7.051963 -0.048747 -0.858925
v 6.648914 -0.048747 -1.025874
v 6.302807 -0.048747 -1.291450
v 6.037230 -0.048747 -1.637557
v 5.949124 -0.048747 -1.850264
v 1.807676 -0.048747 -3.442493
v 4.640911 -0.048747 -3.442493
v 4.640911 -0.048747 -9.946827
v 6.866403 -0.048747 -12.358798
v 8.330863 -0.048747 -12.358798
v 8.792448 -0.048747 -17.377739
v 8.562064 -0.048747 -17.677979
v 8.261822 -0.048747 -17.908363
v 6.812122 -0.048747 -17.908363
v 6.511880 -0.048747 -17.677979
v 6.281496 -0.048747 -17.377739
v 6.136671 -0.048747 -17.028097
v 6.087274 -0.048747 -16.652889
v 7.095122 -0.048747 -16.652895
v 6.866403 -0.048747 -15.883423
v 1.807676 -0.048747 -9.946827
v 7.110178 -0.048747 -16.767254
v 7.154319 -0.048747 -16.873821
v 7.224537 -0.048747 -16.965330
v 7.316047 -0.048747 -17.035549
v 7.422613 -0.048747 -17.079689
v 7.536973 -0.048747 -17.094746
v 7.651331 -0.048747 -17.079689
v 7.757897 -0.048747 -17.035549
v 7.849408 -0.048747 -16.965330
v 7.919626 -0.048747 -16.873821
v 8.330863 -0.048747 -15.883423
v 12.371025 0.048747 -18.011606
v 12.371025 0.048747 -20.001825
v 12.371025 -0.048747 -20.001825
v 12.371025 -0.048747 -18.011606
vn -1.000000 0.000000 0.000000
vn 0.000000 1.000000 0.000000
vn 0.000000 0.000000 -1.000000
vn 0.000000 -1.000000 0.000000
vn 0.000000 0.000000 1.000000
vn 1.000000 0.000000 0.000000
vn -0.923900 0.000000 0.382700
vn -0.793400 0.000000 0.608800
vn -0.608800 0.000000 0.793400
vn -0.382700 0.000000 0.923900
vn -0.130500 0.000000 0.991400
vn 0.130500 0.000000 0.991400
vn 0.382700 0.000000 0.923900
vn 0.608800 0.000000 0.793400
vn 0.793400 0.000000 0.608800
vn 0.923900 0.000000 0.382700
vn 0.991400 0.000000 0.130500
vn 0.991400 0.000000 -0.130500
vn -0.382700 0.000000 -0.923900
vn -0.130500 0.000000 -0.991400
vn -0.608700 0.000000 -0.793400
vn 0.130500 0.000000 -0.991400
vn -0.793300 0.000000 -0.608800
vn 0.382700 0.000000 -0.923900
vn -0.923900 0.000000 -0.382700
vn 0.608800 0.000000 -0.793300
vn -0.991400 0.000000 -0.130500
vn 0.793400 0.000000 -0.608800
vn -0.500000 0.000000 -0.866000
vn -0.608800 0.000000 -0.793300
vn -0.793400 0.000000 -0.608800
vn 0.608700 0.000000 -0.793400
vn 0.793300 0.000000 -0.608800
usemtl None
s off
f 2//1 3//1 4//1
f 1//1 4//1 6//1
f 9//2 10//2 8//2
f 8//3 14//3 3//3
f 14//4 17//4 18//4
f 5//5 6//5 22//5
f 31//2 38//2 43//2
f 28//4 45//4 46//4
f 79//4 80//4 65//4
f 90//4 93//4 4//4
f 91//4 100//4 103//4
f 7//2 105//2 106//2
f 8//3 106//3 107//3
f 14//4 107//4 108//4
f 15//6 7//6 23//6
f 15//5 108//5 105//5
f 105//6 108//6 107//6
f 21//6 22//6 77//6
f 76//7 32//7 31//7
f 32//8 76//8 75//8
f 33//9 75//9 74//9
f 34//10 74//10 73//10
f 35//11 73//11 72//11
f 36//12 72//12 71//12
f 37//13 71//13 70//13
f 38//14 70//14 69//14
f 39//15 69//15 68//15
f 40//16 68//16 67//16
f 41//17 67//17 66//17
f 42//18 66//18 65//18
f 64//5 23//5 43//5
f 30//6 78//6 93//6
f 44//5 93//5 80//5
f 29//3 79//3 78//3
f 28//1 80//1 79//1
f 27//6 81//6 92//6
f 46//3 82//3 81//3
f 63//1 104//1 82//1
f 97//19 53//19 52//19
f 98//20 52//20 51//20
f 96//21 54//21 53//21
f 99//22 51//22 50//22
f 95//23 55//23 54//23
f 100//24 50//24 49//24
f 94//25 56//25 55//25
f 101//26 49//26 48//26
f 91//27 57//27 56//27
f 102//28 48//28 47//28
f 90//3 58//3 57//3
f 103//29 47//29 26//29
f 89//17 59//17 58//17
f 83//8 26//8 25//8
f 88//16 60//16 59//16
f 84//9 25//9 24//9
f 87//15 61//15 60//15
f 16//10 24//10 13//10
f 86//14 62//14 61//14
f 17//11 12//11 11//11
f 20//13 9//13 62//13
f 18//12 11//12 10//12
f 46//5 63//5 46//5
f 1//1 2//1 4//1
f 5//1 1//1 6//1
f 13//2 7//2 8//2
f 8//2 10//2 11//2
f 1//2 9//2 2//2
f 12//2 13//2 8//2
f 9//2 8//2 2//2
f 11//2 12//2 8//2
f 2//3 8//3 3//3
f 20//4 4//4 3//4
f 3//4 14//4 20//4
f 15//4 16//4 14//4
f 19//4 20//4 14//4
f 16//4 17//4 14//4
f 18//4 19//4 14//4
f 21//5 5//5 22//5
f 43//2 23//2 28//2
f 7//2 13//2 24//2
f 27//2 28//2 23//2
f 7//2 24//2 25//2
f 26//2 27//2 7//2
f 7//2 25//2 26//2
f 41//2 42//2 43//2
f 23//2 7//2 27//2
f 29//2 30//2 21//2
f 43//2 28//2 29//2
f 40//2 41//2 43//2
f 38//2 39//2 43//2
f 36//2 37//2 31//2
f 34//2 35//2 31//2
f 32//2 33//2 31//2
f 5//2 21//2 30//2
f 31//2 33//2 34//2
f 35//2 36//2 31//2
f 39//2 40//2 43//2
f 43//2 29//2 31//2
f 31//2 37//2 38//2
f 29//2 21//2 31//2
f 62//2 9//2 1//2
f 1//2 5//2 44//2
f 27//2 26//2 47//2
f 5//2 30//2 44//2
f 27//2 47//2 57//2
f 1//2 44//2 58//2
f 47//2 48//2 57//2
f 61//2 62//2 1//2
f 48//2 50//2 57//2
f 60//2 61//2 1//2
f 49//2 50//2 48//2
f 59//2 60//2 1//2
f 50//2 52//2 57//2
f 59//2 1//2 58//2
f 51//2 52//2 50//2
f 58//2 44//2 27//2
f 52//2 54//2 57//2
f 57//2 58//2 27//2
f 53//2 54//2 52//2
f 55//2 56//2 54//2
f 54//2 56//2 57//2
f 27//2 44//2 28//2
f 28//2 27//2 45//2
f 46//2 27//2 28//2
f 15//4 64//4 82//4
f 65//4 66//4 67//4
f 67//4 68//4 65//4
f 69//4 70//4 65//4
f 71//4 72//4 77//4
f 73//4 74//4 77//4
f 75//4 76//4 77//4
f 77//4 22//4 79//4
f 6//4 78//4 22//4
f 79//4 65//4 77//4
f 85//4 16//4 15//4
f 80//4 81//4 82//4
f 84//4 85//4 15//4
f 22//4 78//4 79//4
f 83//4 84//4 15//4
f 77//4 70//4 71//4
f 82//4 83//4 15//4
f 64//4 65//4 82//4
f 68//4 69//4 65//4
f 72//4 73//4 77//4
f 75//4 77//4 74//4
f 82//4 65//4 80//4
f 70//4 77//4 65//4
f 4//4 20//4 86//4
f 90//4 91//4 92//4
f 4//4 86//4 87//4
f 90//4 92//4 81//4
f 4//4 87//4 88//4
f 90//4 81//4 93//4
f 4//4 88//4 89//4
f 89//4 90//4 4//4
f 93//4 78//4 6//4
f 81//4 80//4 93//4
f 93//4 6//4 4//4
f 81//4 92//4 104//4
f 91//4 94//4 96//4
f 95//4 96//4 94//4
f 97//4 98//4 96//4
f 99//4 100//4 98//4
f 101//4 102//4 100//4
f 83//4 82//4 104//4
f 100//4 102//4 103//4
f 103//4 83//4 104//4
f 104//4 92//4 91//4
f 91//4 96//4 98//4
f 98//4 100//4 91//4
f 103//4 104//4 91//4
f 8//2 7//2 106//2
f 14//3 8//3 107//3
f 15//4 14//4 108//4
f 64//6 15//6 23//6
f 7//5 15//5 105//5
f 106//6 105//6 107//6
f 31//6 21//6 77//6
f 77//7 76//7 31//7
f 33//8 32//8 75//8
f 34//9 33//9 74//9
f 35//10 34//10 73//10
f 36//11 35//11 72//11
f 37//12 36//12 71//12
f 38//13 37//13 70//13
f 39//14 38//14 69//14
f 40//15 39//15 68//15
f 41//16 40//16 67//16
f 42//17 41//17 66//17
f 43//18 42//18 65//18
f 65//5 64//5 43//5
f 44//6 30//6 93//6
f 28//5 44//5 80//5
f 30//3 29//3 78//3
f 29//1 28//1 79//1
f 45//6 27//6 92//6
f 27//3 46//3 81//3
f 46//1 63//1 82//1
f 98//19 97//19 52//19
f 99//20 98//20 51//20
f 97//30 96//30 53//30
f 100//22 99//22 50//22
f 96//31 95//31 54//31
f 101//24 100//24 49//24
f 95//25 94//25 55//25
f 102//32 101//32 48//32
f 94//27 91//27 56//27
f 103//33 102//33 47//33
f 91//3 90//3 57//3
f 83//29 103//29 26//29
f 90//17 89//17 58//17
f 84//8 83//8 25//8
f 89//16 88//16 59//16
f 85//9 84//9 24//9
f 88//15 87//15 60//15
f 12//10 17//10 13//10
f 16//10 85//10 24//10
f 13//10 17//10 16//10
f 87//14 86//14 61//14
f 18//11 17//11 11//11
f 62//13 86//13 20//13
f 20//13 19//13 10//13
f 10//13 9//13 20//13
f 19//12 18//12 10//12
f 27//5 46//5 46//5
