# Blender v2.76 (sub 0) OBJ File: 'eau_f1_transparent.blend'
# www.blender.org
mtllib eau_f1_transparent.mtl
o Cube_Cube.002
v -1.610878 2.272583 3.401157
v -1.610878 2.272583 -3.727104
v -1.610878 0.210710 -3.727104
v -1.610878 0.210709 3.401157
v 1.490310 2.272583 -3.685010
v 1.490310 0.210710 -3.685011
v 1.462247 2.272583 3.415189
v 1.462247 0.210709 3.415189
v 1.451394 0.100792 -0.715148
v 1.451394 2.100791 -0.715147
v 1.451394 0.100792 -1.887303
v 1.451394 2.100791 -1.887303
v 1.627704 0.100792 -0.715148
v 1.627704 2.100791 -0.715147
v 1.627704 0.100792 -1.887303
v 1.627704 2.100791 -1.887303
v -1.798982 0.100792 2.264003
v -1.798982 2.100791 2.264003
v -1.798982 0.100792 -2.430754
v -1.798982 2.100792 -2.430755
v -1.619071 0.100792 2.264003
v -1.619071 2.100791 2.264003
v -1.619071 0.100792 -2.430754
v -1.619071 2.100792 -2.430755
v -0.849331 0.280399 3.392139
v -0.849331 2.013109 3.392139
v 0.616817 0.280399 3.392139
v 0.616818 2.013109 3.392139
v -0.849331 0.280399 3.515971
v -0.849331 2.013109 3.515971
v 0.616817 0.280399 3.515971
v 0.616818 2.013109 3.515971
vt -5.416972 2.462022
vt 6.331685 2.462019
vt 6.331685 -1.466388
vt -5.416972 -1.466388
vt -1.177358 4.356184
vt 2.182894 4.310572
vt 6.262306 2.462019
vt -5.440099 2.462022
vt -5.440099 -1.466388
vt 6.262306 -1.466388
vt 3.111364 2.502326
vt -2.057631 2.502326
vt -2.057631 -1.506692
vt 3.111364 -1.506692
vt 2.152486 -3.382754
vt -1.177358 -3.367550
vt 1.000000 0.000000
vt 1.000000 1.000000
vt 0.000000 1.000000
vt 0.000000 0.000000
vn -1.000000 0.000000 0.000000
vn 0.013600 0.000000 -0.999900
vn 1.000000 -0.000000 0.004000
vn -0.004600 -0.000000 1.000000
vn 0.000000 1.000000 -0.000000
vn 0.000000 -0.000000 -1.000000
vn 1.000000 0.000000 0.000000
vn 0.000000 -0.000000 1.000000
vn 0.000000 -1.000000 -0.000000
usemtl waterVitre
s off
f 1/1/1 2/2/1 3/3/1
f 1/1/1 3/3/1 4/4/1
f 2/5/2 5/6/2 6/6/2
f 2/5/2 6/6/2 3/5/2
f 5/7/3 7/8/3 8/9/3
f 5/7/3 8/9/3 6/10/3
f 7/11/4 1/12/4 4/13/4
f 7/11/4 4/13/4 8/14/4
f 7/15/5 5/6/5 2/5/5
f 7/15/5 2/5/5 1/16/5
usemtl vitre
f 16/17/6 15/18/6 11/19/6
f 14/17/7 13/18/7 15/19/7
f 10/17/8 9/18/8 13/19/8
f 11/17/9 15/18/9 13/19/9
f 16/17/5 12/18/5 10/19/5
f 20/17/1 19/18/1 17/19/1
f 24/17/6 23/18/6 19/19/6
f 18/17/8 17/18/8 21/19/8
f 19/17/9 23/18/9 21/19/9
f 24/17/5 20/18/5 18/19/5
f 26/20/6 28/17/6 27/18/6
f 32/17/7 31/18/7 27/19/7
f 30/17/8 29/18/8 31/19/8
f 26/17/1 25/18/1 29/19/1
f 27/17/9 31/18/9 29/19/9
f 30/20/5 32/17/5 28/18/5
f 12/20/6 16/17/6 11/19/6
f 16/20/7 14/17/7 15/19/7
f 14/20/8 10/17/8 13/19/8
f 9/20/9 11/17/9 13/19/9
f 14/20/5 16/17/5 10/19/5
f 18/20/1 20/17/1 17/19/1
f 20/20/6 24/17/6 19/19/6
f 22/20/8 18/17/8 21/19/8
f 17/20/9 19/17/9 21/19/9
f 22/20/5 24/17/5 18/19/5
f 25/19/6 26/20/6 27/18/6
f 28/20/7 32/17/7 27/19/7
f 32/20/8 30/17/8 31/19/8
f 30/20/1 26/17/1 29/19/1
f 25/20/9 27/17/9 29/19/9
f 26/19/5 30/20/5 28/18/5
