# Blender v2.76 (sub 0) OBJ File: 'sol_f1.blend'
# www.blender.org
mtllib sol_f1.mtl
o Sol__Cube.017
v -1.245168 0.138388 -20.160719
v -1.245168 0.075218 -20.160719
v -1.245168 0.075218 -18.004852
v -1.245168 0.138388 -18.004852
v -1.104100 0.075212 0.196318
v 5.581790 0.138388 -19.197378
v 5.985267 0.138388 -18.211683
v 6.971471 0.138388 -19.197378
v 5.581790 0.138388 -20.160719
v 5.581790 0.075218 -20.160719
v 6.971471 0.075218 -19.197378
v 6.831053 0.075218 -18.004852
v 6.748810 0.075218 -18.059805
v -1.104100 0.138382 0.196318
v 4.943743 0.075212 0.196318
v 5.057041 0.138384 -4.886210
v -0.181360 0.138386 -9.875683
v 8.074265 0.138388 -18.004852
v 7.980501 0.138388 -16.216452
v 8.074265 0.138382 -0.970770
v 6.985267 0.075218 -16.216452
v 3.702519 0.075216 -10.597432
v 5.985267 0.075218 -17.216452
v 7.980501 0.075218 -16.216452
v 7.757764 0.075216 -9.953992
v 4.947503 0.075216 -9.953989
v 7.989067 0.075212 -0.970770
v 7.074810 0.075212 -0.081007
v 4.943743 0.075212 -0.752399
v 11.389360 0.138388 -18.004852
v 11.389360 0.138388 -20.160719
v 8.074265 0.138388 -20.160719
v 8.074265 0.075218 -20.160719
v 6.971471 0.075218 -20.160719
v 11.389360 0.075218 -20.160719
v 11.389360 0.075218 -18.004852
v 8.074265 0.075218 -18.004852
v 4.943743 0.138382 0.196318
v 5.134462 0.075212 -0.466966
v 5.134462 0.138382 -0.466966
v 4.943743 0.138382 -0.752399
v 5.712090 0.075212 -0.081007
v 5.712090 0.138382 -0.081007
v 6.393450 0.075212 0.054520
v 6.393450 0.138382 0.054520
v 7.074810 0.138382 -0.081007
v 7.652438 0.075212 -0.466966
v 7.652438 0.138382 -0.466966
v 8.074265 0.075212 -0.970770
v 7.989067 0.138382 -0.970770
v 5.057041 0.075214 -4.886210
v 4.947503 0.138386 -9.953989
v 7.757764 0.138384 -4.886210
v 7.757764 0.075214 -4.886210
v 7.757764 0.138386 -9.953992
v -0.181360 0.075216 -9.875683
v -0.181360 0.075216 -10.597432
v -0.181360 0.138386 -10.597432
v 3.702519 0.138386 -9.875685
v 3.702519 0.075216 -9.875685
v 3.702519 0.138386 -10.597432
v 5.985267 0.138388 -17.216452
v 6.367951 0.138388 -17.140329
v 6.367951 0.075218 -17.140329
v 6.692374 0.138388 -16.923557
v 5.985267 0.138388 -18.004852
v 5.985267 0.075218 -18.004852
v 6.692374 0.075218 -16.923557
v 6.909147 0.138388 -16.599133
v 6.748810 0.138388 -18.059805
v 6.909147 0.075218 -16.599133
v 6.985267 0.138388 -16.216452
v 6.831053 0.138388 -18.004852
v 7.828622 0.075218 -16.979994
v 7.828622 0.138388 -16.979994
v 7.396110 0.138388 -17.627293
v 5.581790 0.075218 -19.197378
v 6.971471 0.138388 -20.160719
v 5.985267 0.075218 -18.211683
v 7.396110 0.075218 -17.627293
vt 18.992519 0.990615
vt 18.992519 0.875548
vt 15.065528 0.875548
vt 15.065528 0.990614
vt -18.088573 0.875538
vt 3.316357 4.206352
vt 3.514053 3.723382
vt 3.997273 4.206352
vt 1.571752 1.003502
vt 1.571752 0.877543
vt -12.040837 0.877543
vt 3.993200 4.194175
vt 3.924625 3.611794
vt 3.884461 3.638631
vt -11.759555 1.003495
vt -11.759555 0.877536
vt 0.299522 0.877536
vt 0.040407 -5.296164
vt 3.059240 -2.805830
vt 0.492530 -0.361090
vt 4.537620 3.622039
vt 4.491677 2.745758
vt 4.537618 -4.724315
vt 3.999937 2.738413
vt 2.396777 -0.005686
vt 3.511579 3.226772
vt 4.485968 2.738413
vt 4.377193 -0.319916
vt 3.004777 -0.319917
vt 4.490151 -4.706950
vt 4.043666 -5.141474
vt 3.002940 -4.813593
vt 6.161950 3.622039
vt 6.161950 4.678371
vt 6.541614 1.003502
vt 6.541614 0.877543
vt 4.342702 0.877543
vt 4.531759 4.664631
vt 6.150715 4.664631
vt 6.150715 3.611794
vt -15.962680 0.990603
vt 13.151738 1.003502
vt 13.151738 0.877543
vt 0.299522 1.003495
vt 0.679806 0.877536
vt 0.679806 1.003495
vt 1.831565 0.877536
vt 1.831565 1.003495
vt 3.190159 0.877536
vt 3.190159 1.003495
vt 4.548756 0.877536
vt 4.548756 1.003495
vt 5.700516 0.877536
vt 5.700516 1.003495
vt 6.371735 0.877536
vt -15.962680 0.875538
vt -8.830563 0.990608
vt -8.830563 0.875539
vt 0.400581 0.875543
vt 0.307017 1.003498
vt 0.307017 0.877542
vt 5.910529 0.877542
vt 5.910529 1.003495
vt 0.525434 0.877538
vt 0.400587 0.990610
vt 0.257945 0.990610
vt 0.257945 0.875543
vt 1.572636 0.875543
vt -9.919661 1.003498
vt -9.919661 0.877542
vt -2.175412 0.877542
vt -2.175412 1.003498
vt 1.572636 0.990610
vt 2.376265 0.877543
vt 2.376265 1.003502
vt 3.139317 1.003502
vt 3.139317 0.877543
vt 3.786200 1.003502
vt 13.629422 0.875548
vt 13.095906 0.875548
vt 13.095906 0.990614
vt 12.504956 0.990614
vt 3.898727 0.877543
vt 3.898727 1.003502
vt 12.504956 0.875548
vt 11.807890 0.990614
vt 4.062717 0.877543
vt 4.062717 1.003502
vt 4.370213 0.877543
vt 4.370213 1.003502
vt 6.354656 1.003502
vt 6.051817 0.877543
vt 6.051817 1.003502
vt 5.189410 1.003502
vt 11.807890 0.875548
vt 13.198708 0.990614
vt 17.237755 0.990615
vt 4.342702 1.003502
vt 17.237755 0.875548
vt -18.088573 0.990603
vt 3.928470 3.622039
vt 4.537620 4.678371
vt 3.997273 4.678371
vt 3.316357 4.678371
vt -0.028713 4.678371
vt -0.028713 3.622039
vt 3.888173 3.648966
vt 3.514053 3.622039
vt -12.040837 1.003502
vt 3.511579 3.611794
vt -0.019469 3.611794
vt 3.314537 4.194175
vt -0.019469 4.664631
vt 3.314537 4.664631
vt 3.993200 4.664631
vt 4.531759 3.611794
vt 15.442273 0.875548
vt 3.511579 3.712803
vt 3.005570 -0.322721
vt 4.382540 -0.322720
vt 2.395552 -0.007447
vt 2.395552 -0.361089
vt 3.003727 -5.296164
vt 3.003727 -4.831311
vt 4.382540 -2.805830
vt 4.495873 -4.724315
vt 0.492530 -0.007447
vt 4.047906 -5.160281
vt 3.514053 3.235739
vt 3.097174 -4.971169
vt 3.380200 -5.160281
vt 3.714054 -5.226686
vt 4.004032 2.745758
vt 3.701560 3.198439
vt 4.330932 -4.971169
vt 3.860521 3.092226
vt 3.966734 2.933265
vt 4.205338 3.437042
vt 4.417260 3.119879
vt 3.698466 3.189596
vt 3.856900 3.083734
vt 3.962763 2.925299
vt 0.500051 -0.005686
vt 0.500051 -0.358158
vt 2.396777 -0.358157
vt 3.002940 -5.276907
vt 0.049424 -5.276907
vt 4.200575 3.427411
vt 3.058271 -2.794811
vt 4.411798 3.111296
vt 4.531759 -4.706950
vt 4.377193 -2.794811
vt 3.378169 -5.141474
vt 3.096080 -4.952987
vt 3.710917 -5.207660
vt 4.325757 -4.952987
vt 6.371735 1.003495
vt 0.525434 1.003495
vt 3.786200 0.877543
vt 15.442273 0.990614
vt 13.629422 0.990614
vt 5.189410 0.877543
vt 6.354656 0.877543
vt 13.198708 0.875548
vn -1.000000 0.000000 0.000000
vn -1.000000 0.000000 0.007800
vn 0.000000 1.000000 0.000000
vn 0.000000 0.000000 -1.000000
vn 0.000000 -1.000000 -0.000000
vn 0.000000 -0.000000 1.000000
vn 1.000000 0.000000 0.000000
vn -0.831500 0.000000 0.555600
vn -0.555600 0.000000 0.831500
vn -0.195100 0.000000 0.980800
vn 0.195100 -0.000000 0.980800
vn 0.555600 0.000000 0.831500
vn 0.831500 -0.000000 0.555600
vn 0.999800 0.000000 -0.021600
vn 0.195100 0.000000 -0.980800
vn 0.555600 0.000000 -0.831500
vn 0.831500 0.000000 -0.555600
vn 0.980800 0.000000 -0.195100
vn -0.980800 0.000000 0.195100
usemtl SolIn
s off
f 1/1/1 2/2/1 3/3/1
f 4/4/2 3/3/2 5/5/2
f 6/6/3 7/7/3 8/8/3
f 9/9/4 10/10/4 2/11/4
f 11/12/5 12/13/5 13/14/5
f 14/15/6 5/16/6 15/17/6
f 14/18/3 16/19/3 17/20/3
f 18/21/3 19/22/3 20/23/3
f 21/24/5 22/25/5 23/26/5
f 24/27/5 25/28/5 26/29/5
f 27/30/5 28/31/5 29/32/5
f 18/21/3 30/33/3 31/34/3
f 32/35/4 33/36/4 34/37/4
f 33/38/5 35/39/5 36/40/5
f 37/3/7 18/4/7 20/41/7
f 32/35/4 31/42/4 35/43/4
f 37/36/6 36/43/6 30/42/6
f 30/4/7 36/3/7 35/2/7
f 38/44/7 15/17/7 29/17/7
f 39/45/8 40/46/8 41/44/8
f 42/47/9 43/48/9 40/46/9
f 44/49/10 45/50/10 43/48/10
f 28/51/11 46/52/11 45/50/11
f 47/53/12 48/54/12 46/52/12
f 48/54/13 47/53/13 27/55/13
f 49/56/6 20/41/6 50/41/6
f 16/57/14 51/58/14 26/59/14
f 52/60/6 26/61/6 25/62/6
f 53/63/4 54/62/4 51/64/4
f 55/65/1 25/59/1 54/58/1
f 17/66/7 56/67/7 57/68/7
f 58/69/6 57/70/6 22/71/6
f 59/72/4 60/71/4 56/70/4
f 61/73/1 22/68/1 60/67/1
f 23/74/15 62/75/15 63/76/15
f 64/77/16 63/76/16 65/78/16
f 66/4/7 23/79/7 67/3/7
f 68/80/17 65/81/17 69/82/17
f 13/83/10 70/84/10 7/75/10
f 71/85/18 69/82/18 72/86/18
f 12/87/9 73/88/9 70/84/9
f 21/89/4 72/90/4 19/91/4
f 74/92/8 75/93/8 76/94/8
f 24/95/19 19/86/19 75/96/19
f 10/2/7 9/1/7 6/97/7
f 8/98/4 11/37/4 77/10/4
f 78/1/1 34/2/1 11/99/1
f 4/4/1 1/1/1 3/3/1
f 14/100/2 4/4/2 5/5/2
f 73/101/3 18/21/3 8/8/3
f 32/102/3 78/103/3 8/8/3
f 9/104/3 1/105/3 6/6/3
f 18/21/3 32/102/3 8/8/3
f 6/6/3 1/105/3 4/106/3
f 73/101/3 8/8/3 70/107/3
f 4/106/3 66/108/3 6/6/3
f 70/107/3 8/8/3 7/7/3
f 6/6/3 66/108/3 7/7/3
f 1/109/4 9/9/4 2/11/4
f 67/110/5 3/111/5 77/112/5
f 2/113/5 10/114/5 77/112/5
f 11/12/5 34/115/5 33/38/5
f 3/111/5 2/113/5 77/112/5
f 11/12/5 33/38/5 37/116/5
f 79/117/5 67/3/5 77/99/5
f 77/112/5 11/12/5 79/118/5
f 37/116/5 12/13/5 11/12/5
f 13/14/5 79/118/5 11/12/5
f 38/44/6 14/15/6 15/17/6
f 52/119/3 55/120/3 61/121/3
f 17/20/3 4/106/3 14/18/3
f 52/119/3 61/121/3 59/122/3
f 59/122/3 17/20/3 16/19/3
f 14/18/3 38/123/3 41/124/3
f 41/124/3 16/19/3 14/18/3
f 52/119/3 59/122/3 16/19/3
f 53/125/3 16/19/3 50/126/3
f 4/106/3 17/20/3 58/127/3
f 16/19/3 41/124/3 50/126/3
f 4/106/3 58/127/3 61/121/3
f 41/124/3 46/128/3 50/126/3
f 4/106/3 61/121/3 62/129/3
f 40/130/3 43/131/3 41/124/3
f 62/129/3 66/108/3 4/106/3
f 43/131/3 45/132/3 41/124/3
f 62/129/3 61/121/3 72/133/3
f 45/132/3 46/128/3 41/124/3
f 63/134/3 62/129/3 72/133/3
f 46/128/3 48/135/3 50/126/3
f 65/136/3 63/134/3 69/137/3
f 55/120/3 53/125/3 20/23/3
f 50/126/3 20/23/3 53/125/3
f 18/21/3 73/101/3 76/138/3
f 72/133/3 69/137/3 63/134/3
f 18/21/3 76/138/3 75/139/3
f 72/133/3 61/121/3 55/120/3
f 18/21/3 75/139/3 19/22/3
f 19/22/3 72/133/3 55/120/3
f 55/120/3 20/23/3 19/22/3
f 3/111/5 67/110/5 23/26/5
f 23/26/5 64/140/5 21/24/5
f 68/141/5 71/142/5 64/140/5
f 21/24/5 24/27/5 22/25/5
f 57/143/5 56/144/5 3/111/5
f 24/27/5 60/145/5 22/25/5
f 22/25/5 57/143/5 3/111/5
f 3/111/5 23/26/5 22/25/5
f 71/142/5 21/24/5 64/140/5
f 29/32/5 15/146/5 5/147/5
f 5/147/5 3/111/5 56/144/5
f 80/148/5 12/13/5 37/116/5
f 5/147/5 56/144/5 51/149/5
f 74/150/5 80/148/5 37/116/5
f 56/144/5 60/145/5 51/149/5
f 24/27/5 74/150/5 37/116/5
f 37/116/5 49/151/5 24/27/5
f 26/29/5 51/149/5 60/145/5
f 49/151/5 27/30/5 25/28/5
f 51/149/5 29/32/5 5/147/5
f 24/27/5 49/151/5 25/28/5
f 26/29/5 60/145/5 24/27/5
f 54/152/5 25/28/5 27/30/5
f 29/32/5 51/149/5 27/30/5
f 42/153/5 39/154/5 29/32/5
f 28/31/5 44/155/5 29/32/5
f 27/30/5 47/156/5 28/31/5
f 51/149/5 54/152/5 27/30/5
f 44/155/5 42/153/5 29/32/5
f 32/102/3 18/21/3 31/34/3
f 78/98/4 32/35/4 34/37/4
f 37/116/5 33/38/5 36/40/5
f 49/56/7 37/3/7 20/41/7
f 33/36/4 32/35/4 35/43/4
f 18/35/6 37/36/6 30/42/6
f 31/1/7 30/4/7 35/2/7
f 41/44/7 38/44/7 29/17/7
f 29/17/8 39/45/8 41/44/8
f 39/45/9 42/47/9 40/46/9
f 42/47/10 44/49/10 43/48/10
f 44/49/11 28/51/11 45/50/11
f 28/51/12 47/53/12 46/52/12
f 50/157/13 48/54/13 27/55/13
f 27/56/6 49/56/6 50/41/6
f 52/65/14 16/57/14 26/59/14
f 55/63/6 52/60/6 25/62/6
f 16/158/4 53/63/4 51/64/4
f 53/57/1 55/65/1 54/58/1
f 58/73/7 17/66/7 57/68/7
f 61/72/6 58/69/6 22/71/6
f 17/69/4 59/72/4 56/70/4
f 59/66/1 61/73/1 60/67/1
f 64/77/15 23/74/15 63/76/15
f 68/159/16 64/77/16 65/78/16
f 79/117/7 7/160/7 66/4/7
f 66/4/7 62/161/7 23/79/7
f 67/3/7 79/117/7 66/4/7
f 71/85/17 68/80/17 69/82/17
f 79/74/10 13/83/10 7/75/10
f 21/95/18 71/85/18 72/86/18
f 70/84/9 13/83/9 12/87/9
f 12/87/9 80/162/9 76/94/9
f 76/94/9 73/88/9 12/87/9
f 24/163/4 21/89/4 19/91/4
f 80/162/8 74/92/8 76/94/8
f 74/164/19 24/95/19 75/96/19
f 77/99/7 10/2/7 6/97/7
f 6/9/4 8/98/4 77/10/4
f 8/97/1 78/1/1 11/99/1
