# Blender v2.76 (sub 0) OBJ File: '1er_4.blend'
# www.blender.org
mtllib sol_f1.mtl
o sol_f1_Sol__Cube.000
v -1.245168 0.100000 -20.160719
v -1.245168 -0.199995 -20.160719
v -1.245168 -0.199996 -18.004852
v -1.245168 0.100000 -18.004852
v -1.104100 -0.200002 0.196318
v 5.581790 0.100000 -19.197378
v 8.074265 0.100000 -18.004852
v 6.971471 0.100000 -19.197378
v 5.581790 0.100000 -20.160719
v 5.581790 -0.199995 -20.160719
v 6.971471 -0.199995 -19.197378
v 8.074265 -0.199996 -18.004852
v -1.104100 0.100000 0.196318
v 4.943743 -0.200002 0.196318
v 5.057041 0.100000 -4.886210
v -0.181360 0.100000 -9.875683
v 8.074265 0.100000 -0.970770
v 3.702519 -0.199998 -10.597432
v 7.757764 -0.199998 -9.953992
v 4.947503 -0.199998 -9.953989
v 7.989067 -0.200001 -0.970770
v 7.074810 -0.200002 -0.081007
v 4.943743 -0.200001 -0.752399
v 11.389360 0.100000 -18.004852
v 11.389360 0.100000 -20.160719
v 8.074265 0.100000 -20.160719
v 8.074265 -0.199995 -20.160719
v 6.971471 -0.199995 -20.160719
v 11.389360 -0.199995 -20.160719
v 11.389360 -0.199996 -18.004852
v 4.943743 0.100000 0.196318
v 5.134462 -0.200001 -0.466966
v 5.134462 0.100000 -0.466966
v 4.943743 0.100000 -0.752399
v 5.712090 -0.200002 -0.081007
v 5.712090 0.100000 -0.081007
v 6.393450 -0.200002 0.054520
v 6.393450 0.100000 0.054520
v 7.074810 0.100000 -0.081007
v 7.652438 -0.200001 -0.466966
v 7.652438 0.100000 -0.466966
v 8.074265 -0.200001 -0.970770
v 7.989067 0.100000 -0.970770
v 5.057041 -0.200000 -4.886210
v 4.947503 0.100000 -9.953989
v 7.757764 0.100000 -4.886210
v 7.757764 -0.200000 -4.886210
v 7.757764 0.100000 -9.953992
v -0.181360 -0.199998 -9.875683
v -0.181360 -0.199998 -10.597432
v -0.181360 0.100000 -10.597432
v 3.702519 0.100000 -9.875685
v 3.702519 -0.199998 -9.875685
v 3.702519 0.100000 -10.597432
v 5.581790 -0.199995 -19.197378
v 6.971471 0.100000 -20.160719
vt 0.379308 -3.708094
vt -0.740431 -3.172355
vt -0.245003 -3.708094
vt 3.382928 5.004479
vt 0.615050 2.721166
vt 2.968390 0.479656
vt -0.740431 -4.140872
vt -0.245003 -4.140872
vt 0.379308 -4.140872
vt 3.446303 -4.140872
vt 3.446303 -3.172355
vt 0.664260 0.444478
vt -0.598244 0.444476
vt 1.223566 0.155412
vt 1.223566 0.479656
vt 0.665949 5.004479
vt 0.665949 4.578271
vt -0.598244 2.721166
vt -0.702156 4.480168
vt 2.968390 0.155412
vt -0.291428 4.879892
vt 0.580269 4.706501
vt 0.320771 4.879892
vt 0.014672 4.940777
vt -0.550926 4.706501
vt -0.740431 4.480168
vt -2.229730 -3.172355
vt -2.229730 -4.140872
vt 13.494002 0.834793
vt 13.494002 0.368840
vt 10.742664 0.368830
vt 10.742664 0.834793
vt -12.485810 0.368813
vt 1.212313 0.699855
vt 1.212313 0.186483
vt -8.386953 0.186483
vt -8.188599 0.699868
vt -8.188599 0.186469
vt 0.315166 0.186469
vt 1.734476 4.313680
vt 1.347558 4.690232
vt 0.445680 4.406096
vt 4.716936 0.699855
vt 4.716936 0.186483
vt 3.166317 0.186483
vt 1.770532 -3.807597
vt 3.173496 -3.807597
vt 3.173496 -2.895224
vt 9.378234 0.699855
vt 9.378234 0.186483
vt -12.485810 0.834793
vt -11.275050 0.368813
vt 0.583331 0.186469
vt 0.583331 0.699868
vt 0.315166 0.699868
vt 1.395525 0.186469
vt 1.395525 0.699868
vt 2.353572 0.186469
vt 2.353572 0.699868
vt 3.311620 0.186469
vt 3.311620 0.699868
vt 4.123814 0.186469
vt 4.123814 0.699868
vt 4.597142 0.186469
vt 4.597142 0.699868
vt -5.999450 0.834793
vt -5.999450 0.368823
vt 0.468092 0.368823
vt 0.320452 0.699868
vt 0.320452 0.186478
vt 4.271911 0.186478
vt 4.271911 0.699868
vt 0.474472 0.186473
vt 0.468094 0.834793
vt 0.368155 0.834793
vt 0.368155 0.368823
vt 1.289259 0.368823
vt -6.891150 0.699868
vt -6.891151 0.186478
vt -1.430097 0.186478
vt -1.430097 0.699868
vt 1.289259 0.834793
vt 12.264576 0.834793
vt 3.166317 0.699861
vt 12.264576 0.368840
vt -8.386953 0.699855
vt -2.173496 -3.807597
vt 0.715704 -3.807597
vt 0.715704 -3.399906
vt 1.303824 -3.399906
vt 1.303824 -3.807597
vt -2.173496 -2.895224
vt -1.723288 0.239631
vt -1.723288 0.545079
vt -0.079611 0.239631
vt 0.445680 4.807597
vt -2.113796 4.807597
vt 0.493628 2.656647
vt -0.079611 0.545078
vt 0.447271 0.511939
vt 1.770532 4.313680
vt 1.636587 0.511938
vt 1.636587 2.656647
vt 0.770848 4.690232
vt 0.526393 4.526893
vt 1.059202 4.747588
vt 1.592012 4.526893
vt -11.275050 0.834793
vt 0.474472 0.699868
vt -10.996365 0.834793
vt -10.996363 0.368813
vt 1.770532 -2.895224
vn 0.000000 1.000000 0.000000
vn -1.000000 -0.000000 -0.000000
vn -1.000000 -0.000000 0.007800
vn 0.000000 0.000000 -1.000000
vn 0.000000 0.000000 1.000000
vn 0.000000 -1.000000 -0.000000
vn 1.000000 0.000000 0.000000
vn -0.831500 -0.000000 0.555600
vn -0.555600 0.000000 0.831500
vn -0.195100 0.000000 0.980800
vn 0.195100 0.000000 0.980800
vn 0.555600 -0.000000 0.831500
vn 0.831500 -0.000000 0.555600
vn 0.999800 0.000000 -0.021600
usemtl inGround
s off
f 6/1/1 7/2/1 8/3/1
f 13/4/1 15/5/1 16/6/1
f 26/7/1 56/8/1 8/3/1
f 9/9/1 1/10/1 6/1/1
f 6/1/1 1/10/1 4/11/1
f 45/12/1 48/13/1 54/14/1
f 16/6/1 4/11/1 13/4/1
f 45/12/1 54/14/1 52/15/1
f 52/15/1 16/6/1 15/5/1
f 13/4/1 31/16/1 34/17/1
f 34/17/1 15/5/1 13/4/1
f 45/12/1 52/15/1 15/5/1
f 46/18/1 15/5/1 43/19/1
f 4/11/1 16/6/1 51/20/1
f 15/5/1 34/17/1 43/19/1
f 4/11/1 51/20/1 54/14/1
f 34/17/1 39/21/1 43/19/1
f 33/22/1 36/23/1 34/17/1
f 36/23/1 38/24/1 34/17/1
f 38/24/1 39/21/1 34/17/1
f 39/21/1 41/25/1 43/19/1
f 48/13/1 46/18/1 17/26/1
f 43/19/1 17/26/1 46/18/1
f 7/2/1 24/27/1 25/28/1
f 7/2/1 26/7/1 8/3/1
f 4/11/1 7/2/1 6/1/1
f 4/11/1 54/14/1 7/2/1
f 7/2/1 54/14/1 48/13/1
f 48/13/1 17/26/1 7/2/1
f 26/7/1 7/2/1 25/28/1
usemtl ceiling
f 1/29/2 2/30/2 3/31/2
f 4/32/3 3/31/3 5/33/3
f 9/34/4 10/35/4 2/36/4
f 13/37/5 5/38/5 14/39/5
f 21/40/6 22/41/6 23/42/6
f 26/43/4 27/44/4 28/45/4
f 27/46/6 29/47/6 30/48/6
f 26/43/4 25/49/4 29/50/4
f 24/32/7 30/31/7 29/30/7
f 31/51/7 14/33/7 23/52/7
f 32/53/8 33/54/8 34/55/8
f 35/56/9 36/57/9 33/54/9
f 37/58/10 38/59/10 36/57/10
f 22/60/11 39/61/11 38/59/11
f 40/62/12 41/63/12 39/61/12
f 41/63/13 40/62/13 21/64/13
f 42/44/5 17/43/5 43/65/5
f 15/66/14 44/67/14 20/68/14
f 45/69/5 20/70/5 19/71/5
f 46/72/4 47/71/4 44/73/4
f 48/74/2 19/68/2 47/67/2
f 16/75/7 49/76/7 50/77/7
f 51/78/5 50/79/5 18/80/5
f 52/81/4 53/80/4 49/79/4
f 54/82/2 18/77/2 53/76/2
f 10/30/7 9/29/7 6/83/7
f 8/84/4 11/45/4 55/35/4
f 56/29/2 28/30/2 11/85/2
f 4/32/2 1/29/2 3/31/2
f 13/51/3 4/32/3 5/33/3
f 1/86/4 9/34/4 2/36/4
f 2/87/6 10/88/6 55/89/6
f 11/90/6 28/91/6 27/46/6
f 3/92/6 2/87/6 55/89/6
f 31/55/5 13/37/5 14/39/5
f 50/93/6 49/94/6 3/92/6
f 18/95/6 50/93/6 3/92/6
f 23/42/6 14/96/6 5/97/6
f 5/97/6 3/92/6 49/94/6
f 5/97/6 49/94/6 44/98/6
f 49/94/6 53/99/6 44/98/6
f 20/100/6 44/98/6 53/99/6
f 42/101/6 21/40/6 19/102/6
f 44/98/6 23/42/6 5/97/6
f 47/103/6 19/102/6 21/40/6
f 23/42/6 44/98/6 21/40/6
f 35/104/6 32/105/6 23/42/6
f 22/41/6 37/106/6 23/42/6
f 21/40/6 40/107/6 22/41/6
f 44/98/6 47/103/6 21/40/6
f 37/106/6 35/104/6 23/42/6
f 56/84/4 26/43/4 28/45/4
f 27/44/4 26/43/4 29/50/4
f 25/29/7 24/32/7 29/30/7
f 34/108/7 31/51/7 23/52/7
f 23/39/8 32/53/8 34/55/8
f 32/53/9 35/56/9 33/54/9
f 35/56/10 37/58/10 36/57/10
f 37/58/11 22/60/11 38/59/11
f 22/60/12 40/62/12 39/61/12
f 43/65/13 41/63/13 21/64/13
f 21/64/5 42/44/5 43/65/5
f 45/74/14 15/66/14 20/68/14
f 48/72/5 45/69/5 19/71/5
f 15/109/4 46/72/4 44/73/4
f 46/66/2 48/74/2 47/67/2
f 51/82/7 16/75/7 50/77/7
f 54/81/5 51/78/5 18/80/5
f 16/78/4 52/81/4 49/79/4
f 52/75/2 54/82/2 53/76/2
f 7/43/5 12/44/5 24/49/5
f 12/31/7 7/32/7 17/110/7
f 42/111/7 12/31/7 17/110/7
f 12/112/6 27/46/6 30/48/6
f 20/100/6 53/99/6 12/112/6
f 12/112/6 42/101/6 19/102/6
f 3/92/6 12/112/6 18/95/6
f 12/112/6 53/99/6 18/95/6
f 55/89/6 11/90/6 12/112/6
f 11/90/6 27/46/6 12/112/6
f 12/112/6 3/92/6 55/89/6
f 12/44/5 30/50/5 24/49/5
f 12/112/6 19/102/6 20/100/6
f 55/85/7 10/30/7 6/83/7
f 6/34/4 8/84/4 55/35/4
f 8/83/2 56/29/2 11/85/2
