# Blender v2.76 (sub 0) OBJ File: '1er_4.blend'
# www.blender.org
mtllib sol_f1.mtl
o sol_f1_Sol__Cube.000
v -1.245168 0.100000 -20.160719
v -1.245168 0.100000 -18.004852
v 5.581790 0.100000 -19.197378
v 8.074265 0.100000 -18.004852
v 6.971471 0.100000 -19.197378
v 5.581790 0.100000 -20.160719
v -1.104100 0.100000 0.196318
v 5.057041 0.100000 -4.886210
v -0.181360 0.100000 -9.875683
v 8.074265 0.100000 -0.970770
v 3.702519 -0.199998 -10.597432
v 7.757764 -0.199998 -9.953992
v 4.947503 -0.199998 -9.953989
v 11.389360 0.100000 -18.004852
v 11.389360 0.100000 -20.160719
v 8.074265 0.100000 -20.160719
v 4.943743 0.100000 0.196318
v 5.134462 0.100000 -0.466966
v 4.943743 0.100000 -0.752399
v 5.712090 0.100000 -0.081007
v 6.393450 0.100000 0.054520
v 7.074810 0.100000 -0.081007
v 7.652438 0.100000 -0.466966
v 7.989067 0.100000 -0.970770
v 5.057041 -0.200000 -4.886210
v 4.947503 0.100000 -9.953989
v 7.757764 0.100000 -4.886210
v 7.757764 -0.200000 -4.886210
v 7.757764 0.100000 -9.953992
v -0.181360 -0.199998 -9.875683
v -0.181360 -0.199998 -10.597432
v -0.181360 0.100000 -10.597432
v 3.702519 0.100000 -9.875685
v 3.702519 -0.199998 -9.875685
v 3.702519 0.100000 -10.597432
v 6.971471 0.100000 -20.160719
vt 0.379308 -3.708094
vt -0.740431 -3.172355
vt -0.245003 -3.708094
vt 3.382928 5.004479
vt 0.615050 2.721166
vt 2.968390 0.479656
vt -0.740431 -4.140872
vt -0.245003 -4.140872
vt 0.379308 -4.140872
vt 3.446303 -4.140872
vt 3.446303 -3.172355
vt 0.664260 0.444478
vt -0.598244 0.444476
vt 1.223566 0.155412
vt 1.223566 0.479656
vt 0.665949 5.004479
vt 0.665949 4.578271
vt -0.598244 2.721166
vt -0.702156 4.480168
vt 2.968390 0.155412
vt -0.291428 4.879892
vt 0.580269 4.706501
vt 0.320771 4.879892
vt 0.014672 4.940777
vt -0.550926 4.706501
vt -0.740431 4.480168
vt -2.229730 -3.172355
vt -2.229730 -4.140872
vt -5.999450 0.834793
vt -5.999450 0.368823
vt 0.468092 0.368823
vt 0.320452 0.699868
vt 0.320452 0.186478
vt 4.271911 0.186478
vt 4.271911 0.699868
vt 0.474472 0.186473
vt 0.468094 0.834793
vt 0.368155 0.834793
vt 0.368155 0.368823
vt 1.289259 0.368823
vt -6.891150 0.699868
vt -6.891151 0.186478
vt -1.430097 0.186478
vt -1.430097 0.699868
vt 1.289259 0.834793
vt 0.474472 0.699868
vn 0.000000 1.000000 0.000000
vn 0.999800 0.000000 -0.021600
vn 0.000000 0.000000 1.000000
vn 0.000000 0.000000 -1.000000
vn -1.000000 0.000000 0.000000
vn 1.000000 -0.000000 -0.000000
usemtl inGround
s off
f 3/1/1 4/2/1 5/3/1
f 7/4/1 8/5/1 9/6/1
f 16/7/1 36/8/1 5/3/1
f 6/9/1 1/10/1 3/1/1
f 3/1/1 1/10/1 2/11/1
f 26/12/1 29/13/1 35/14/1
f 9/6/1 2/11/1 7/4/1
f 26/12/1 35/14/1 33/15/1
f 33/15/1 9/6/1 8/5/1
f 7/4/1 17/16/1 19/17/1
f 19/17/1 8/5/1 7/4/1
f 26/12/1 33/15/1 8/5/1
f 27/18/1 8/5/1 24/19/1
f 2/11/1 9/6/1 32/20/1
f 8/5/1 19/17/1 24/19/1
f 2/11/1 32/20/1 35/14/1
f 19/17/1 22/21/1 24/19/1
f 18/22/1 20/23/1 19/17/1
f 20/23/1 21/24/1 19/17/1
f 21/24/1 22/21/1 19/17/1
f 22/21/1 23/25/1 24/19/1
f 29/13/1 27/18/1 10/26/1
f 24/19/1 10/26/1 27/18/1
f 4/2/1 14/27/1 15/28/1
f 4/2/1 16/7/1 5/3/1
f 2/11/1 4/2/1 3/1/1
f 2/11/1 35/14/1 4/2/1
f 4/2/1 35/14/1 29/13/1
f 29/13/1 10/26/1 4/2/1
f 16/7/1 4/2/1 15/28/1
usemtl ceiling
f 8/29/2 25/30/2 13/31/2
f 26/32/3 13/33/3 12/34/3
f 27/35/4 28/34/4 25/36/4
f 29/37/5 12/31/5 28/30/5
f 9/38/6 30/39/6 31/40/6
f 32/41/3 31/42/3 11/43/3
f 33/44/4 34/43/4 30/42/4
f 35/45/5 11/40/5 34/39/5
f 26/37/2 8/29/2 13/31/2
f 29/35/3 26/32/3 12/34/3
f 8/46/4 27/35/4 25/36/4
f 27/29/5 29/37/5 28/30/5
f 32/45/6 9/38/6 31/40/6
f 35/44/3 32/41/3 11/43/3
f 9/41/4 33/44/4 30/42/4
f 33/38/5 35/45/5 34/39/5
