# Blender v2.76 (sub 0) OBJ File: 'transparent_f1.blend'
# www.blender.org
mtllib transparent_f1.mtl
o Cube_Cube.002
v 5.494160 1.367692 -0.278377
v 5.494160 0.812967 -0.140631
v 5.494160 1.367692 -0.140631
v 5.738758 1.367692 -0.031677
v 6.077442 1.367692 0.071062
v 6.113941 1.367692 -0.039063
v 6.429665 1.367692 -0.007966
v 5.494160 0.812967 -0.278377
v 6.781886 0.812967 0.071061
v 6.745387 0.812967 -0.039063
v 6.429665 0.812967 -0.007966
v 6.077442 0.812967 0.071062
v 5.738758 0.812967 -0.031677
v 7.449135 0.812967 -0.359421
v 7.449135 0.812967 -0.194227
v 7.449135 1.367692 -0.194227
v 6.781886 1.367692 0.071061
v 6.429665 1.367692 0.105752
v 6.429665 0.812967 0.105752
v 7.120571 0.812967 -0.031678
v 7.449135 1.367692 -0.359421
v 7.328765 1.367692 -0.280706
v 7.120571 1.367692 -0.031678
v 6.745387 1.367692 -0.039063
v 5.810352 1.367692 -0.131155
v 7.048976 1.367692 -0.131155
v 5.810352 0.812967 -0.131155
v 6.113941 0.812967 -0.039063
v 7.048976 0.812967 -0.131155
v 7.328765 0.812967 -0.280706
v 1.148651 0.686252 0.153623
v 1.148651 1.607256 0.153623
v 2.614799 0.686252 0.153623
v 2.614799 1.607256 0.153623
v 1.148651 0.686252 0.318882
v 1.148651 1.607256 0.318882
v 2.614799 0.686252 0.318881
v 2.614799 1.607256 0.318882
v -1.107326 0.378417 -19.335707
v -1.107327 1.915091 -19.335705
v -0.927163 0.378418 -0.812492
v -0.927163 1.915091 -0.812490
v -1.231153 0.378417 -19.334503
v -1.231153 1.915091 -19.334499
v -1.050989 0.378418 -0.811288
v -1.050989 1.915091 -0.811286
v 3.757505 0.686252 -9.836288
v 3.757505 1.607256 -9.836289
v 4.438896 0.686252 -9.836289
v 4.438896 1.607256 -9.836289
v 3.757505 0.686251 -9.671030
v 3.757505 1.607256 -9.671030
v 4.438896 0.686252 -9.671031
v 4.438896 1.607256 -9.671031
v 8.284871 0.686251 -7.839625
v 8.284872 1.607256 -7.839625
v 8.284872 0.686252 -6.914364
v 8.284872 1.607256 -6.914362
v 8.119613 0.686251 -7.839625
v 8.119613 1.607256 -7.839625
v 8.119614 0.686252 -6.914364
v 8.119614 1.607256 -6.914362
v 4.796794 0.686251 -9.204993
v 4.796795 1.607256 -9.204993
v 4.908233 0.686252 -5.351875
v 4.908234 1.607256 -5.351870
v 4.631605 0.686251 -9.200216
v 4.631605 1.607256 -9.200216
v 4.743044 0.686252 -5.347097
v 4.743044 1.607256 -5.347093
v 11.495104 0.686251 -19.529718
v 11.495105 1.607256 -19.529718
v 11.495105 0.686252 -18.604458
v 11.495105 1.607256 -18.604456
v 11.329845 0.686251 -19.529718
v 11.329845 1.607256 -19.529718
v 11.329846 0.686252 -18.604458
v 11.329846 1.607256 -18.604456
v 6.642799 0.686251 -19.075504
v 6.642799 1.607256 -19.075504
v 5.955177 0.686252 -19.075504
v 5.955176 1.607256 -19.075504
v 6.642799 0.686251 -19.210804
v 6.642799 1.607256 -19.210804
v 5.955177 0.686252 -19.210804
v 5.955176 1.607256 -19.210804
v 5.611500 0.686251 -19.377945
v 5.611500 1.607256 -19.377945
v 5.611500 0.686252 -19.907978
v 5.611500 1.607256 -19.907980
v 5.760889 0.686251 -19.377945
v 5.760889 1.607256 -19.377945
v 5.760889 0.686252 -19.907978
v 5.760889 1.607256 -19.907980
vt 0.538721 0.535531
vt 0.714833 0.496017
vt 0.556971 0.480469
vt 0.906483 0.429684
vt 1.183846 0.360812
vt 0.906483 0.360812
vt 0.890943 0.535530
vt 0.872694 0.480469
vt 0.906483 0.320290
vt 1.183846 0.402886
vt 0.906483 0.402886
vt 0.224567 0.320290
vt 0.164382 0.359647
vt 0.224567 0.402886
vt 0.060286 0.484161
vt -0.127306 0.480469
vt -0.109057 0.535530
vt 0.714833 0.552876
vt 0.369379 0.484161
vt 0.405176 0.434423
vt 0.247080 0.429684
vt 0.024488 0.434423
vt 0.247080 0.360812
vt 1.060286 0.484161
vt 1.024488 0.434423
vt 0.183846 0.429684
vt 0.183846 0.360812
vt -0.093517 0.429684
vt 0.183846 0.320290
vt 0.183846 0.402886
vt -0.093517 0.320290
vt 0.807400 0.303628
vt 0.807400 -0.156874
vt 0.074326 -0.156874
vt 0.303628 0.659441
vt -0.156874 0.659441
vt -0.156874 0.576811
vt 0.074326 0.303628
vt 0.303628 0.576811
vt 0.807400 0.576811
vt 0.807400 0.659441
vt 0.074326 0.659441
vt 0.074326 0.576811
vt 0.538721 1.183846
vt 0.369379 1.183846
vt 0.369379 0.906483
vt -0.109057 1.183846
vt -0.285167 1.183846
vt -0.109057 0.906483
vt 0.714833 0.183846
vt 0.556971 -0.093517
vt 0.556971 0.183846
vt 0.024488 0.906483
vt 0.024488 1.183846
vt 0.164382 1.183846
vt 0.457544 0.832148
vt 0.457545 10.093755
vt -0.310791 10.093754
vt -0.025495 0.457545
vt -0.025495 -0.310791
vt 0.036418 -0.310791
vt 0.457544 -9.167250
vt -0.310793 -9.167252
vt -0.310791 0.094356
vt 0.884424 0.457544
vt 0.946337 0.457544
vt 0.946337 -0.310793
vt 1.036418 10.093754
vt 0.974505 10.094357
vt 0.884424 0.832748
vt 0.884424 0.832750
vt 0.378752 0.303627
vt 0.719448 0.303627
vt 0.719448 -0.156875
vt 0.303627 0.664485
vt -0.156875 0.664485
vt -0.156875 0.581855
vt 0.378752 -0.156875
vt 0.303627 0.581855
vt 0.378752 0.581856
vt 0.719448 0.581855
vt 0.719448 0.664485
vt 0.303627 0.580187
vt 0.303627 1.042819
vt -0.156875 1.042818
vt 0.559807 0.303627
vt 0.559807 -0.156875
vt 0.642436 -0.156875
vt 0.303627 -0.419813
vt -0.156875 -0.419813
vt -0.156875 0.042818
vt 0.642436 0.303627
vt 0.642436 0.580187
vt 0.642436 1.042818
vt 0.559807 1.042818
vt 0.303627 0.897503
vt 0.303628 2.824065
vt -0.156875 2.824063
vt 0.871522 0.303628
vt 0.871522 -0.156875
vt 0.954117 -0.156875
vt 0.303627 -1.100108
vt -0.156875 -1.100108
vt -0.156875 0.826451
vt 0.898397 0.303627
vt 0.898397 -0.156875
vt 0.815802 -0.156875
vt 0.954117 2.824063
vt 0.871522 2.826451
vt 0.815802 0.899892
vt 0.898397 0.897503
vt 0.303627 0.735141
vt 0.303627 1.197772
vt -0.156876 1.197771
vt 0.164923 0.303627
vt 0.164923 -0.156876
vt 0.247552 -0.156876
vt 0.303627 -0.264859
vt -0.156876 -0.264859
vt -0.156876 0.197771
vt 0.247552 0.303627
vt 0.247552 0.735141
vt 0.247552 1.197771
vt 0.164923 1.197771
vt 0.821399 0.303627
vt 0.477588 0.303627
vt 0.477589 -0.156876
vt 0.303627 0.894598
vt -0.156876 0.894598
vt -0.156876 0.962248
vt 0.821399 -0.156876
vt 0.303627 0.962248
vt 0.477589 0.962248
vt 0.477589 0.894598
vt 0.821399 0.894598
vt 0.821399 0.962248
vt 0.303626 0.811028
vt 0.303626 0.546010
vt -0.156876 0.546011
vt 0.380445 0.303626
vt 0.380445 -0.156876
vt 0.305750 -0.156876
vt -0.156876 0.811028
vt 0.305750 0.303626
vt 0.305750 0.546011
vt 0.380445 0.546011
vt 0.380445 0.811028
vt 0.305750 0.811028
vt 0.538721 0.906483
vt 0.714833 0.906483
vt 0.714833 1.183846
vt 0.247080 1.183846
vt 0.247080 0.906483
vt 0.060286 0.906483
vt 0.060286 1.183846
vt 0.224567 0.906483
vt 0.224567 1.183846
vt -0.285167 0.906483
vt 0.247080 -0.093517
vt 0.247080 0.183846
vt 0.405176 0.183846
vt 0.714833 -0.093517
vt 0.405176 -0.093517
vt 0.164382 0.906483
vt -0.127306 0.906483
vt -0.127306 1.183846
vt -0.310793 0.832147
vt 0.036418 0.457545
vt 0.457545 0.094357
vt 0.884424 -0.310793
vt 0.946337 0.832147
vt 0.378752 0.664485
vt -0.156875 0.580187
vt 0.303627 0.042819
vt 0.559806 0.580187
vt -0.156875 0.897503
vt 0.954117 0.303628
vt 0.303628 0.826453
vt 0.815802 0.303627
vt -0.156876 0.735141
vt 0.303627 0.197772
vt 0.164923 0.735141
vn 0.000000 1.000000 0.000000
vn -1.000000 0.000000 0.000000
vn 0.000000 -1.000000 0.000000
vn 1.000000 0.000000 0.000000
vn -0.000000 0.000000 -1.000000
vn 0.000000 -0.000000 1.000000
vn -0.290300 -0.000000 0.956900
vn 0.098000 -0.000000 0.995200
vn 0.098000 0.000000 -0.995200
vn -0.471400 0.000000 -0.881900
vn 1.000000 -0.000000 -0.009700
vn 0.009700 -0.000000 1.000000
vn -1.000000 0.000000 0.009700
vn -0.009700 0.000000 -1.000000
vn 0.999600 0.000000 -0.028900
vn 0.028900 -0.000000 0.999600
vn -0.999600 0.000000 0.028900
vn -0.028900 0.000000 -0.999600
vn -0.098000 -0.000000 0.995200
vn -0.406900 0.000000 0.913500
vn 0.290300 -0.000000 0.956900
vn 0.443400 0.000000 0.896300
vn 0.422100 0.000000 -0.906500
vn 0.290300 0.000000 -0.956900
vn -0.547300 0.000000 -0.836900
vn -0.290300 0.000000 -0.956900
vn -0.098000 0.000000 -0.995200
usemtl vitre
s off
f 5/1/1 7/2/1 6/3/1
f 2/4/2 1/5/2 8/6/2
f 9/7/3 11/2/3 10/8/3
f 14/9/4 16/10/4 15/11/4
f 21/12/1 22/13/1 16/14/1
f 23/15/1 24/16/1 17/17/1
f 18/18/1 7/2/1 5/1/1
f 4/19/1 25/20/1 3/21/1
f 22/13/1 26/22/1 16/14/1
f 3/21/1 25/20/1 1/23/1
f 26/22/1 23/15/1 16/14/1
f 4/19/1 6/3/1 25/20/1
f 24/8/1 23/24/1 26/25/1
f 4/19/1 5/1/1 6/3/1
f 7/2/1 17/7/1 24/8/1
f 17/7/1 7/2/1 18/18/1
f 3/26/2 1/27/2 2/28/2
f 8/23/3 27/20/3 2/21/3
f 13/19/3 28/3/3 12/1/3
f 19/18/3 11/2/3 9/7/3
f 20/15/3 29/22/3 15/14/3
f 27/20/3 13/19/3 2/21/3
f 15/14/3 30/13/3 14/12/3
f 28/3/3 13/19/3 27/20/3
f 15/14/3 29/22/3 30/13/3
f 11/2/3 12/1/3 28/3/3
f 20/15/3 10/16/3 29/22/3
f 11/2/3 19/18/3 12/1/3
f 20/15/3 9/17/3 10/16/3
f 21/29/4 16/30/4 14/31/4
f 34/32/5 33/33/5 31/34/5
f 38/35/4 37/36/4 33/37/4
f 36/38/6 35/34/6 37/33/6
f 32/39/2 31/37/2 35/36/2
f 33/40/3 37/41/3 35/42/3
f 38/41/1 34/40/1 32/43/1
f 5/44/7 4/45/7 13/46/7
f 17/47/8 18/48/8 9/49/8
f 7/50/9 28/51/9 6/52/9
f 29/53/10 26/54/10 22/55/10
f 40/56/11 42/57/11 41/58/11
f 46/59/12 45/60/12 41/61/12
f 44/62/13 43/63/13 45/64/13
f 44/65/14 40/66/14 39/67/14
f 41/68/3 45/69/3 43/70/3
f 44/71/1 46/69/1 42/68/1
f 48/72/5 50/73/5 49/74/5
f 54/75/4 53/76/4 49/77/4
f 52/72/6 51/78/6 53/74/6
f 52/75/2 48/79/2 47/77/2
f 47/80/3 49/81/3 53/82/3
f 54/82/1 50/81/1 48/80/1
f 56/83/4 58/84/4 57/85/4
f 62/86/6 61/87/6 57/88/6
f 60/89/2 59/90/2 61/91/2
f 56/92/5 55/88/5 59/87/5
f 55/93/3 57/94/3 61/95/3
f 62/95/1 58/94/1 56/93/1
f 64/96/15 66/97/15 65/98/15
f 70/99/16 69/100/16 65/101/16
f 68/102/17 67/103/17 69/104/17
f 64/105/18 63/106/18 67/107/18
f 65/108/3 69/109/3 67/110/3
f 70/109/1 66/108/1 64/111/1
f 72/112/4 74/113/4 73/114/4
f 78/115/6 77/116/6 73/117/6
f 76/118/2 75/119/2 77/120/2
f 72/121/5 71/117/5 75/116/5
f 71/122/3 73/123/3 77/124/3
f 78/124/1 74/123/1 72/122/1
f 80/125/6 82/126/6 81/127/6
f 86/128/2 85/129/2 81/130/2
f 84/125/5 83/131/5 85/127/5
f 80/132/4 79/130/4 83/129/4
f 81/133/3 85/134/3 83/135/3
f 86/134/1 82/133/1 80/136/1
f 88/137/2 90/138/2 89/139/2
f 94/140/5 93/141/5 89/142/5
f 92/137/4 91/143/4 93/139/4
f 88/144/6 87/142/6 91/141/6
f 89/145/3 93/146/3 91/147/3
f 94/146/1 90/145/1 88/148/1
f 32/38/5 34/32/5 31/34/5
f 34/39/4 38/35/4 33/37/4
f 38/32/6 36/38/6 37/33/6
f 36/35/2 32/39/2 35/36/2
f 31/43/3 33/40/3 35/42/3
f 36/42/1 38/41/1 32/43/1
f 12/149/19 19/150/19 18/151/19
f 18/151/19 5/44/19 12/149/19
f 4/45/20 3/152/20 13/46/20
f 13/46/7 12/149/7 5/44/7
f 3/152/20 2/153/20 13/46/20
f 9/49/21 20/154/21 23/155/21
f 15/156/22 16/157/22 23/155/22
f 23/155/21 17/47/21 9/49/21
f 18/48/8 19/158/8 9/49/8
f 20/154/22 15/156/22 23/155/22
f 8/159/23 1/160/23 25/161/23
f 25/161/24 6/52/24 28/51/24
f 7/50/9 11/162/9 28/51/9
f 28/51/24 27/163/24 25/161/24
f 8/159/23 25/161/23 27/163/23
f 21/157/25 14/156/25 30/164/25
f 29/53/26 10/165/26 24/166/26
f 21/157/25 30/164/25 22/55/25
f 24/166/26 26/54/26 29/53/26
f 22/55/10 30/164/10 29/53/10
f 10/165/27 11/158/27 7/48/27
f 7/48/27 24/166/27 10/165/27
f 39/167/11 40/56/11 41/58/11
f 42/168/12 46/59/12 41/61/12
f 46/169/13 44/62/13 45/64/13
f 43/170/14 44/65/14 39/67/14
f 39/171/3 41/68/3 43/70/3
f 40/171/1 44/71/1 42/68/1
f 47/78/5 48/72/5 49/74/5
f 50/79/4 54/75/4 49/77/4
f 54/73/6 52/72/6 53/74/6
f 51/76/2 52/75/2 47/77/2
f 51/172/3 47/80/3 53/82/3
f 52/172/1 54/82/1 48/80/1
f 55/173/4 56/83/4 57/85/4
f 58/92/6 62/86/6 57/88/6
f 62/174/2 60/89/2 61/91/2
f 60/86/5 56/92/5 59/87/5
f 59/175/3 55/93/3 61/95/3
f 60/175/1 62/95/1 56/93/1
f 63/176/15 64/96/15 65/98/15
f 66/177/16 70/99/16 65/101/16
f 70/178/17 68/102/17 69/104/17
f 68/179/18 64/105/18 67/107/18
f 63/111/3 65/108/3 67/110/3
f 68/110/1 70/109/1 64/111/1
f 71/180/4 72/112/4 73/114/4
f 74/121/6 78/115/6 73/117/6
f 78/181/2 76/118/2 77/120/2
f 76/115/5 72/121/5 75/116/5
f 75/182/3 71/122/3 77/124/3
f 76/182/1 78/124/1 72/122/1
f 79/131/6 80/125/6 81/127/6
f 82/132/2 86/128/2 81/130/2
f 86/126/5 84/125/5 85/127/5
f 84/128/4 80/132/4 83/129/4
f 79/136/3 81/133/3 83/135/3
f 84/135/1 86/134/1 80/136/1
f 87/143/2 88/137/2 89/139/2
f 90/144/5 94/140/5 89/142/5
f 94/138/4 92/137/4 93/139/4
f 92/140/6 88/144/6 91/141/6
f 87/148/3 89/145/3 91/147/3
f 92/147/1 94/146/1 88/148/1
